<ttFont>
    <TTGlyph name=".notdef" xMin="160" yMin="-108" xMax="1423" yMax="1153">
      <contour>
        <pt x="160" y="523" on="1"/>
        <pt x="160" y="610" on="0"/>
        <pt x="205" y="771" on="0"/>
        <pt x="287" y="911" on="0"/>
        <pt x="401" y="1026" on="0"/>
        <pt x="542" y="1108" on="0"/>
        <pt x="704" y="1153" on="0"/>
        <pt x="792" y="1153" on="1"/>
        <pt x="879" y="1153" on="0"/>
        <pt x="1041" y="1108" on="0"/>
        <pt x="1181" y="1026" on="0"/>
        <pt x="1296" y="911" on="0"/>
        <pt x="1378" y="771" on="0"/>
        <pt x="1423" y="610" on="0"/>
        <pt x="1423" y="523" on="1"/>
        <pt x="1423" y="391" on="0"/>
        <pt x="1324" y="160" on="0"/>
        <pt x="1153" y="-10" on="0"/>
        <pt x="923" y="-108" on="0"/>
        <pt x="792" y="-108" on="1"/>
        <pt x="704" y="-108" on="0"/>
        <pt x="542" y="-64" on="0"/>
        <pt x="401" y="18" on="0"/>
        <pt x="287" y="132" on="0"/>
        <pt x="205" y="273" on="0"/>
        <pt x="160" y="435" on="0"/>
      </contour>
      <contour>
        <pt x="390" y="319" on="1"/>
        <pt x="456" y="361" on="0"/>
        <pt x="621" y="447" on="0"/>
        <pt x="728" y="485" on="1"/>
        <pt x="686" y="385" on="0"/>
        <pt x="613" y="199" on="0"/>
        <pt x="593" y="111" on="1"/>
        <pt x="607" y="97" on="0"/>
        <pt x="658" y="77" on="0"/>
        <pt x="712" y="67" on="0"/>
        <pt x="762" y="65" on="0"/>
        <pt x="775" y="68" on="1"/>
        <pt x="770" y="170" on="0"/>
        <pt x="777" y="355" on="0"/>
        <pt x="785" y="451" on="1"/>
        <pt x="842" y="370" on="0"/>
        <pt x="959" y="210" on="0"/>
        <pt x="1031" y="137" on="1"/>
        <pt x="1051" y="144" on="0"/>
        <pt x="1092" y="175" on="0"/>
        <pt x="1128" y="214" on="0"/>
        <pt x="1156" y="255" on="0"/>
        <pt x="1163" y="272" on="1"/>
        <pt x="1137" y="283" on="0"/>
        <pt x="1060" y="330" on="0"/>
        <pt x="973" y="389" on="0"/>
        <pt x="883" y="452" on="0"/>
        <pt x="844" y="480" on="1"/>
        <pt x="895" y="483" on="0"/>
        <pt x="1006" y="494" on="0"/>
        <pt x="1112" y="509" on="0"/>
        <pt x="1208" y="528" on="0"/>
        <pt x="1245" y="539" on="1"/>
        <pt x="1248" y="559" on="0"/>
        <pt x="1243" y="608" on="0"/>
        <pt x="1229" y="658" on="0"/>
        <pt x="1206" y="705" on="0"/>
        <pt x="1191" y="724" on="1"/>
        <pt x="1158" y="703" on="0"/>
        <pt x="1077" y="655" on="0"/>
        <pt x="989" y="608" on="0"/>
        <pt x="894" y="565" on="0"/>
        <pt x="848" y="548" on="1"/>
        <pt x="897" y="632" on="0"/>
        <pt x="964" y="826" on="0"/>
        <pt x="986" y="929" on="1"/>
        <pt x="952" y="952" on="0"/>
        <pt x="852" y="969" on="0"/>
        <pt x="801" y="959" on="1"/>
        <pt x="811" y="863" on="0"/>
        <pt x="801" y="680" on="0"/>
        <pt x="796" y="584" on="1"/>
        <pt x="743" y="673" on="0"/>
        <pt x="617" y="825" on="0"/>
        <pt x="537" y="898" on="1"/>
        <pt x="520" y="889" on="0"/>
        <pt x="482" y="858" on="0"/>
        <pt x="447" y="820" on="0"/>
        <pt x="419" y="780" on="0"/>
        <pt x="413" y="764" on="1"/>
        <pt x="454" y="744" on="0"/>
        <pt x="538" y="693" on="0"/>
        <pt x="620" y="637" on="0"/>
        <pt x="699" y="578" on="0"/>
        <pt x="735" y="550" on="1"/>
        <pt x="638" y="548" on="0"/>
        <pt x="432" y="529" on="0"/>
        <pt x="338" y="503" on="1"/>
        <pt x="335" y="482" on="0"/>
        <pt x="340" y="432" on="0"/>
        <pt x="354" y="382" on="0"/>
        <pt x="376" y="336" on="0"/>
      </contour>
    </TTGlyph>
    <TTGlyph name="A" xMin="36" yMin="0" xMax="1376" yMax="1455">
      <contour>
        <pt x="36" y="90" on="1"/>
        <pt x="43" y="93" on="0"/>
        <pt x="68" y="101" on="0"/>
        <pt x="97" y="108" on="0"/>
        <pt x="127" y="115" on="0"/>
        <pt x="139" y="118" on="1"/>
        <pt x="593" y="1448" on="1"/>
        <pt x="618" y="1452" on="0"/>
        <pt x="675" y="1455" on="0"/>
        <pt x="730" y="1455" on="0"/>
        <pt x="782" y="1451" on="0"/>
        <pt x="803" y="1448" on="1"/>
        <pt x="1271" y="113" on="1"/>
        <pt x="1376" y="90" on="1"/>
        <pt x="1366" y="0" on="1"/>
        <pt x="898" y="0" on="1"/>
        <pt x="889" y="90" on="1"/>
        <pt x="909" y="95" on="0"/>
        <pt x="959" y="105" on="0"/>
        <pt x="1012" y="113" on="0"/>
        <pt x="1062" y="119" on="0"/>
        <pt x="1082" y="122" on="1"/>
        <pt x="954" y="496" on="1"/>
        <pt x="413" y="496" on="1"/>
        <pt x="288" y="122" on="1"/>
        <pt x="293" y="122" on="1"/>
        <pt x="496" y="90" on="1"/>
        <pt x="487" y="0" on="1"/>
        <pt x="47" y="0" on="1"/>
      </contour>
      <contour>
        <pt x="917" y="612" on="1"/>
        <pt x="697" y="1247" on="1"/>
        <pt x="679" y="1310" on="1"/>
        <pt x="654" y="1202" on="1"/>
        <pt x="454" y="612" on="1"/>
      </contour>
    </TTGlyph>
    <TTGlyph name="AE" xMin="21" yMin="0" xMax="1818" yMax="1448">
      <contour>
        <pt x="21" y="90" on="1"/>
        <pt x="28" y="93" on="0"/>
        <pt x="53" y="101" on="0"/>
        <pt x="82" y="108" on="0"/>
        <pt x="112" y="114" on="0"/>
        <pt x="124" y="117" on="1"/>
        <pt x="664" y="1331" on="1"/>
        <pt x="647" y="1333" on="0"/>
        <pt x="621" y="1338" on="0"/>
        <pt x="597" y="1344" on="0"/>
        <pt x="571" y="1351" on="0"/>
        <pt x="555" y="1355" on="1"/>
        <pt x="553" y="1378" on="0"/>
        <pt x="557" y="1425" on="0"/>
        <pt x="564" y="1448" on="1"/>
        <pt x="1746" y="1448" on="1"/>
        <pt x="1761" y="1432" on="1"/>
        <pt x="1762" y="1394" on="0"/>
        <pt x="1753" y="1295" on="0"/>
        <pt x="1740" y="1197" on="0"/>
        <pt x="1726" y="1114" on="0"/>
        <pt x="1721" y="1092" on="1"/>
        <pt x="1697" y="1087" on="0"/>
        <pt x="1641" y="1088" on="0"/>
        <pt x="1612" y="1092" on="1"/>
        <pt x="1593" y="1331" on="1"/>
        <pt x="1092" y="1331" on="1"/>
        <pt x="1092" y="771" on="1"/>
        <pt x="1567" y="775" on="1"/>
        <pt x="1572" y="746" on="0"/>
        <pt x="1565" y="675" on="0"/>
        <pt x="1560" y="643" on="1"/>
        <pt x="1092" y="654" on="1"/>
        <pt x="1092" y="120" on="1"/>
        <pt x="1640" y="120" on="1"/>
        <pt x="1707" y="343" on="1"/>
        <pt x="1735" y="345" on="0"/>
        <pt x="1794" y="341" on="0"/>
        <pt x="1818" y="334" on="1"/>
        <pt x="1817" y="299" on="0"/>
        <pt x="1811" y="213" on="0"/>
        <pt x="1803" y="126" on="0"/>
        <pt x="1795" y="46" on="0"/>
        <pt x="1791" y="16" on="1"/>
        <pt x="1770" y="0" on="1"/>
        <pt x="758" y="0" on="1"/>
        <pt x="758" y="1" on="1"/>
        <pt x="742" y="0" on="1"/>
        <pt x="730" y="92" on="1"/>
        <pt x="732" y="92" on="0"/>
        <pt x="738" y="93" on="0"/>
        <pt x="742" y="95" on="1"/>
        <pt x="780" y="102" on="0"/>
        <pt x="873" y="117" on="0"/>
        <pt x="913" y="122" on="1"/>
        <pt x="913" y="1326" on="1"/>
        <pt x="801" y="1326" on="1"/>
        <pt x="558" y="769" on="1"/>
        <pt x="553" y="769" on="1"/>
        <pt x="503" y="654" on="1"/>
        <pt x="508" y="654" on="1"/>
        <pt x="276" y="122" on="1"/>
        <pt x="279" y="122" on="1"/>
        <pt x="482" y="90" on="1"/>
        <pt x="473" y="0" on="1"/>
        <pt x="33" y="0" on="1"/>
      </contour>
      <contour>
        <pt x="508" y="654" on="1"/>
        <pt x="558" y="769" on="1"/>
        <pt x="913" y="771" on="1"/>
        <pt x="913" y="654" on="1"/>
      </contour>
    </TTGlyph>
    <TTGlyph name="Aacute" xMin="36" yMin="0" xMax="1376" yMax="1881">
      <contour>
        <pt x="554" y="1538" on="1"/>
        <pt x="544" y="1547" on="0"/>
        <pt x="518" y="1588" on="0"/>
        <pt x="507" y="1614" on="1"/>
        <pt x="868" y="1881" on="1"/>
        <pt x="983" y="1796" on="1"/>
        <pt x="981" y="1746" on="1"/>
      </contour>
      <contour>
        <pt x="36" y="90" on="1"/>
        <pt x="43" y="93" on="0"/>
        <pt x="68" y="101" on="0"/>
        <pt x="97" y="108" on="0"/>
        <pt x="127" y="115" on="0"/>
        <pt x="139" y="118" on="1"/>
        <pt x="593" y="1448" on="1"/>
        <pt x="618" y="1452" on="0"/>
        <pt x="675" y="1455" on="0"/>
        <pt x="730" y="1455" on="0"/>
        <pt x="782" y="1451" on="0"/>
        <pt x="803" y="1448" on="1"/>
        <pt x="1271" y="113" on="1"/>
        <pt x="1376" y="90" on="1"/>
        <pt x="1366" y="0" on="1"/>
        <pt x="898" y="0" on="1"/>
        <pt x="889" y="90" on="1"/>
        <pt x="909" y="95" on="0"/>
        <pt x="959" y="105" on="0"/>
        <pt x="1012" y="113" on="0"/>
        <pt x="1062" y="119" on="0"/>
        <pt x="1082" y="122" on="1"/>
        <pt x="954" y="496" on="1"/>
        <pt x="413" y="496" on="1"/>
        <pt x="288" y="122" on="1"/>
        <pt x="293" y="122" on="1"/>
        <pt x="496" y="90" on="1"/>
        <pt x="487" y="0" on="1"/>
        <pt x="47" y="0" on="1"/>
      </contour>
      <contour>
        <pt x="917" y="612" on="1"/>
        <pt x="697" y="1247" on="1"/>
        <pt x="679" y="1310" on="1"/>
        <pt x="654" y="1202" on="1"/>
        <pt x="454" y="612" on="1"/>
      </contour>
    </TTGlyph>
    <TTGlyph name="Acircumflex" xMin="36" yMin="0" xMax="1376" yMax="1863">
      <contour>
        <pt x="454" y="1531" on="1"/>
        <pt x="447" y="1535" on="0"/>
        <pt x="429" y="1549" on="0"/>
        <pt x="412" y="1567" on="0"/>
        <pt x="398" y="1588" on="0"/>
        <pt x="395" y="1597" on="1"/>
        <pt x="641" y="1863" on="1"/>
        <pt x="742" y="1863" on="1"/>
        <pt x="988" y="1603" on="1"/>
        <pt x="977" y="1580" on="0"/>
        <pt x="936" y="1539" on="0"/>
        <pt x="920" y="1531" on="1"/>
        <pt x="686" y="1714" on="1"/>
      </contour>
      <contour>
        <pt x="36" y="90" on="1"/>
        <pt x="43" y="93" on="0"/>
        <pt x="68" y="101" on="0"/>
        <pt x="97" y="108" on="0"/>
        <pt x="127" y="115" on="0"/>
        <pt x="139" y="118" on="1"/>
        <pt x="593" y="1448" on="1"/>
        <pt x="618" y="1452" on="0"/>
        <pt x="675" y="1455" on="0"/>
        <pt x="730" y="1455" on="0"/>
        <pt x="782" y="1451" on="0"/>
        <pt x="803" y="1448" on="1"/>
        <pt x="1271" y="113" on="1"/>
        <pt x="1376" y="90" on="1"/>
        <pt x="1366" y="0" on="1"/>
        <pt x="898" y="0" on="1"/>
        <pt x="889" y="90" on="1"/>
        <pt x="909" y="95" on="0"/>
        <pt x="959" y="105" on="0"/>
        <pt x="1012" y="113" on="0"/>
        <pt x="1062" y="119" on="0"/>
        <pt x="1082" y="122" on="1"/>
        <pt x="954" y="496" on="1"/>
        <pt x="413" y="496" on="1"/>
        <pt x="288" y="122" on="1"/>
        <pt x="293" y="122" on="1"/>
        <pt x="496" y="90" on="1"/>
        <pt x="487" y="0" on="1"/>
        <pt x="47" y="0" on="1"/>
      </contour>
      <contour>
        <pt x="917" y="612" on="1"/>
        <pt x="697" y="1247" on="1"/>
        <pt x="679" y="1310" on="1"/>
        <pt x="654" y="1202" on="1"/>
        <pt x="454" y="612" on="1"/>
      </contour>
    </TTGlyph>
    <TTGlyph name="Adieresis" xMin="36" yMin="0" xMax="1376" yMax="1801">
      <contour>
        <pt x="891" y="1590" on="1"/>
        <pt x="858" y="1590" on="0"/>
        <pt x="816" y="1607" on="0"/>
        <pt x="792" y="1635" on="0"/>
        <pt x="782" y="1673" on="0"/>
        <pt x="782" y="1694" on="1"/>
        <pt x="782" y="1716" on="0"/>
        <pt x="792" y="1755" on="0"/>
        <pt x="816" y="1784" on="0"/>
        <pt x="858" y="1801" on="0"/>
        <pt x="891" y="1801" on="1"/>
        <pt x="953" y="1801" on="0"/>
        <pt x="998" y="1744" on="0"/>
        <pt x="998" y="1694" on="1"/>
        <pt x="998" y="1673" on="0"/>
        <pt x="988" y="1635" on="0"/>
        <pt x="963" y="1607" on="0"/>
        <pt x="922" y="1590" on="0"/>
      </contour>
      <contour>
        <pt x="467" y="1590" on="1"/>
        <pt x="437" y="1590" on="0"/>
        <pt x="397" y="1607" on="0"/>
        <pt x="373" y="1635" on="0"/>
        <pt x="363" y="1673" on="0"/>
        <pt x="363" y="1694" on="1"/>
        <pt x="363" y="1716" on="0"/>
        <pt x="373" y="1755" on="0"/>
        <pt x="397" y="1784" on="0"/>
        <pt x="437" y="1801" on="0"/>
        <pt x="467" y="1801" on="1"/>
        <pt x="529" y="1801" on="0"/>
        <pt x="579" y="1744" on="0"/>
        <pt x="579" y="1694" on="1"/>
        <pt x="579" y="1673" on="0"/>
        <pt x="567" y="1635" on="0"/>
        <pt x="541" y="1607" on="0"/>
        <pt x="498" y="1590" on="0"/>
      </contour>
      <contour>
        <pt x="36" y="90" on="1"/>
        <pt x="43" y="93" on="0"/>
        <pt x="68" y="101" on="0"/>
        <pt x="97" y="108" on="0"/>
        <pt x="127" y="115" on="0"/>
        <pt x="139" y="118" on="1"/>
        <pt x="593" y="1448" on="1"/>
        <pt x="618" y="1452" on="0"/>
        <pt x="675" y="1455" on="0"/>
        <pt x="730" y="1455" on="0"/>
        <pt x="782" y="1451" on="0"/>
        <pt x="803" y="1448" on="1"/>
        <pt x="1271" y="113" on="1"/>
        <pt x="1376" y="90" on="1"/>
        <pt x="1366" y="0" on="1"/>
        <pt x="898" y="0" on="1"/>
        <pt x="889" y="90" on="1"/>
        <pt x="909" y="95" on="0"/>
        <pt x="959" y="105" on="0"/>
        <pt x="1012" y="113" on="0"/>
        <pt x="1062" y="119" on="0"/>
        <pt x="1082" y="122" on="1"/>
        <pt x="954" y="496" on="1"/>
        <pt x="413" y="496" on="1"/>
        <pt x="288" y="122" on="1"/>
        <pt x="293" y="122" on="1"/>
        <pt x="496" y="90" on="1"/>
        <pt x="487" y="0" on="1"/>
        <pt x="47" y="0" on="1"/>
      </contour>
      <contour>
        <pt x="917" y="612" on="1"/>
        <pt x="697" y="1247" on="1"/>
        <pt x="679" y="1310" on="1"/>
        <pt x="654" y="1202" on="1"/>
        <pt x="454" y="612" on="1"/>
      </contour>
    </TTGlyph>
    <TTGlyph name="Agrave" xMin="36" yMin="0" xMax="1376" yMax="1881">
      <contour>
        <pt x="417" y="1741" on="1"/>
        <pt x="415" y="1791" on="1"/>
        <pt x="530" y="1881" on="1"/>
        <pt x="887" y="1617" on="1"/>
        <pt x="878" y="1590" on="0"/>
        <pt x="859" y="1556" on="0"/>
        <pt x="846" y="1536" on="1"/>
      </contour>
      <contour>
        <pt x="36" y="90" on="1"/>
        <pt x="43" y="93" on="0"/>
        <pt x="68" y="101" on="0"/>
        <pt x="97" y="108" on="0"/>
        <pt x="127" y="115" on="0"/>
        <pt x="139" y="118" on="1"/>
        <pt x="593" y="1448" on="1"/>
        <pt x="618" y="1452" on="0"/>
        <pt x="675" y="1455" on="0"/>
        <pt x="730" y="1455" on="0"/>
        <pt x="782" y="1451" on="0"/>
        <pt x="803" y="1448" on="1"/>
        <pt x="1271" y="113" on="1"/>
        <pt x="1376" y="90" on="1"/>
        <pt x="1366" y="0" on="1"/>
        <pt x="898" y="0" on="1"/>
        <pt x="889" y="90" on="1"/>
        <pt x="909" y="95" on="0"/>
        <pt x="959" y="105" on="0"/>
        <pt x="1012" y="113" on="0"/>
        <pt x="1062" y="119" on="0"/>
        <pt x="1082" y="122" on="1"/>
        <pt x="954" y="496" on="1"/>
        <pt x="413" y="496" on="1"/>
        <pt x="288" y="122" on="1"/>
        <pt x="293" y="122" on="1"/>
        <pt x="496" y="90" on="1"/>
        <pt x="487" y="0" on="1"/>
        <pt x="47" y="0" on="1"/>
      </contour>
      <contour>
        <pt x="917" y="612" on="1"/>
        <pt x="697" y="1247" on="1"/>
        <pt x="679" y="1310" on="1"/>
        <pt x="654" y="1202" on="1"/>
        <pt x="454" y="612" on="1"/>
      </contour>
    </TTGlyph>
    <TTGlyph name="Aogonek" xMin="56" yMin="-425" xMax="1396" yMax="1455">
      <contour>
        <pt x="56" y="90" on="1"/>
        <pt x="63" y="93" on="0"/>
        <pt x="88" y="101" on="0"/>
        <pt x="117" y="108" on="0"/>
        <pt x="147" y="115" on="0"/>
        <pt x="159" y="118" on="1"/>
        <pt x="613" y="1448" on="1"/>
        <pt x="638" y="1452" on="0"/>
        <pt x="695" y="1455" on="0"/>
        <pt x="750" y="1455" on="0"/>
        <pt x="802" y="1451" on="0"/>
        <pt x="823" y="1448" on="1"/>
        <pt x="1291" y="113" on="1"/>
        <pt x="1396" y="90" on="1"/>
        <pt x="1386" y="0" on="1"/>
        <pt x="1297" y="0" on="1"/>
        <pt x="1265" y="-29" on="0"/>
        <pt x="1200" y="-89" on="0"/>
        <pt x="1147" y="-150" on="0"/>
        <pt x="1113" y="-211" on="0"/>
        <pt x="1113" y="-242" on="1"/>
        <pt x="1113" y="-264" on="0"/>
        <pt x="1142" y="-298" on="0"/>
        <pt x="1181" y="-298" on="1"/>
        <pt x="1193" y="-298" on="0"/>
        <pt x="1219" y="-293" on="0"/>
        <pt x="1244" y="-286" on="0"/>
        <pt x="1265" y="-279" on="0"/>
        <pt x="1271" y="-276" on="1"/>
        <pt x="1311" y="-364" on="1"/>
        <pt x="1293" y="-374" on="0"/>
        <pt x="1250" y="-396" on="0"/>
        <pt x="1201" y="-414" on="0"/>
        <pt x="1144" y="-425" on="0"/>
        <pt x="1113" y="-425" on="1"/>
        <pt x="1086" y="-425" on="0"/>
        <pt x="1033" y="-409" on="0"/>
        <pt x="992" y="-376" on="0"/>
        <pt x="966" y="-323" on="0"/>
        <pt x="966" y="-287" on="1"/>
        <pt x="966" y="-243" on="0"/>
        <pt x="997" y="-168" on="0"/>
        <pt x="1051" y="-102" on="0"/>
        <pt x="1122" y="-43" on="0"/>
        <pt x="1162" y="-16" on="1"/>
        <pt x="1190" y="0" on="1"/>
        <pt x="918" y="0" on="1"/>
        <pt x="909" y="90" on="1"/>
        <pt x="929" y="95" on="0"/>
        <pt x="979" y="105" on="0"/>
        <pt x="1032" y="113" on="0"/>
        <pt x="1082" y="119" on="0"/>
        <pt x="1102" y="122" on="1"/>
        <pt x="974" y="496" on="1"/>
        <pt x="433" y="496" on="1"/>
        <pt x="308" y="122" on="1"/>
        <pt x="313" y="122" on="1"/>
        <pt x="516" y="90" on="1"/>
        <pt x="507" y="0" on="1"/>
        <pt x="67" y="0" on="1"/>
      </contour>
      <contour>
        <pt x="937" y="612" on="1"/>
        <pt x="717" y="1247" on="1"/>
        <pt x="699" y="1310" on="1"/>
        <pt x="674" y="1202" on="1"/>
        <pt x="474" y="612" on="1"/>
      </contour>
    </TTGlyph>
    <TTGlyph name="Aring" xMin="36" yMin="0" xMax="1376" yMax="1932">
      <contour>
        <pt x="688" y="1503" on="1"/>
        <pt x="642" y="1503" on="0"/>
        <pt x="561" y="1535" on="0"/>
        <pt x="501" y="1592" on="0"/>
        <pt x="466" y="1671" on="0"/>
        <pt x="466" y="1718" on="1"/>
        <pt x="466" y="1764" on="0"/>
        <pt x="501" y="1843" on="0"/>
        <pt x="561" y="1900" on="0"/>
        <pt x="642" y="1932" on="0"/>
        <pt x="688" y="1932" on="1"/>
        <pt x="736" y="1932" on="0"/>
        <pt x="817" y="1900" on="0"/>
        <pt x="875" y="1843" on="0"/>
        <pt x="907" y="1765" on="0"/>
        <pt x="907" y="1718" on="1"/>
        <pt x="907" y="1671" on="0"/>
        <pt x="873" y="1592" on="0"/>
        <pt x="813" y="1535" on="0"/>
        <pt x="733" y="1503" on="0"/>
      </contour>
      <contour>
        <pt x="711" y="1615" on="1"/>
        <pt x="749" y="1619" on="0"/>
        <pt x="783" y="1667" on="0"/>
        <pt x="785" y="1705" on="1"/>
        <pt x="787" y="1753" on="0"/>
        <pt x="737" y="1814" on="0"/>
        <pt x="686" y="1818" on="1"/>
        <pt x="670" y="1818" on="1"/>
        <pt x="632" y="1814" on="0"/>
        <pt x="596" y="1768" on="0"/>
        <pt x="594" y="1730" on="1"/>
        <pt x="591" y="1683" on="0"/>
        <pt x="642" y="1617" on="0"/>
        <pt x="696" y="1615" on="1"/>
      </contour>
      <contour>
        <pt x="36" y="90" on="1"/>
        <pt x="43" y="93" on="0"/>
        <pt x="68" y="101" on="0"/>
        <pt x="97" y="108" on="0"/>
        <pt x="127" y="115" on="0"/>
        <pt x="139" y="118" on="1"/>
        <pt x="593" y="1448" on="1"/>
        <pt x="618" y="1452" on="0"/>
        <pt x="675" y="1455" on="0"/>
        <pt x="730" y="1455" on="0"/>
        <pt x="782" y="1451" on="0"/>
        <pt x="803" y="1448" on="1"/>
        <pt x="1271" y="113" on="1"/>
        <pt x="1376" y="90" on="1"/>
        <pt x="1366" y="0" on="1"/>
        <pt x="898" y="0" on="1"/>
        <pt x="889" y="90" on="1"/>
        <pt x="909" y="95" on="0"/>
        <pt x="959" y="105" on="0"/>
        <pt x="1012" y="113" on="0"/>
        <pt x="1062" y="119" on="0"/>
        <pt x="1082" y="122" on="1"/>
        <pt x="954" y="496" on="1"/>
        <pt x="413" y="496" on="1"/>
        <pt x="288" y="122" on="1"/>
        <pt x="293" y="122" on="1"/>
        <pt x="496" y="90" on="1"/>
        <pt x="487" y="0" on="1"/>
        <pt x="47" y="0" on="1"/>
      </contour>
      <contour>
        <pt x="917" y="612" on="1"/>
        <pt x="697" y="1247" on="1"/>
        <pt x="679" y="1310" on="1"/>
        <pt x="654" y="1202" on="1"/>
        <pt x="454" y="612" on="1"/>
      </contour>
    </TTGlyph>
    <TTGlyph name="Atilde" xMin="36" yMin="0" xMax="1376" yMax="1833">
      <contour>
        <pt x="316" y="1638" on="1"/>
        <pt x="331" y="1670" on="0"/>
        <pt x="392" y="1738" on="0"/>
        <pt x="469" y="1793" on="0"/>
        <pt x="550" y="1827" on="0"/>
        <pt x="584" y="1825" on="1"/>
        <pt x="621" y="1823" on="0"/>
        <pt x="687" y="1788" on="0"/>
        <pt x="745" y="1747" on="0"/>
        <pt x="795" y="1713" on="0"/>
        <pt x="818" y="1713" on="1"/>
        <pt x="840" y="1713" on="0"/>
        <pt x="887" y="1731" on="0"/>
        <pt x="934" y="1764" on="0"/>
        <pt x="979" y="1808" on="0"/>
        <pt x="999" y="1833" on="1"/>
        <pt x="1058" y="1789" on="1"/>
        <pt x="1036" y="1729" on="0"/>
        <pt x="969" y="1644" on="0"/>
        <pt x="894" y="1590" on="0"/>
        <pt x="819" y="1565" on="0"/>
        <pt x="789" y="1565" on="1"/>
        <pt x="756" y="1565" on="0"/>
        <pt x="693" y="1601" on="0"/>
        <pt x="634" y="1644" on="0"/>
        <pt x="578" y="1680" on="0"/>
        <pt x="551" y="1681" on="1"/>
        <pt x="535" y="1682" on="0"/>
        <pt x="488" y="1667" on="0"/>
        <pt x="436" y="1641" on="0"/>
        <pt x="384" y="1605" on="0"/>
        <pt x="362" y="1585" on="1"/>
      </contour>
      <contour>
        <pt x="36" y="90" on="1"/>
        <pt x="43" y="93" on="0"/>
        <pt x="68" y="101" on="0"/>
        <pt x="97" y="108" on="0"/>
        <pt x="127" y="115" on="0"/>
        <pt x="139" y="118" on="1"/>
        <pt x="593" y="1448" on="1"/>
        <pt x="618" y="1452" on="0"/>
        <pt x="675" y="1455" on="0"/>
        <pt x="730" y="1455" on="0"/>
        <pt x="782" y="1451" on="0"/>
        <pt x="803" y="1448" on="1"/>
        <pt x="1271" y="113" on="1"/>
        <pt x="1376" y="90" on="1"/>
        <pt x="1366" y="0" on="1"/>
        <pt x="898" y="0" on="1"/>
        <pt x="889" y="90" on="1"/>
        <pt x="909" y="95" on="0"/>
        <pt x="959" y="105" on="0"/>
        <pt x="1012" y="113" on="0"/>
        <pt x="1062" y="119" on="0"/>
        <pt x="1082" y="122" on="1"/>
        <pt x="954" y="496" on="1"/>
        <pt x="413" y="496" on="1"/>
        <pt x="288" y="122" on="1"/>
        <pt x="293" y="122" on="1"/>
        <pt x="496" y="90" on="1"/>
        <pt x="487" y="0" on="1"/>
        <pt x="47" y="0" on="1"/>
      </contour>
      <contour>
        <pt x="917" y="612" on="1"/>
        <pt x="697" y="1247" on="1"/>
        <pt x="679" y="1310" on="1"/>
        <pt x="654" y="1202" on="1"/>
        <pt x="454" y="612" on="1"/>
      </contour>
    </TTGlyph>
    <TTGlyph name="B" xMin="102" yMin="0" xMax="1234" yMax="1448">
      <contour>
        <pt x="102" y="95" on="1"/>
        <pt x="140" y="109" on="0"/>
        <pt x="228" y="122" on="0"/>
        <pt x="269" y="128" on="1"/>
        <pt x="269" y="1331" on="1"/>
        <pt x="108" y="1359" on="1"/>
        <pt x="106" y="1364" on="0"/>
        <pt x="106" y="1387" on="0"/>
        <pt x="106" y="1394" on="1"/>
        <pt x="106" y="1409" on="0"/>
        <pt x="114" y="1441" on="0"/>
        <pt x="118" y="1448" on="1"/>
        <pt x="690" y="1448" on="1"/>
        <pt x="811" y="1448" on="0"/>
        <pt x="982" y="1406" on="0"/>
        <pt x="1088" y="1321" on="0"/>
        <pt x="1137" y="1193" on="0"/>
        <pt x="1137" y="1106" on="1"/>
        <pt x="1137" y="1051" on="0"/>
        <pt x="1109" y="950" on="0"/>
        <pt x="1055" y="864" on="0"/>
        <pt x="979" y="798" on="0"/>
        <pt x="931" y="778" on="1"/>
        <pt x="1079" y="756" on="0"/>
        <pt x="1234" y="580" on="0"/>
        <pt x="1234" y="424" on="1"/>
        <pt x="1234" y="313" on="0"/>
        <pt x="1168" y="153" on="0"/>
        <pt x="1031" y="49" on="0"/>
        <pt x="819" y="0" on="0"/>
        <pt x="674" y="0" on="1"/>
        <pt x="111" y="0" on="1"/>
      </contour>
      <contour>
        <pt x="622" y="808" on="1"/>
        <pt x="659" y="808" on="1"/>
        <pt x="746" y="811" on="0"/>
        <pt x="860" y="861" on="0"/>
        <pt x="927" y="940" on="0"/>
        <pt x="954" y="1041" on="0"/>
        <pt x="954" y="1096" on="1"/>
        <pt x="954" y="1157" on="0"/>
        <pt x="923" y="1247" on="0"/>
        <pt x="842" y="1305" on="0"/>
        <pt x="703" y="1333" on="0"/>
        <pt x="595" y="1333" on="1"/>
        <pt x="449" y="1331" on="1"/>
        <pt x="449" y="803" on="1"/>
      </contour>
      <contour>
        <pt x="496" y="118" on="1"/>
        <pt x="548" y="115" on="0"/>
        <pt x="615" y="113" on="0"/>
        <pt x="659" y="111" on="0"/>
        <pt x="687" y="111" on="0"/>
        <pt x="699" y="111" on="1"/>
        <pt x="796" y="112" on="0"/>
        <pt x="928" y="145" on="0"/>
        <pt x="1009" y="216" on="0"/>
        <pt x="1044" y="328" on="0"/>
        <pt x="1044" y="409" on="1"/>
        <pt x="1044" y="424" on="1"/>
        <pt x="1044" y="509" on="0"/>
        <pt x="988" y="617" on="0"/>
        <pt x="879" y="679" on="0"/>
        <pt x="720" y="702" on="0"/>
        <pt x="617" y="702" on="1"/>
        <pt x="449" y="697" on="1"/>
        <pt x="449" y="122" on="1"/>
      </contour>
    </TTGlyph>
    <TTGlyph name="C" xMin="137" yMin="-29" xMax="1234" yMax="1477">
      <contour>
        <pt x="137" y="709" on="1"/>
        <pt x="137" y="902" on="0"/>
        <pt x="229" y="1190" on="0"/>
        <pt x="401" y="1382" on="0"/>
        <pt x="647" y="1477" on="0"/>
        <pt x="801" y="1477" on="1"/>
        <pt x="881" y="1477" on="0"/>
        <pt x="1015" y="1463" on="0"/>
        <pt x="1123" y="1441" on="0"/>
        <pt x="1204" y="1415" on="0"/>
        <pt x="1231" y="1404" on="1"/>
        <pt x="1234" y="1392" on="1"/>
        <pt x="1235" y="1354" on="0"/>
        <pt x="1226" y="1260" on="0"/>
        <pt x="1213" y="1168" on="0"/>
        <pt x="1199" y="1091" on="0"/>
        <pt x="1193" y="1069" on="1"/>
        <pt x="1170" y="1064" on="0"/>
        <pt x="1109" y="1065" on="0"/>
        <pt x="1080" y="1069" on="1"/>
        <pt x="1062" y="1288" on="1"/>
        <pt x="1026" y="1307" on="0"/>
        <pt x="946" y="1332" on="0"/>
        <pt x="864" y="1346" on="0"/>
        <pt x="787" y="1351" on="0"/>
        <pt x="754" y="1351" on="1"/>
        <pt x="638" y="1351" on="0"/>
        <pt x="475" y="1261" on="0"/>
        <pt x="373" y="1098" on="0"/>
        <pt x="327" y="870" on="0"/>
        <pt x="327" y="733" on="1"/>
        <pt x="327" y="574" on="0"/>
        <pt x="375" y="338" on="0"/>
        <pt x="486" y="181" on="0"/>
        <pt x="670" y="104" on="0"/>
        <pt x="805" y="104" on="1"/>
        <pt x="843" y="104" on="0"/>
        <pt x="921" y="110" on="0"/>
        <pt x="990" y="122" on="0"/>
        <pt x="1048" y="138" on="0"/>
        <pt x="1066" y="147" on="1"/>
        <pt x="1123" y="372" on="1"/>
        <pt x="1165" y="377" on="0"/>
        <pt x="1213" y="374" on="0"/>
        <pt x="1229" y="368" on="1"/>
        <pt x="1230" y="347" on="0"/>
        <pt x="1232" y="287" on="0"/>
        <pt x="1233" y="214" on="0"/>
        <pt x="1233" y="132" on="0"/>
        <pt x="1231" y="90" on="1"/>
        <pt x="1213" y="71" on="0"/>
        <pt x="1129" y="29" on="0"/>
        <pt x="1009" y="-6" on="0"/>
        <pt x="860" y="-29" on="0"/>
        <pt x="778" y="-29" on="1"/>
        <pt x="685" y="-29" on="0"/>
        <pt x="517" y="-7" on="0"/>
        <pt x="374" y="52" on="0"/>
        <pt x="260" y="157" on="0"/>
        <pt x="180" y="321" on="0"/>
        <pt x="137" y="552" on="0"/>
      </contour>
    </TTGlyph>
    <TTGlyph name="Cacute" xMin="97" yMin="-29" xMax="1218" yMax="1881">
      <contour>
        <pt x="623" y="1538" on="1"/>
        <pt x="613" y="1547" on="0"/>
        <pt x="587" y="1588" on="0"/>
        <pt x="576" y="1614" on="1"/>
        <pt x="937" y="1881" on="1"/>
        <pt x="1052" y="1796" on="1"/>
        <pt x="1050" y="1746" on="1"/>
      </contour>
      <contour>
        <pt x="97" y="709" on="1"/>
        <pt x="97" y="902" on="0"/>
        <pt x="189" y="1190" on="0"/>
        <pt x="361" y="1382" on="0"/>
        <pt x="606" y="1477" on="0"/>
        <pt x="760" y="1477" on="1"/>
        <pt x="840" y="1477" on="0"/>
        <pt x="974" y="1463" on="0"/>
        <pt x="1082" y="1441" on="0"/>
        <pt x="1164" y="1415" on="0"/>
        <pt x="1191" y="1404" on="1"/>
        <pt x="1195" y="1361" on="0"/>
        <pt x="1194" y="1275" on="0"/>
        <pt x="1187" y="1193" on="0"/>
        <pt x="1176" y="1119" on="0"/>
        <pt x="1170" y="1089" on="1"/>
        <pt x="1149" y="1089" on="0"/>
        <pt x="1114" y="1089" on="0"/>
        <pt x="1081" y="1091" on="0"/>
        <pt x="1047" y="1093" on="0"/>
        <pt x="1026" y="1096" on="1"/>
        <pt x="1017" y="1292" on="1"/>
        <pt x="993" y="1307" on="0"/>
        <pt x="916" y="1330" on="0"/>
        <pt x="831" y="1344" on="0"/>
        <pt x="746" y="1351" on="0"/>
        <pt x="713" y="1351" on="1"/>
        <pt x="597" y="1351" on="0"/>
        <pt x="435" y="1261" on="0"/>
        <pt x="333" y="1098" on="0"/>
        <pt x="286" y="870" on="0"/>
        <pt x="286" y="733" on="1"/>
        <pt x="286" y="574" on="0"/>
        <pt x="334" y="338" on="0"/>
        <pt x="446" y="181" on="0"/>
        <pt x="630" y="104" on="0"/>
        <pt x="766" y="104" on="1"/>
        <pt x="804" y="104" on="0"/>
        <pt x="884" y="110" on="0"/>
        <pt x="957" y="122" on="0"/>
        <pt x="1017" y="139" on="0"/>
        <pt x="1035" y="149" on="1"/>
        <pt x="1062" y="392" on="1"/>
        <pt x="1083" y="395" on="0"/>
        <pt x="1117" y="397" on="0"/>
        <pt x="1149" y="398" on="0"/>
        <pt x="1182" y="396" on="0"/>
        <pt x="1202" y="395" on="1"/>
        <pt x="1213" y="340" on="0"/>
        <pt x="1222" y="196" on="0"/>
        <pt x="1217" y="108" on="1"/>
        <pt x="1192" y="85" on="0"/>
        <pt x="1096" y="37" on="0"/>
        <pt x="968" y="-3" on="0"/>
        <pt x="817" y="-29" on="0"/>
        <pt x="737" y="-29" on="1"/>
        <pt x="644" y="-29" on="0"/>
        <pt x="476" y="-9" on="0"/>
        <pt x="334" y="48" on="0"/>
        <pt x="220" y="150" on="0"/>
        <pt x="140" y="314" on="0"/>
        <pt x="97" y="548" on="0"/>
      </contour>
    </TTGlyph>
    <TTGlyph name="Ccedilla" xMin="137" yMin="-544" xMax="1234" yMax="1477">
      <contour>
        <pt x="699" y="-147" on="1"/>
        <pt x="699" y="-146" on="1"/>
        <pt x="736" y="-28" on="1"/>
        <pt x="648" y="-26" on="0"/>
        <pt x="491" y="1" on="0"/>
        <pt x="358" y="64" on="0"/>
        <pt x="251" y="170" on="0"/>
        <pt x="177" y="332" on="0"/>
        <pt x="137" y="558" on="0"/>
        <pt x="137" y="709" on="1"/>
        <pt x="137" y="902" on="0"/>
        <pt x="229" y="1190" on="0"/>
        <pt x="401" y="1382" on="0"/>
        <pt x="647" y="1477" on="0"/>
        <pt x="801" y="1477" on="1"/>
        <pt x="881" y="1477" on="0"/>
        <pt x="1015" y="1463" on="0"/>
        <pt x="1123" y="1441" on="0"/>
        <pt x="1204" y="1415" on="0"/>
        <pt x="1231" y="1404" on="1"/>
        <pt x="1234" y="1392" on="1"/>
        <pt x="1235" y="1354" on="0"/>
        <pt x="1226" y="1260" on="0"/>
        <pt x="1213" y="1168" on="0"/>
        <pt x="1199" y="1091" on="0"/>
        <pt x="1193" y="1069" on="1"/>
        <pt x="1170" y="1064" on="0"/>
        <pt x="1109" y="1065" on="0"/>
        <pt x="1080" y="1069" on="1"/>
        <pt x="1062" y="1288" on="1"/>
        <pt x="1026" y="1307" on="0"/>
        <pt x="946" y="1332" on="0"/>
        <pt x="864" y="1346" on="0"/>
        <pt x="787" y="1351" on="0"/>
        <pt x="754" y="1351" on="1"/>
        <pt x="638" y="1351" on="0"/>
        <pt x="475" y="1261" on="0"/>
        <pt x="373" y="1098" on="0"/>
        <pt x="327" y="870" on="0"/>
        <pt x="327" y="733" on="1"/>
        <pt x="327" y="574" on="0"/>
        <pt x="375" y="338" on="0"/>
        <pt x="486" y="181" on="0"/>
        <pt x="670" y="104" on="0"/>
        <pt x="805" y="104" on="1"/>
        <pt x="843" y="104" on="0"/>
        <pt x="921" y="110" on="0"/>
        <pt x="990" y="122" on="0"/>
        <pt x="1048" y="138" on="0"/>
        <pt x="1066" y="147" on="1"/>
        <pt x="1123" y="372" on="1"/>
        <pt x="1165" y="377" on="0"/>
        <pt x="1213" y="374" on="0"/>
        <pt x="1229" y="368" on="1"/>
        <pt x="1230" y="347" on="0"/>
        <pt x="1232" y="287" on="0"/>
        <pt x="1233" y="214" on="0"/>
        <pt x="1233" y="132" on="0"/>
        <pt x="1231" y="90" on="1"/>
        <pt x="1214" y="73" on="0"/>
        <pt x="1140" y="34" on="0"/>
        <pt x="1033" y="1" on="0"/>
        <pt x="901" y="-24" on="0"/>
        <pt x="827" y="-28" on="1"/>
        <pt x="790" y="-118" on="1"/>
        <pt x="806" y="-116" on="0"/>
        <pt x="839" y="-113" on="0"/>
        <pt x="857" y="-113" on="1"/>
        <pt x="884" y="-113" on="0"/>
        <pt x="937" y="-129" on="0"/>
        <pt x="978" y="-162" on="0"/>
        <pt x="1004" y="-214" on="0"/>
        <pt x="1004" y="-250" on="1"/>
        <pt x="1004" y="-291" on="0"/>
        <pt x="973" y="-362" on="0"/>
        <pt x="920" y="-424" on="0"/>
        <pt x="849" y="-477" on="0"/>
        <pt x="808" y="-499" on="1"/>
        <pt x="726" y="-544" on="1"/>
        <pt x="681" y="-508" on="1"/>
        <pt x="712" y="-481" on="0"/>
        <pt x="775" y="-430" on="0"/>
        <pt x="826" y="-378" on="0"/>
        <pt x="857" y="-324" on="0"/>
        <pt x="857" y="-295" on="1"/>
        <pt x="857" y="-274" on="0"/>
        <pt x="828" y="-241" on="0"/>
        <pt x="789" y="-241" on="1"/>
        <pt x="766" y="-241" on="0"/>
        <pt x="718" y="-250" on="0"/>
        <pt x="702" y="-255" on="1"/>
        <pt x="681" y="-205" on="1"/>
      </contour>
    </TTGlyph>
    <TTGlyph name="Cdotaccent" xMin="97" yMin="-29" xMax="1194" yMax="1808">
      <contour>
        <pt x="726" y="1588" on="1"/>
        <pt x="694" y="1588" on="0"/>
        <pt x="652" y="1605" on="0"/>
        <pt x="627" y="1634" on="0"/>
        <pt x="617" y="1673" on="0"/>
        <pt x="617" y="1696" on="1"/>
        <pt x="617" y="1720" on="0"/>
        <pt x="627" y="1761" on="0"/>
        <pt x="652" y="1791" on="0"/>
        <pt x="694" y="1808" on="0"/>
        <pt x="726" y="1808" on="1"/>
        <pt x="757" y="1808" on="0"/>
        <pt x="800" y="1791" on="0"/>
        <pt x="826" y="1761" on="0"/>
        <pt x="837" y="1720" on="0"/>
        <pt x="837" y="1696" on="1"/>
        <pt x="837" y="1673" on="0"/>
        <pt x="826" y="1634" on="0"/>
        <pt x="800" y="1605" on="0"/>
        <pt x="757" y="1588" on="0"/>
      </contour>
      <contour>
        <pt x="97" y="709" on="1"/>
        <pt x="97" y="902" on="0"/>
        <pt x="189" y="1190" on="0"/>
        <pt x="361" y="1382" on="0"/>
        <pt x="607" y="1477" on="0"/>
        <pt x="761" y="1477" on="1"/>
        <pt x="841" y="1477" on="0"/>
        <pt x="975" y="1463" on="0"/>
        <pt x="1083" y="1441" on="0"/>
        <pt x="1164" y="1415" on="0"/>
        <pt x="1191" y="1404" on="1"/>
        <pt x="1194" y="1392" on="1"/>
        <pt x="1195" y="1354" on="0"/>
        <pt x="1186" y="1260" on="0"/>
        <pt x="1173" y="1168" on="0"/>
        <pt x="1159" y="1091" on="0"/>
        <pt x="1153" y="1069" on="1"/>
        <pt x="1130" y="1064" on="0"/>
        <pt x="1069" y="1065" on="0"/>
        <pt x="1040" y="1069" on="1"/>
        <pt x="1022" y="1288" on="1"/>
        <pt x="986" y="1307" on="0"/>
        <pt x="906" y="1332" on="0"/>
        <pt x="824" y="1346" on="0"/>
        <pt x="747" y="1351" on="0"/>
        <pt x="714" y="1351" on="1"/>
        <pt x="598" y="1351" on="0"/>
        <pt x="435" y="1261" on="0"/>
        <pt x="333" y="1098" on="0"/>
        <pt x="287" y="870" on="0"/>
        <pt x="287" y="733" on="1"/>
        <pt x="287" y="574" on="0"/>
        <pt x="335" y="338" on="0"/>
        <pt x="446" y="181" on="0"/>
        <pt x="630" y="104" on="0"/>
        <pt x="765" y="104" on="1"/>
        <pt x="803" y="104" on="0"/>
        <pt x="881" y="110" on="0"/>
        <pt x="950" y="122" on="0"/>
        <pt x="1008" y="138" on="0"/>
        <pt x="1026" y="147" on="1"/>
        <pt x="1083" y="372" on="1"/>
        <pt x="1125" y="377" on="0"/>
        <pt x="1173" y="374" on="0"/>
        <pt x="1189" y="368" on="1"/>
        <pt x="1190" y="347" on="0"/>
        <pt x="1192" y="287" on="0"/>
        <pt x="1193" y="214" on="0"/>
        <pt x="1193" y="132" on="0"/>
        <pt x="1191" y="90" on="1"/>
        <pt x="1173" y="71" on="0"/>
        <pt x="1089" y="29" on="0"/>
        <pt x="969" y="-6" on="0"/>
        <pt x="820" y="-29" on="0"/>
        <pt x="738" y="-29" on="1"/>
        <pt x="645" y="-29" on="0"/>
        <pt x="477" y="-7" on="0"/>
        <pt x="334" y="52" on="0"/>
        <pt x="220" y="157" on="0"/>
        <pt x="140" y="321" on="0"/>
        <pt x="97" y="552" on="0"/>
      </contour>
    </TTGlyph>
    <TTGlyph name="D" xMin="102" yMin="0" xMax="1340" yMax="1448">
      <contour>
        <pt x="102" y="95" on="1"/>
        <pt x="143" y="103" on="0"/>
        <pt x="230" y="117" on="0"/>
        <pt x="272" y="122" on="1"/>
        <pt x="272" y="1331" on="1"/>
        <pt x="230" y="1336" on="0"/>
        <pt x="152" y="1347" on="0"/>
        <pt x="111" y="1357" on="1"/>
        <pt x="106" y="1403" on="0"/>
        <pt x="120" y="1448" on="1"/>
        <pt x="692" y="1448" on="1"/>
        <pt x="782" y="1448" on="0"/>
        <pt x="949" y="1423" on="0"/>
        <pt x="1093" y="1364" on="0"/>
        <pt x="1211" y="1266" on="0"/>
        <pt x="1294" y="1122" on="0"/>
        <pt x="1340" y="927" on="0"/>
        <pt x="1340" y="799" on="1"/>
        <pt x="1340" y="717" on="1"/>
        <pt x="1340" y="521" on="0"/>
        <pt x="1249" y="248" on="0"/>
        <pt x="1073" y="77" on="0"/>
        <pt x="817" y="0" on="0"/>
        <pt x="652" y="0" on="1"/>
        <pt x="108" y="0" on="1"/>
      </contour>
      <contour>
        <pt x="667" y="115" on="1"/>
        <pt x="717" y="115" on="1"/>
        <pt x="833" y="115" on="0"/>
        <pt x="997" y="198" on="0"/>
        <pt x="1100" y="352" on="0"/>
        <pt x="1148" y="572" on="0"/>
        <pt x="1148" y="709" on="1"/>
        <pt x="1148" y="785" on="1"/>
        <pt x="1148" y="940" on="0"/>
        <pt x="1085" y="1146" on="0"/>
        <pt x="953" y="1272" on="0"/>
        <pt x="746" y="1328" on="0"/>
        <pt x="602" y="1333" on="1"/>
        <pt x="451" y="1331" on="1"/>
        <pt x="451" y="122" on="1"/>
      </contour>
    </TTGlyph>
    <TTGlyph name="E" xMin="102" yMin="0" xMax="1198" yMax="1448">
      <contour>
        <pt x="102" y="90" on="1"/>
        <pt x="140" y="104" on="0"/>
        <pt x="228" y="115" on="0"/>
        <pt x="269" y="120" on="1"/>
        <pt x="269" y="1328" on="1"/>
        <pt x="108" y="1359" on="1"/>
        <pt x="106" y="1364" on="0"/>
        <pt x="106" y="1387" on="0"/>
        <pt x="106" y="1394" on="1"/>
        <pt x="106" y="1409" on="0"/>
        <pt x="114" y="1441" on="0"/>
        <pt x="118" y="1448" on="1"/>
        <pt x="1127" y="1448" on="1"/>
        <pt x="1141" y="1432" on="1"/>
        <pt x="1142" y="1394" on="0"/>
        <pt x="1134" y="1295" on="0"/>
        <pt x="1121" y="1197" on="0"/>
        <pt x="1107" y="1114" on="0"/>
        <pt x="1101" y="1092" on="1"/>
        <pt x="1078" y="1087" on="0"/>
        <pt x="1021" y="1088" on="0"/>
        <pt x="992" y="1092" on="1"/>
        <pt x="974" y="1331" on="1"/>
        <pt x="449" y="1331" on="1"/>
        <pt x="449" y="808" on="1"/>
        <pt x="947" y="814" on="1"/>
        <pt x="952" y="785" on="0"/>
        <pt x="946" y="711" on="0"/>
        <pt x="941" y="679" on="1"/>
        <pt x="449" y="690" on="1"/>
        <pt x="449" y="120" on="1"/>
        <pt x="1021" y="120" on="1"/>
        <pt x="1087" y="343" on="1"/>
        <pt x="1116" y="345" on="0"/>
        <pt x="1175" y="341" on="0"/>
        <pt x="1198" y="334" on="1"/>
        <pt x="1197" y="299" on="0"/>
        <pt x="1192" y="213" on="0"/>
        <pt x="1184" y="126" on="0"/>
        <pt x="1176" y="46" on="0"/>
        <pt x="1172" y="16" on="1"/>
        <pt x="1151" y="0" on="1"/>
        <pt x="111" y="0" on="1"/>
      </contour>
    </TTGlyph>
    <TTGlyph name="Eacute" xMin="102" yMin="0" xMax="1198" yMax="1881">
      <contour>
        <pt x="511" y="1538" on="1"/>
        <pt x="501" y="1547" on="0"/>
        <pt x="475" y="1588" on="0"/>
        <pt x="464" y="1614" on="1"/>
        <pt x="825" y="1881" on="1"/>
        <pt x="940" y="1796" on="1"/>
        <pt x="938" y="1746" on="1"/>
      </contour>
      <contour>
        <pt x="102" y="90" on="1"/>
        <pt x="140" y="104" on="0"/>
        <pt x="228" y="115" on="0"/>
        <pt x="269" y="120" on="1"/>
        <pt x="269" y="1328" on="1"/>
        <pt x="108" y="1359" on="1"/>
        <pt x="106" y="1364" on="0"/>
        <pt x="106" y="1387" on="0"/>
        <pt x="106" y="1394" on="1"/>
        <pt x="106" y="1409" on="0"/>
        <pt x="114" y="1441" on="0"/>
        <pt x="118" y="1448" on="1"/>
        <pt x="1127" y="1448" on="1"/>
        <pt x="1141" y="1432" on="1"/>
        <pt x="1142" y="1394" on="0"/>
        <pt x="1134" y="1295" on="0"/>
        <pt x="1121" y="1197" on="0"/>
        <pt x="1107" y="1114" on="0"/>
        <pt x="1101" y="1092" on="1"/>
        <pt x="1078" y="1087" on="0"/>
        <pt x="1021" y="1088" on="0"/>
        <pt x="992" y="1092" on="1"/>
        <pt x="974" y="1331" on="1"/>
        <pt x="449" y="1331" on="1"/>
        <pt x="449" y="808" on="1"/>
        <pt x="947" y="814" on="1"/>
        <pt x="952" y="785" on="0"/>
        <pt x="946" y="711" on="0"/>
        <pt x="941" y="679" on="1"/>
        <pt x="449" y="690" on="1"/>
        <pt x="449" y="120" on="1"/>
        <pt x="1021" y="120" on="1"/>
        <pt x="1087" y="343" on="1"/>
        <pt x="1116" y="345" on="0"/>
        <pt x="1175" y="341" on="0"/>
        <pt x="1198" y="334" on="1"/>
        <pt x="1197" y="299" on="0"/>
        <pt x="1192" y="213" on="0"/>
        <pt x="1184" y="126" on="0"/>
        <pt x="1176" y="46" on="0"/>
        <pt x="1172" y="16" on="1"/>
        <pt x="1151" y="0" on="1"/>
        <pt x="111" y="0" on="1"/>
      </contour>
    </TTGlyph>
    <TTGlyph name="Ecircumflex" xMin="102" yMin="0" xMax="1198" yMax="1863">
      <contour>
        <pt x="447" y="1531" on="1"/>
        <pt x="440" y="1535" on="0"/>
        <pt x="422" y="1549" on="0"/>
        <pt x="405" y="1567" on="0"/>
        <pt x="391" y="1588" on="0"/>
        <pt x="388" y="1597" on="1"/>
        <pt x="634" y="1863" on="1"/>
        <pt x="735" y="1863" on="1"/>
        <pt x="981" y="1603" on="1"/>
        <pt x="970" y="1580" on="0"/>
        <pt x="929" y="1539" on="0"/>
        <pt x="913" y="1531" on="1"/>
        <pt x="679" y="1714" on="1"/>
      </contour>
      <contour>
        <pt x="102" y="90" on="1"/>
        <pt x="140" y="104" on="0"/>
        <pt x="228" y="115" on="0"/>
        <pt x="269" y="120" on="1"/>
        <pt x="269" y="1328" on="1"/>
        <pt x="108" y="1359" on="1"/>
        <pt x="106" y="1364" on="0"/>
        <pt x="106" y="1387" on="0"/>
        <pt x="106" y="1394" on="1"/>
        <pt x="106" y="1409" on="0"/>
        <pt x="114" y="1441" on="0"/>
        <pt x="118" y="1448" on="1"/>
        <pt x="1127" y="1448" on="1"/>
        <pt x="1141" y="1432" on="1"/>
        <pt x="1142" y="1394" on="0"/>
        <pt x="1134" y="1295" on="0"/>
        <pt x="1121" y="1197" on="0"/>
        <pt x="1107" y="1114" on="0"/>
        <pt x="1101" y="1092" on="1"/>
        <pt x="1078" y="1087" on="0"/>
        <pt x="1021" y="1088" on="0"/>
        <pt x="992" y="1092" on="1"/>
        <pt x="974" y="1331" on="1"/>
        <pt x="449" y="1331" on="1"/>
        <pt x="449" y="808" on="1"/>
        <pt x="947" y="814" on="1"/>
        <pt x="952" y="785" on="0"/>
        <pt x="946" y="711" on="0"/>
        <pt x="941" y="679" on="1"/>
        <pt x="449" y="690" on="1"/>
        <pt x="449" y="120" on="1"/>
        <pt x="1021" y="120" on="1"/>
        <pt x="1087" y="343" on="1"/>
        <pt x="1116" y="345" on="0"/>
        <pt x="1175" y="341" on="0"/>
        <pt x="1198" y="334" on="1"/>
        <pt x="1197" y="299" on="0"/>
        <pt x="1192" y="213" on="0"/>
        <pt x="1184" y="126" on="0"/>
        <pt x="1176" y="46" on="0"/>
        <pt x="1172" y="16" on="1"/>
        <pt x="1151" y="0" on="1"/>
        <pt x="111" y="0" on="1"/>
      </contour>
    </TTGlyph>
    <TTGlyph name="Edieresis" xMin="102" yMin="0" xMax="1198" yMax="1801">
      <contour>
        <pt x="877" y="1590" on="1"/>
        <pt x="844" y="1590" on="0"/>
        <pt x="802" y="1607" on="0"/>
        <pt x="778" y="1635" on="0"/>
        <pt x="768" y="1673" on="0"/>
        <pt x="768" y="1694" on="1"/>
        <pt x="768" y="1716" on="0"/>
        <pt x="778" y="1755" on="0"/>
        <pt x="802" y="1784" on="0"/>
        <pt x="844" y="1801" on="0"/>
        <pt x="877" y="1801" on="1"/>
        <pt x="939" y="1801" on="0"/>
        <pt x="984" y="1744" on="0"/>
        <pt x="984" y="1694" on="1"/>
        <pt x="984" y="1673" on="0"/>
        <pt x="974" y="1635" on="0"/>
        <pt x="949" y="1607" on="0"/>
        <pt x="908" y="1590" on="0"/>
      </contour>
      <contour>
        <pt x="453" y="1590" on="1"/>
        <pt x="423" y="1590" on="0"/>
        <pt x="383" y="1607" on="0"/>
        <pt x="359" y="1635" on="0"/>
        <pt x="349" y="1673" on="0"/>
        <pt x="349" y="1694" on="1"/>
        <pt x="349" y="1716" on="0"/>
        <pt x="359" y="1755" on="0"/>
        <pt x="383" y="1784" on="0"/>
        <pt x="423" y="1801" on="0"/>
        <pt x="453" y="1801" on="1"/>
        <pt x="515" y="1801" on="0"/>
        <pt x="565" y="1744" on="0"/>
        <pt x="565" y="1694" on="1"/>
        <pt x="565" y="1673" on="0"/>
        <pt x="553" y="1635" on="0"/>
        <pt x="527" y="1607" on="0"/>
        <pt x="484" y="1590" on="0"/>
      </contour>
      <contour>
        <pt x="102" y="90" on="1"/>
        <pt x="140" y="104" on="0"/>
        <pt x="228" y="115" on="0"/>
        <pt x="269" y="120" on="1"/>
        <pt x="269" y="1328" on="1"/>
        <pt x="108" y="1359" on="1"/>
        <pt x="106" y="1364" on="0"/>
        <pt x="106" y="1387" on="0"/>
        <pt x="106" y="1394" on="1"/>
        <pt x="106" y="1409" on="0"/>
        <pt x="114" y="1441" on="0"/>
        <pt x="118" y="1448" on="1"/>
        <pt x="1127" y="1448" on="1"/>
        <pt x="1141" y="1432" on="1"/>
        <pt x="1142" y="1394" on="0"/>
        <pt x="1134" y="1295" on="0"/>
        <pt x="1121" y="1197" on="0"/>
        <pt x="1107" y="1114" on="0"/>
        <pt x="1101" y="1092" on="1"/>
        <pt x="1078" y="1087" on="0"/>
        <pt x="1021" y="1088" on="0"/>
        <pt x="992" y="1092" on="1"/>
        <pt x="974" y="1331" on="1"/>
        <pt x="449" y="1331" on="1"/>
        <pt x="449" y="808" on="1"/>
        <pt x="947" y="814" on="1"/>
        <pt x="952" y="785" on="0"/>
        <pt x="946" y="711" on="0"/>
        <pt x="941" y="679" on="1"/>
        <pt x="449" y="690" on="1"/>
        <pt x="449" y="120" on="1"/>
        <pt x="1021" y="120" on="1"/>
        <pt x="1087" y="343" on="1"/>
        <pt x="1116" y="345" on="0"/>
        <pt x="1175" y="341" on="0"/>
        <pt x="1198" y="334" on="1"/>
        <pt x="1197" y="299" on="0"/>
        <pt x="1192" y="213" on="0"/>
        <pt x="1184" y="126" on="0"/>
        <pt x="1176" y="46" on="0"/>
        <pt x="1172" y="16" on="1"/>
        <pt x="1151" y="0" on="1"/>
        <pt x="111" y="0" on="1"/>
      </contour>
    </TTGlyph>
    <TTGlyph name="Edotaccent" xMin="90" yMin="0" xMax="1186" yMax="1808">
      <contour>
        <pt x="669" y="1588" on="1"/>
        <pt x="637" y="1588" on="0"/>
        <pt x="595" y="1605" on="0"/>
        <pt x="570" y="1634" on="0"/>
        <pt x="560" y="1673" on="0"/>
        <pt x="560" y="1696" on="1"/>
        <pt x="560" y="1720" on="0"/>
        <pt x="570" y="1761" on="0"/>
        <pt x="595" y="1791" on="0"/>
        <pt x="637" y="1808" on="0"/>
        <pt x="669" y="1808" on="1"/>
        <pt x="701" y="1808" on="0"/>
        <pt x="744" y="1791" on="0"/>
        <pt x="769" y="1761" on="0"/>
        <pt x="780" y="1720" on="0"/>
        <pt x="780" y="1696" on="1"/>
        <pt x="780" y="1673" on="0"/>
        <pt x="769" y="1634" on="0"/>
        <pt x="744" y="1605" on="0"/>
        <pt x="701" y="1588" on="0"/>
      </contour>
      <contour>
        <pt x="90" y="90" on="1"/>
        <pt x="128" y="104" on="0"/>
        <pt x="216" y="115" on="0"/>
        <pt x="257" y="120" on="1"/>
        <pt x="257" y="1328" on="1"/>
        <pt x="96" y="1359" on="1"/>
        <pt x="94" y="1364" on="0"/>
        <pt x="94" y="1387" on="0"/>
        <pt x="94" y="1394" on="1"/>
        <pt x="94" y="1409" on="0"/>
        <pt x="102" y="1441" on="0"/>
        <pt x="106" y="1448" on="1"/>
        <pt x="1115" y="1448" on="1"/>
        <pt x="1129" y="1432" on="1"/>
        <pt x="1130" y="1394" on="0"/>
        <pt x="1122" y="1295" on="0"/>
        <pt x="1109" y="1197" on="0"/>
        <pt x="1095" y="1114" on="0"/>
        <pt x="1089" y="1092" on="1"/>
        <pt x="1066" y="1087" on="0"/>
        <pt x="1009" y="1088" on="0"/>
        <pt x="980" y="1092" on="1"/>
        <pt x="962" y="1331" on="1"/>
        <pt x="437" y="1331" on="1"/>
        <pt x="437" y="808" on="1"/>
        <pt x="935" y="814" on="1"/>
        <pt x="940" y="785" on="0"/>
        <pt x="934" y="711" on="0"/>
        <pt x="929" y="679" on="1"/>
        <pt x="437" y="690" on="1"/>
        <pt x="437" y="120" on="1"/>
        <pt x="1009" y="120" on="1"/>
        <pt x="1075" y="343" on="1"/>
        <pt x="1104" y="345" on="0"/>
        <pt x="1163" y="341" on="0"/>
        <pt x="1186" y="334" on="1"/>
        <pt x="1185" y="299" on="0"/>
        <pt x="1180" y="213" on="0"/>
        <pt x="1172" y="126" on="0"/>
        <pt x="1164" y="46" on="0"/>
        <pt x="1160" y="16" on="1"/>
        <pt x="1139" y="0" on="1"/>
        <pt x="99" y="0" on="1"/>
      </contour>
    </TTGlyph>
    <TTGlyph name="Egrave" xMin="102" yMin="0" xMax="1198" yMax="1881">
      <contour>
        <pt x="329" y="1741" on="1"/>
        <pt x="327" y="1791" on="1"/>
        <pt x="442" y="1881" on="1"/>
        <pt x="799" y="1617" on="1"/>
        <pt x="790" y="1590" on="0"/>
        <pt x="771" y="1556" on="0"/>
        <pt x="758" y="1536" on="1"/>
      </contour>
      <contour>
        <pt x="102" y="90" on="1"/>
        <pt x="140" y="104" on="0"/>
        <pt x="228" y="115" on="0"/>
        <pt x="269" y="120" on="1"/>
        <pt x="269" y="1328" on="1"/>
        <pt x="108" y="1359" on="1"/>
        <pt x="106" y="1364" on="0"/>
        <pt x="106" y="1387" on="0"/>
        <pt x="106" y="1394" on="1"/>
        <pt x="106" y="1409" on="0"/>
        <pt x="114" y="1441" on="0"/>
        <pt x="118" y="1448" on="1"/>
        <pt x="1127" y="1448" on="1"/>
        <pt x="1141" y="1432" on="1"/>
        <pt x="1142" y="1394" on="0"/>
        <pt x="1134" y="1295" on="0"/>
        <pt x="1121" y="1197" on="0"/>
        <pt x="1107" y="1114" on="0"/>
        <pt x="1101" y="1092" on="1"/>
        <pt x="1078" y="1087" on="0"/>
        <pt x="1021" y="1088" on="0"/>
        <pt x="992" y="1092" on="1"/>
        <pt x="974" y="1331" on="1"/>
        <pt x="449" y="1331" on="1"/>
        <pt x="449" y="808" on="1"/>
        <pt x="947" y="814" on="1"/>
        <pt x="952" y="785" on="0"/>
        <pt x="946" y="711" on="0"/>
        <pt x="941" y="679" on="1"/>
        <pt x="449" y="690" on="1"/>
        <pt x="449" y="120" on="1"/>
        <pt x="1021" y="120" on="1"/>
        <pt x="1087" y="343" on="1"/>
        <pt x="1116" y="345" on="0"/>
        <pt x="1175" y="341" on="0"/>
        <pt x="1198" y="334" on="1"/>
        <pt x="1197" y="299" on="0"/>
        <pt x="1192" y="213" on="0"/>
        <pt x="1184" y="126" on="0"/>
        <pt x="1176" y="46" on="0"/>
        <pt x="1172" y="16" on="1"/>
        <pt x="1151" y="0" on="1"/>
        <pt x="111" y="0" on="1"/>
      </contour>
    </TTGlyph>
    <TTGlyph name="Eogonek" xMin="80" yMin="-425" xMax="1176" yMax="1448">
      <contour>
        <pt x="80" y="90" on="1"/>
        <pt x="118" y="104" on="0"/>
        <pt x="206" y="115" on="0"/>
        <pt x="247" y="120" on="1"/>
        <pt x="247" y="1328" on="1"/>
        <pt x="86" y="1359" on="1"/>
        <pt x="84" y="1364" on="0"/>
        <pt x="84" y="1387" on="0"/>
        <pt x="84" y="1394" on="1"/>
        <pt x="84" y="1409" on="0"/>
        <pt x="92" y="1441" on="0"/>
        <pt x="96" y="1448" on="1"/>
        <pt x="1105" y="1448" on="1"/>
        <pt x="1119" y="1432" on="1"/>
        <pt x="1120" y="1394" on="0"/>
        <pt x="1112" y="1295" on="0"/>
        <pt x="1099" y="1197" on="0"/>
        <pt x="1085" y="1114" on="0"/>
        <pt x="1079" y="1092" on="1"/>
        <pt x="1056" y="1087" on="0"/>
        <pt x="999" y="1088" on="0"/>
        <pt x="970" y="1092" on="1"/>
        <pt x="952" y="1331" on="1"/>
        <pt x="427" y="1331" on="1"/>
        <pt x="427" y="808" on="1"/>
        <pt x="925" y="814" on="1"/>
        <pt x="930" y="785" on="0"/>
        <pt x="924" y="711" on="0"/>
        <pt x="919" y="679" on="1"/>
        <pt x="427" y="690" on="1"/>
        <pt x="427" y="120" on="1"/>
        <pt x="999" y="120" on="1"/>
        <pt x="1065" y="343" on="1"/>
        <pt x="1094" y="345" on="0"/>
        <pt x="1153" y="341" on="0"/>
        <pt x="1176" y="334" on="1"/>
        <pt x="1175" y="299" on="0"/>
        <pt x="1170" y="213" on="0"/>
        <pt x="1162" y="126" on="0"/>
        <pt x="1154" y="46" on="0"/>
        <pt x="1150" y="16" on="1"/>
        <pt x="1129" y="0" on="1"/>
        <pt x="1094" y="-26" on="0"/>
        <pt x="1028" y="-85" on="0"/>
        <pt x="976" y="-148" on="0"/>
        <pt x="944" y="-211" on="0"/>
        <pt x="944" y="-242" on="1"/>
        <pt x="944" y="-264" on="0"/>
        <pt x="975" y="-298" on="0"/>
        <pt x="1014" y="-298" on="1"/>
        <pt x="1025" y="-298" on="0"/>
        <pt x="1051" y="-293" on="0"/>
        <pt x="1076" y="-286" on="0"/>
        <pt x="1097" y="-279" on="0"/>
        <pt x="1103" y="-276" on="1"/>
        <pt x="1143" y="-364" on="1"/>
        <pt x="1125" y="-374" on="0"/>
        <pt x="1082" y="-396" on="0"/>
        <pt x="1032" y="-414" on="0"/>
        <pt x="975" y="-425" on="0"/>
        <pt x="944" y="-425" on="1"/>
        <pt x="918" y="-425" on="0"/>
        <pt x="866" y="-409" on="0"/>
        <pt x="824" y="-376" on="0"/>
        <pt x="798" y="-323" on="0"/>
        <pt x="798" y="-287" on="1"/>
        <pt x="798" y="-243" on="0"/>
        <pt x="829" y="-168" on="0"/>
        <pt x="883" y="-102" on="0"/>
        <pt x="954" y="-43" on="0"/>
        <pt x="994" y="-16" on="1"/>
        <pt x="1023" y="0" on="1"/>
        <pt x="89" y="0" on="1"/>
      </contour>
    </TTGlyph>
    <TTGlyph name="Eth" xMin="113" yMin="0" xMax="1358" yMax="1448">
      <contour>
        <pt x="120" y="95" on="1"/>
        <pt x="161" y="103" on="0"/>
        <pt x="248" y="117" on="0"/>
        <pt x="290" y="122" on="1"/>
        <pt x="290" y="685" on="1"/>
        <pt x="113" y="685" on="1"/>
        <pt x="118" y="803" on="1"/>
        <pt x="290" y="803" on="1"/>
        <pt x="290" y="1331" on="1"/>
        <pt x="248" y="1336" on="0"/>
        <pt x="170" y="1347" on="0"/>
        <pt x="129" y="1357" on="1"/>
        <pt x="124" y="1403" on="0"/>
        <pt x="138" y="1448" on="1"/>
        <pt x="710" y="1448" on="1"/>
        <pt x="800" y="1448" on="0"/>
        <pt x="967" y="1423" on="0"/>
        <pt x="1111" y="1364" on="0"/>
        <pt x="1229" y="1266" on="0"/>
        <pt x="1312" y="1122" on="0"/>
        <pt x="1358" y="927" on="0"/>
        <pt x="1358" y="799" on="1"/>
        <pt x="1358" y="717" on="1"/>
        <pt x="1358" y="521" on="0"/>
        <pt x="1267" y="248" on="0"/>
        <pt x="1091" y="77" on="0"/>
        <pt x="835" y="0" on="0"/>
        <pt x="670" y="0" on="1"/>
        <pt x="126" y="0" on="1"/>
      </contour>
      <contour>
        <pt x="685" y="115" on="1"/>
        <pt x="735" y="115" on="1"/>
        <pt x="851" y="115" on="0"/>
        <pt x="1015" y="198" on="0"/>
        <pt x="1118" y="352" on="0"/>
        <pt x="1166" y="572" on="0"/>
        <pt x="1166" y="709" on="1"/>
        <pt x="1166" y="785" on="1"/>
        <pt x="1166" y="940" on="0"/>
        <pt x="1103" y="1146" on="0"/>
        <pt x="971" y="1272" on="0"/>
        <pt x="764" y="1328" on="0"/>
        <pt x="620" y="1333" on="1"/>
        <pt x="469" y="1331" on="1"/>
        <pt x="469" y="803" on="1"/>
        <pt x="799" y="803" on="1"/>
        <pt x="802" y="792" on="0"/>
        <pt x="804" y="760" on="0"/>
        <pt x="803" y="727" on="0"/>
        <pt x="800" y="695" on="0"/>
        <pt x="799" y="685" on="1"/>
        <pt x="469" y="685" on="1"/>
        <pt x="469" y="122" on="1"/>
      </contour>
    </TTGlyph>
    <TTGlyph name="Euro" xMin="47" yMin="-29" xMax="945" yMax="1051">
      <contour>
        <pt x="52" y="442" on="1"/>
        <pt x="168" y="442" on="1"/>
        <pt x="167" y="453" on="0"/>
        <pt x="167" y="477" on="0"/>
        <pt x="167" y="489" on="1"/>
        <pt x="167" y="504" on="0"/>
        <pt x="167" y="533" on="0"/>
        <pt x="168" y="548" on="1"/>
        <pt x="59" y="548" on="1"/>
        <pt x="63" y="652" on="1"/>
        <pt x="177" y="652" on="1"/>
        <pt x="190" y="745" on="0"/>
        <pt x="251" y="892" on="0"/>
        <pt x="355" y="996" on="0"/>
        <pt x="504" y="1051" on="0"/>
        <pt x="605" y="1051" on="1"/>
        <pt x="638" y="1051" on="0"/>
        <pt x="716" y="1047" on="0"/>
        <pt x="800" y="1035" on="0"/>
        <pt x="885" y="1014" on="0"/>
        <pt x="924" y="997" on="1"/>
        <pt x="927" y="969" on="0"/>
        <pt x="921" y="899" on="0"/>
        <pt x="910" y="829" on="0"/>
        <pt x="896" y="767" on="0"/>
        <pt x="891" y="747" on="1"/>
        <pt x="862" y="747" on="0"/>
        <pt x="816" y="748" on="0"/>
        <pt x="787" y="751" on="1"/>
        <pt x="773" y="905" on="1"/>
        <pt x="744" y="918" on="0"/>
        <pt x="682" y="934" on="0"/>
        <pt x="626" y="941" on="0"/>
        <pt x="582" y="943" on="0"/>
        <pt x="572" y="943" on="1"/>
        <pt x="473" y="941" on="0"/>
        <pt x="367" y="802" on="0"/>
        <pt x="352" y="652" on="1"/>
        <pt x="690" y="652" on="1"/>
        <pt x="694" y="631" on="0"/>
        <pt x="694" y="570" on="0"/>
        <pt x="690" y="548" on="1"/>
        <pt x="345" y="548" on="1"/>
        <pt x="345" y="505" on="1"/>
        <pt x="345" y="488" on="0"/>
        <pt x="345" y="457" on="0"/>
        <pt x="346" y="442" on="1"/>
        <pt x="679" y="442" on="1"/>
        <pt x="682" y="420" on="0"/>
        <pt x="682" y="359" on="0"/>
        <pt x="679" y="338" on="1"/>
        <pt x="357" y="338" on="1"/>
        <pt x="379" y="216" on="0"/>
        <pt x="516" y="106" on="0"/>
        <pt x="647" y="106" on="1"/>
        <pt x="693" y="106" on="0"/>
        <pt x="782" y="127" on="0"/>
        <pt x="854" y="152" on="0"/>
        <pt x="900" y="174" on="0"/>
        <pt x="902" y="175" on="1"/>
        <pt x="945" y="85" on="1"/>
        <pt x="937" y="79" on="0"/>
        <pt x="880" y="42" on="0"/>
        <pt x="788" y="2" on="0"/>
        <pt x="667" y="-29" on="0"/>
        <pt x="595" y="-29" on="1"/>
        <pt x="523" y="-29" on="0"/>
        <pt x="387" y="1" on="0"/>
        <pt x="275" y="83" on="0"/>
        <pt x="194" y="225" on="0"/>
        <pt x="177" y="338" on="1"/>
        <pt x="47" y="338" on="1"/>
      </contour>
    </TTGlyph>
    <TTGlyph name="F" xMin="102" yMin="0" xMax="1103" yMax="1448">
      <contour>
        <pt x="102" y="90" on="1"/>
        <pt x="121" y="97" on="0"/>
        <pt x="166" y="106" on="0"/>
        <pt x="213" y="114" on="0"/>
        <pt x="259" y="119" on="0"/>
        <pt x="279" y="122" on="1"/>
        <pt x="279" y="1328" on="1"/>
        <pt x="118" y="1359" on="1"/>
        <pt x="116" y="1364" on="0"/>
        <pt x="115" y="1387" on="0"/>
        <pt x="115" y="1394" on="1"/>
        <pt x="115" y="1409" on="0"/>
        <pt x="123" y="1441" on="0"/>
        <pt x="128" y="1448" on="1"/>
        <pt x="1089" y="1448" on="1"/>
        <pt x="1103" y="1432" on="1"/>
        <pt x="1104" y="1394" on="0"/>
        <pt x="1096" y="1299" on="0"/>
        <pt x="1084" y="1206" on="0"/>
        <pt x="1069" y="1125" on="0"/>
        <pt x="1064" y="1103" on="1"/>
        <pt x="1041" y="1098" on="0"/>
        <pt x="981" y="1100" on="0"/>
        <pt x="952" y="1103" on="1"/>
        <pt x="934" y="1331" on="1"/>
        <pt x="458" y="1331" on="1"/>
        <pt x="458" y="775" on="1"/>
        <pt x="917" y="780" on="1"/>
        <pt x="922" y="751" on="0"/>
        <pt x="915" y="677" on="0"/>
        <pt x="909" y="645" on="1"/>
        <pt x="458" y="657" on="1"/>
        <pt x="458" y="122" on="1"/>
        <pt x="726" y="90" on="1"/>
        <pt x="728" y="85" on="0"/>
        <pt x="728" y="66" on="0"/>
        <pt x="728" y="59" on="1"/>
        <pt x="728" y="45" on="0"/>
        <pt x="720" y="7" on="0"/>
        <pt x="717" y="0" on="1"/>
        <pt x="111" y="0" on="1"/>
      </contour>
    </TTGlyph>
    <TTGlyph name="G" xMin="130" yMin="-29" xMax="1336" yMax="1477">
      <contour>
        <pt x="130" y="709" on="1"/>
        <pt x="130" y="902" on="0"/>
        <pt x="223" y="1190" on="0"/>
        <pt x="397" y="1382" on="0"/>
        <pt x="645" y="1477" on="0"/>
        <pt x="799" y="1477" on="1"/>
        <pt x="879" y="1477" on="0"/>
        <pt x="1014" y="1464" on="0"/>
        <pt x="1124" y="1443" on="0"/>
        <pt x="1207" y="1418" on="0"/>
        <pt x="1234" y="1407" on="1"/>
        <pt x="1236" y="1394" on="1"/>
        <pt x="1237" y="1356" on="0"/>
        <pt x="1229" y="1262" on="0"/>
        <pt x="1216" y="1171" on="0"/>
        <pt x="1202" y="1093" on="0"/>
        <pt x="1196" y="1071" on="1"/>
        <pt x="1173" y="1066" on="0"/>
        <pt x="1111" y="1067" on="0"/>
        <pt x="1082" y="1071" on="1"/>
        <pt x="1064" y="1290" on="1"/>
        <pt x="1023" y="1309" on="0"/>
        <pt x="939" y="1333" on="0"/>
        <pt x="859" y="1347" on="0"/>
        <pt x="784" y="1351" on="0"/>
        <pt x="751" y="1351" on="1"/>
        <pt x="635" y="1351" on="0"/>
        <pt x="473" y="1261" on="0"/>
        <pt x="371" y="1098" on="0"/>
        <pt x="324" y="870" on="0"/>
        <pt x="324" y="733" on="1"/>
        <pt x="324" y="574" on="0"/>
        <pt x="372" y="336" on="0"/>
        <pt x="484" y="178" on="0"/>
        <pt x="668" y="99" on="0"/>
        <pt x="803" y="99" on="1"/>
        <pt x="841" y="99" on="0"/>
        <pt x="924" y="106" on="0"/>
        <pt x="999" y="118" on="0"/>
        <pt x="1062" y="134" on="0"/>
        <pt x="1080" y="144" on="1"/>
        <pt x="1080" y="557" on="1"/>
        <pt x="1078" y="557" on="1"/>
        <pt x="1064" y="559" on="0"/>
        <pt x="1000" y="565" on="0"/>
        <pt x="926" y="573" on="0"/>
        <pt x="858" y="582" on="0"/>
        <pt x="839" y="586" on="1"/>
        <pt x="838" y="594" on="0"/>
        <pt x="838" y="622" on="0"/>
        <pt x="841" y="652" on="0"/>
        <pt x="846" y="680" on="0"/>
        <pt x="850" y="688" on="1"/>
        <pt x="1326" y="688" on="1"/>
        <pt x="1329" y="682" on="0"/>
        <pt x="1333" y="651" on="0"/>
        <pt x="1335" y="618" on="0"/>
        <pt x="1336" y="592" on="0"/>
        <pt x="1335" y="591" on="1"/>
        <pt x="1260" y="562" on="1"/>
        <pt x="1260" y="108" on="1"/>
        <pt x="1235" y="85" on="0"/>
        <pt x="1137" y="37" on="0"/>
        <pt x="1008" y="-3" on="0"/>
        <pt x="855" y="-29" on="0"/>
        <pt x="775" y="-29" on="1"/>
        <pt x="682" y="-29" on="0"/>
        <pt x="514" y="-9" on="0"/>
        <pt x="370" y="48" on="0"/>
        <pt x="255" y="150" on="0"/>
        <pt x="174" y="314" on="0"/>
        <pt x="130" y="548" on="0"/>
      </contour>
    </TTGlyph>
    <TTGlyph name="Gdotaccent" xMin="92" yMin="-29" xMax="1298" yMax="1808">
      <contour>
        <pt x="726" y="1588" on="1"/>
        <pt x="694" y="1588" on="0"/>
        <pt x="652" y="1605" on="0"/>
        <pt x="627" y="1634" on="0"/>
        <pt x="617" y="1673" on="0"/>
        <pt x="617" y="1696" on="1"/>
        <pt x="617" y="1720" on="0"/>
        <pt x="627" y="1761" on="0"/>
        <pt x="652" y="1791" on="0"/>
        <pt x="694" y="1808" on="0"/>
        <pt x="726" y="1808" on="1"/>
        <pt x="757" y="1808" on="0"/>
        <pt x="800" y="1791" on="0"/>
        <pt x="826" y="1761" on="0"/>
        <pt x="837" y="1720" on="0"/>
        <pt x="837" y="1696" on="1"/>
        <pt x="837" y="1673" on="0"/>
        <pt x="826" y="1634" on="0"/>
        <pt x="800" y="1605" on="0"/>
        <pt x="757" y="1588" on="0"/>
      </contour>
      <contour>
        <pt x="92" y="709" on="1"/>
        <pt x="92" y="902" on="0"/>
        <pt x="185" y="1190" on="0"/>
        <pt x="359" y="1382" on="0"/>
        <pt x="607" y="1477" on="0"/>
        <pt x="761" y="1477" on="1"/>
        <pt x="841" y="1477" on="0"/>
        <pt x="976" y="1464" on="0"/>
        <pt x="1086" y="1443" on="0"/>
        <pt x="1169" y="1418" on="0"/>
        <pt x="1196" y="1407" on="1"/>
        <pt x="1198" y="1394" on="1"/>
        <pt x="1199" y="1356" on="0"/>
        <pt x="1191" y="1262" on="0"/>
        <pt x="1178" y="1171" on="0"/>
        <pt x="1164" y="1093" on="0"/>
        <pt x="1158" y="1071" on="1"/>
        <pt x="1135" y="1066" on="0"/>
        <pt x="1073" y="1067" on="0"/>
        <pt x="1044" y="1071" on="1"/>
        <pt x="1026" y="1290" on="1"/>
        <pt x="985" y="1309" on="0"/>
        <pt x="901" y="1333" on="0"/>
        <pt x="821" y="1347" on="0"/>
        <pt x="746" y="1351" on="0"/>
        <pt x="713" y="1351" on="1"/>
        <pt x="597" y="1351" on="0"/>
        <pt x="435" y="1261" on="0"/>
        <pt x="333" y="1098" on="0"/>
        <pt x="286" y="870" on="0"/>
        <pt x="286" y="733" on="1"/>
        <pt x="286" y="574" on="0"/>
        <pt x="334" y="336" on="0"/>
        <pt x="446" y="178" on="0"/>
        <pt x="630" y="99" on="0"/>
        <pt x="765" y="99" on="1"/>
        <pt x="803" y="99" on="0"/>
        <pt x="886" y="106" on="0"/>
        <pt x="961" y="118" on="0"/>
        <pt x="1024" y="134" on="0"/>
        <pt x="1042" y="144" on="1"/>
        <pt x="1042" y="557" on="1"/>
        <pt x="1040" y="557" on="1"/>
        <pt x="1026" y="559" on="0"/>
        <pt x="962" y="565" on="0"/>
        <pt x="888" y="573" on="0"/>
        <pt x="820" y="582" on="0"/>
        <pt x="801" y="586" on="1"/>
        <pt x="800" y="594" on="0"/>
        <pt x="800" y="622" on="0"/>
        <pt x="803" y="652" on="0"/>
        <pt x="808" y="680" on="0"/>
        <pt x="812" y="688" on="1"/>
        <pt x="1288" y="688" on="1"/>
        <pt x="1291" y="682" on="0"/>
        <pt x="1295" y="651" on="0"/>
        <pt x="1297" y="618" on="0"/>
        <pt x="1298" y="592" on="0"/>
        <pt x="1297" y="591" on="1"/>
        <pt x="1222" y="562" on="1"/>
        <pt x="1222" y="108" on="1"/>
        <pt x="1197" y="85" on="0"/>
        <pt x="1099" y="37" on="0"/>
        <pt x="970" y="-3" on="0"/>
        <pt x="817" y="-29" on="0"/>
        <pt x="737" y="-29" on="1"/>
        <pt x="644" y="-29" on="0"/>
        <pt x="476" y="-9" on="0"/>
        <pt x="332" y="48" on="0"/>
        <pt x="217" y="150" on="0"/>
        <pt x="136" y="314" on="0"/>
        <pt x="92" y="548" on="0"/>
      </contour>
    </TTGlyph>
    <TTGlyph name="H" xMin="102" yMin="0" xMax="1515" yMax="1448">
      <contour>
        <pt x="102" y="90" on="1"/>
        <pt x="140" y="104" on="0"/>
        <pt x="228" y="117" on="0"/>
        <pt x="269" y="122" on="1"/>
        <pt x="269" y="1328" on="1"/>
        <pt x="108" y="1359" on="1"/>
        <pt x="106" y="1364" on="0"/>
        <pt x="106" y="1387" on="0"/>
        <pt x="106" y="1394" on="1"/>
        <pt x="106" y="1409" on="0"/>
        <pt x="114" y="1441" on="0"/>
        <pt x="118" y="1448" on="1"/>
        <pt x="629" y="1448" on="1"/>
        <pt x="638" y="1364" on="1"/>
        <pt x="620" y="1356" on="0"/>
        <pt x="569" y="1345" on="0"/>
        <pt x="515" y="1336" on="0"/>
        <pt x="466" y="1330" on="0"/>
        <pt x="449" y="1328" on="1"/>
        <pt x="449" y="794" on="1"/>
        <pt x="1161" y="794" on="1"/>
        <pt x="1161" y="1328" on="1"/>
        <pt x="992" y="1359" on="1"/>
        <pt x="990" y="1364" on="0"/>
        <pt x="990" y="1387" on="0"/>
        <pt x="990" y="1394" on="1"/>
        <pt x="990" y="1409" on="0"/>
        <pt x="998" y="1441" on="0"/>
        <pt x="1002" y="1448" on="1"/>
        <pt x="1496" y="1448" on="1"/>
        <pt x="1506" y="1362" on="1"/>
        <pt x="1467" y="1347" on="0"/>
        <pt x="1381" y="1333" on="0"/>
        <pt x="1340" y="1328" on="1"/>
        <pt x="1340" y="122" on="1"/>
        <pt x="1513" y="90" on="1"/>
        <pt x="1515" y="85" on="0"/>
        <pt x="1515" y="64" on="0"/>
        <pt x="1515" y="57" on="1"/>
        <pt x="1515" y="43" on="0"/>
        <pt x="1507" y="7" on="0"/>
        <pt x="1504" y="0" on="1"/>
        <pt x="979" y="0" on="1"/>
        <pt x="969" y="90" on="1"/>
        <pt x="988" y="97" on="0"/>
        <pt x="1038" y="106" on="0"/>
        <pt x="1090" y="114" on="0"/>
        <pt x="1140" y="119" on="0"/>
        <pt x="1161" y="122" on="1"/>
        <pt x="1161" y="676" on="1"/>
        <pt x="449" y="676" on="1"/>
        <pt x="449" y="122" on="1"/>
        <pt x="645" y="90" on="1"/>
        <pt x="647" y="85" on="0"/>
        <pt x="647" y="64" on="0"/>
        <pt x="647" y="57" on="1"/>
        <pt x="647" y="43" on="0"/>
        <pt x="639" y="7" on="0"/>
        <pt x="636" y="0" on="1"/>
        <pt x="111" y="0" on="1"/>
      </contour>
    </TTGlyph>
    <TTGlyph name="I" xMin="95" yMin="0" xMax="643" yMax="1448">
      <contour>
        <pt x="95" y="90" on="1"/>
        <pt x="134" y="104" on="0"/>
        <pt x="233" y="117" on="0"/>
        <pt x="275" y="122" on="1"/>
        <pt x="275" y="1328" on="1"/>
        <pt x="111" y="1359" on="1"/>
        <pt x="109" y="1364" on="0"/>
        <pt x="108" y="1391" on="0"/>
        <pt x="108" y="1399" on="1"/>
        <pt x="108" y="1413" on="0"/>
        <pt x="116" y="1441" on="0"/>
        <pt x="120" y="1448" on="1"/>
        <pt x="617" y="1448" on="1"/>
        <pt x="627" y="1364" on="1"/>
        <pt x="591" y="1351" on="0"/>
        <pt x="495" y="1333" on="0"/>
        <pt x="454" y="1328" on="1"/>
        <pt x="454" y="122" on="1"/>
        <pt x="640" y="88" on="1"/>
        <pt x="642" y="83" on="0"/>
        <pt x="643" y="64" on="0"/>
        <pt x="643" y="57" on="1"/>
        <pt x="643" y="43" on="0"/>
        <pt x="635" y="7" on="0"/>
        <pt x="631" y="0" on="1"/>
        <pt x="104" y="0" on="1"/>
      </contour>
    </TTGlyph>
    <TTGlyph name="IJ" xMin="95" yMin="-612" xMax="1356" yMax="1448">
      <contour>
        <pt x="695" y="-512" on="1"/>
        <pt x="745" y="-476" on="0"/>
        <pt x="829" y="-402" on="0"/>
        <pt x="897" y="-315" on="0"/>
        <pt x="949" y="-211" on="0"/>
        <pt x="984" y="-76" on="0"/>
        <pt x="1002" y="94" on="0"/>
        <pt x="1002" y="203" on="1"/>
        <pt x="1002" y="1328" on="1"/>
        <pt x="823" y="1359" on="1"/>
        <pt x="821" y="1372" on="0"/>
        <pt x="820" y="1391" on="0"/>
        <pt x="820" y="1399" on="1"/>
        <pt x="820" y="1413" on="0"/>
        <pt x="826" y="1441" on="0"/>
        <pt x="830" y="1448" on="1"/>
        <pt x="1347" y="1448" on="1"/>
        <pt x="1356" y="1364" on="1"/>
        <pt x="1338" y="1358" on="0"/>
        <pt x="1295" y="1347" on="0"/>
        <pt x="1248" y="1338" on="0"/>
        <pt x="1202" y="1331" on="0"/>
        <pt x="1182" y="1328" on="1"/>
        <pt x="1182" y="167" on="1"/>
        <pt x="1182" y="13" on="0"/>
        <pt x="1127" y="-233" on="0"/>
        <pt x="1020" y="-424" on="0"/>
        <pt x="862" y="-564" on="0"/>
        <pt x="759" y="-612" on="1"/>
        <pt x="750" y="-602" on="0"/>
        <pt x="730" y="-576" on="0"/>
        <pt x="712" y="-549" on="0"/>
        <pt x="698" y="-522" on="0"/>
      </contour>
      <contour>
        <pt x="95" y="90" on="1"/>
        <pt x="134" y="104" on="0"/>
        <pt x="233" y="117" on="0"/>
        <pt x="275" y="122" on="1"/>
        <pt x="275" y="1328" on="1"/>
        <pt x="111" y="1359" on="1"/>
        <pt x="109" y="1364" on="0"/>
        <pt x="108" y="1391" on="0"/>
        <pt x="108" y="1399" on="1"/>
        <pt x="108" y="1413" on="0"/>
        <pt x="116" y="1441" on="0"/>
        <pt x="120" y="1448" on="1"/>
        <pt x="617" y="1448" on="1"/>
        <pt x="627" y="1364" on="1"/>
        <pt x="591" y="1351" on="0"/>
        <pt x="495" y="1333" on="0"/>
        <pt x="454" y="1328" on="1"/>
        <pt x="454" y="122" on="1"/>
        <pt x="640" y="88" on="1"/>
        <pt x="642" y="83" on="0"/>
        <pt x="643" y="64" on="0"/>
        <pt x="643" y="57" on="1"/>
        <pt x="643" y="43" on="0"/>
        <pt x="635" y="7" on="0"/>
        <pt x="631" y="0" on="1"/>
        <pt x="104" y="0" on="1"/>
      </contour>
    </TTGlyph>
    <TTGlyph name="Iacute" xMin="95" yMin="0" xMax="643" yMax="1881">
      <contour>
        <pt x="213" y="1538" on="1"/>
        <pt x="203" y="1547" on="0"/>
        <pt x="177" y="1588" on="0"/>
        <pt x="166" y="1614" on="1"/>
        <pt x="527" y="1881" on="1"/>
        <pt x="642" y="1796" on="1"/>
        <pt x="640" y="1746" on="1"/>
      </contour>
      <contour>
        <pt x="95" y="90" on="1"/>
        <pt x="134" y="104" on="0"/>
        <pt x="233" y="117" on="0"/>
        <pt x="275" y="122" on="1"/>
        <pt x="275" y="1328" on="1"/>
        <pt x="111" y="1359" on="1"/>
        <pt x="109" y="1364" on="0"/>
        <pt x="108" y="1391" on="0"/>
        <pt x="108" y="1399" on="1"/>
        <pt x="108" y="1413" on="0"/>
        <pt x="116" y="1441" on="0"/>
        <pt x="120" y="1448" on="1"/>
        <pt x="617" y="1448" on="1"/>
        <pt x="627" y="1364" on="1"/>
        <pt x="591" y="1351" on="0"/>
        <pt x="495" y="1333" on="0"/>
        <pt x="454" y="1328" on="1"/>
        <pt x="454" y="122" on="1"/>
        <pt x="640" y="88" on="1"/>
        <pt x="642" y="83" on="0"/>
        <pt x="643" y="64" on="0"/>
        <pt x="643" y="57" on="1"/>
        <pt x="643" y="43" on="0"/>
        <pt x="635" y="7" on="0"/>
        <pt x="631" y="0" on="1"/>
        <pt x="104" y="0" on="1"/>
      </contour>
    </TTGlyph>
    <TTGlyph name="Icircumflex" xMin="68" yMin="0" xMax="661" yMax="1863">
      <contour>
        <pt x="127" y="1531" on="1"/>
        <pt x="120" y="1535" on="0"/>
        <pt x="102" y="1549" on="0"/>
        <pt x="85" y="1567" on="0"/>
        <pt x="71" y="1588" on="0"/>
        <pt x="68" y="1597" on="1"/>
        <pt x="314" y="1863" on="1"/>
        <pt x="415" y="1863" on="1"/>
        <pt x="661" y="1603" on="1"/>
        <pt x="650" y="1580" on="0"/>
        <pt x="609" y="1539" on="0"/>
        <pt x="593" y="1531" on="1"/>
        <pt x="359" y="1714" on="1"/>
      </contour>
      <contour>
        <pt x="97" y="90" on="1"/>
        <pt x="136" y="104" on="0"/>
        <pt x="235" y="117" on="0"/>
        <pt x="277" y="122" on="1"/>
        <pt x="277" y="1328" on="1"/>
        <pt x="113" y="1359" on="1"/>
        <pt x="111" y="1364" on="0"/>
        <pt x="110" y="1391" on="0"/>
        <pt x="110" y="1399" on="1"/>
        <pt x="110" y="1413" on="0"/>
        <pt x="118" y="1441" on="0"/>
        <pt x="122" y="1448" on="1"/>
        <pt x="619" y="1448" on="1"/>
        <pt x="629" y="1364" on="1"/>
        <pt x="593" y="1351" on="0"/>
        <pt x="497" y="1333" on="0"/>
        <pt x="456" y="1328" on="1"/>
        <pt x="456" y="122" on="1"/>
        <pt x="642" y="88" on="1"/>
        <pt x="644" y="83" on="0"/>
        <pt x="645" y="64" on="0"/>
        <pt x="645" y="57" on="1"/>
        <pt x="645" y="43" on="0"/>
        <pt x="637" y="7" on="0"/>
        <pt x="633" y="0" on="1"/>
        <pt x="106" y="0" on="1"/>
      </contour>
    </TTGlyph>
    <TTGlyph name="Idieresis" xMin="48" yMin="0" xMax="683" yMax="1801">
      <contour>
        <pt x="576" y="1590" on="1"/>
        <pt x="543" y="1590" on="0"/>
        <pt x="501" y="1607" on="0"/>
        <pt x="477" y="1635" on="0"/>
        <pt x="467" y="1673" on="0"/>
        <pt x="467" y="1694" on="1"/>
        <pt x="467" y="1716" on="0"/>
        <pt x="477" y="1755" on="0"/>
        <pt x="501" y="1784" on="0"/>
        <pt x="543" y="1801" on="0"/>
        <pt x="576" y="1801" on="1"/>
        <pt x="638" y="1801" on="0"/>
        <pt x="683" y="1744" on="0"/>
        <pt x="683" y="1694" on="1"/>
        <pt x="683" y="1673" on="0"/>
        <pt x="673" y="1635" on="0"/>
        <pt x="648" y="1607" on="0"/>
        <pt x="607" y="1590" on="0"/>
      </contour>
      <contour>
        <pt x="152" y="1590" on="1"/>
        <pt x="122" y="1590" on="0"/>
        <pt x="82" y="1607" on="0"/>
        <pt x="58" y="1635" on="0"/>
        <pt x="48" y="1673" on="0"/>
        <pt x="48" y="1694" on="1"/>
        <pt x="48" y="1716" on="0"/>
        <pt x="58" y="1755" on="0"/>
        <pt x="82" y="1784" on="0"/>
        <pt x="122" y="1801" on="0"/>
        <pt x="152" y="1801" on="1"/>
        <pt x="214" y="1801" on="0"/>
        <pt x="264" y="1744" on="0"/>
        <pt x="264" y="1694" on="1"/>
        <pt x="264" y="1673" on="0"/>
        <pt x="252" y="1635" on="0"/>
        <pt x="226" y="1607" on="0"/>
        <pt x="183" y="1590" on="0"/>
      </contour>
      <contour>
        <pt x="95" y="90" on="1"/>
        <pt x="134" y="104" on="0"/>
        <pt x="233" y="117" on="0"/>
        <pt x="275" y="122" on="1"/>
        <pt x="275" y="1328" on="1"/>
        <pt x="111" y="1359" on="1"/>
        <pt x="109" y="1364" on="0"/>
        <pt x="108" y="1391" on="0"/>
        <pt x="108" y="1399" on="1"/>
        <pt x="108" y="1413" on="0"/>
        <pt x="116" y="1441" on="0"/>
        <pt x="120" y="1448" on="1"/>
        <pt x="617" y="1448" on="1"/>
        <pt x="627" y="1364" on="1"/>
        <pt x="591" y="1351" on="0"/>
        <pt x="495" y="1333" on="0"/>
        <pt x="454" y="1328" on="1"/>
        <pt x="454" y="122" on="1"/>
        <pt x="640" y="88" on="1"/>
        <pt x="642" y="83" on="0"/>
        <pt x="643" y="64" on="0"/>
        <pt x="643" y="57" on="1"/>
        <pt x="643" y="43" on="0"/>
        <pt x="635" y="7" on="0"/>
        <pt x="631" y="0" on="1"/>
        <pt x="104" y="0" on="1"/>
      </contour>
    </TTGlyph>
    <TTGlyph name="Idotaccent" xMin="79" yMin="0" xMax="627" yMax="1808">
      <contour>
        <pt x="347" y="1588" on="1"/>
        <pt x="315" y="1588" on="0"/>
        <pt x="273" y="1605" on="0"/>
        <pt x="249" y="1634" on="0"/>
        <pt x="239" y="1673" on="0"/>
        <pt x="239" y="1696" on="1"/>
        <pt x="239" y="1720" on="0"/>
        <pt x="249" y="1761" on="0"/>
        <pt x="273" y="1791" on="0"/>
        <pt x="315" y="1808" on="0"/>
        <pt x="347" y="1808" on="1"/>
        <pt x="379" y="1808" on="0"/>
        <pt x="422" y="1791" on="0"/>
        <pt x="447" y="1761" on="0"/>
        <pt x="458" y="1720" on="0"/>
        <pt x="458" y="1696" on="1"/>
        <pt x="458" y="1673" on="0"/>
        <pt x="447" y="1634" on="0"/>
        <pt x="422" y="1605" on="0"/>
        <pt x="379" y="1588" on="0"/>
      </contour>
      <contour>
        <pt x="79" y="90" on="1"/>
        <pt x="118" y="104" on="0"/>
        <pt x="217" y="117" on="0"/>
        <pt x="259" y="122" on="1"/>
        <pt x="259" y="1328" on="1"/>
        <pt x="95" y="1359" on="1"/>
        <pt x="93" y="1364" on="0"/>
        <pt x="92" y="1391" on="0"/>
        <pt x="92" y="1399" on="1"/>
        <pt x="92" y="1413" on="0"/>
        <pt x="100" y="1441" on="0"/>
        <pt x="104" y="1448" on="1"/>
        <pt x="601" y="1448" on="1"/>
        <pt x="611" y="1364" on="1"/>
        <pt x="575" y="1351" on="0"/>
        <pt x="479" y="1333" on="0"/>
        <pt x="438" y="1328" on="1"/>
        <pt x="438" y="122" on="1"/>
        <pt x="624" y="88" on="1"/>
        <pt x="626" y="83" on="0"/>
        <pt x="627" y="64" on="0"/>
        <pt x="627" y="57" on="1"/>
        <pt x="627" y="43" on="0"/>
        <pt x="619" y="7" on="0"/>
        <pt x="615" y="0" on="1"/>
        <pt x="88" y="0" on="1"/>
      </contour>
    </TTGlyph>
    <TTGlyph name="Igrave" xMin="95" yMin="0" xMax="643" yMax="1881">
      <contour>
        <pt x="126" y="1741" on="1"/>
        <pt x="124" y="1791" on="1"/>
        <pt x="239" y="1881" on="1"/>
        <pt x="596" y="1617" on="1"/>
        <pt x="587" y="1590" on="0"/>
        <pt x="568" y="1556" on="0"/>
        <pt x="555" y="1536" on="1"/>
      </contour>
      <contour>
        <pt x="95" y="90" on="1"/>
        <pt x="134" y="104" on="0"/>
        <pt x="233" y="117" on="0"/>
        <pt x="275" y="122" on="1"/>
        <pt x="275" y="1328" on="1"/>
        <pt x="111" y="1359" on="1"/>
        <pt x="109" y="1364" on="0"/>
        <pt x="108" y="1391" on="0"/>
        <pt x="108" y="1399" on="1"/>
        <pt x="108" y="1413" on="0"/>
        <pt x="116" y="1441" on="0"/>
        <pt x="120" y="1448" on="1"/>
        <pt x="617" y="1448" on="1"/>
        <pt x="627" y="1364" on="1"/>
        <pt x="591" y="1351" on="0"/>
        <pt x="495" y="1333" on="0"/>
        <pt x="454" y="1328" on="1"/>
        <pt x="454" y="122" on="1"/>
        <pt x="640" y="88" on="1"/>
        <pt x="642" y="83" on="0"/>
        <pt x="643" y="64" on="0"/>
        <pt x="643" y="57" on="1"/>
        <pt x="643" y="43" on="0"/>
        <pt x="635" y="7" on="0"/>
        <pt x="631" y="0" on="1"/>
        <pt x="104" y="0" on="1"/>
      </contour>
    </TTGlyph>
    <TTGlyph name="Iogonek" xMin="78" yMin="-422" xMax="626" yMax="1448">
      <contour>
        <pt x="78" y="90" on="1"/>
        <pt x="117" y="104" on="0"/>
        <pt x="216" y="117" on="0"/>
        <pt x="258" y="122" on="1"/>
        <pt x="258" y="1328" on="1"/>
        <pt x="94" y="1359" on="1"/>
        <pt x="92" y="1364" on="0"/>
        <pt x="91" y="1391" on="0"/>
        <pt x="91" y="1399" on="1"/>
        <pt x="91" y="1413" on="0"/>
        <pt x="99" y="1441" on="0"/>
        <pt x="103" y="1448" on="1"/>
        <pt x="600" y="1448" on="1"/>
        <pt x="610" y="1364" on="1"/>
        <pt x="574" y="1351" on="0"/>
        <pt x="478" y="1333" on="0"/>
        <pt x="437" y="1328" on="1"/>
        <pt x="437" y="122" on="1"/>
        <pt x="623" y="88" on="1"/>
        <pt x="625" y="83" on="0"/>
        <pt x="626" y="64" on="0"/>
        <pt x="626" y="57" on="1"/>
        <pt x="626" y="43" on="0"/>
        <pt x="618" y="7" on="0"/>
        <pt x="614" y="0" on="1"/>
        <pt x="485" y="0" on="1"/>
        <pt x="453" y="-29" on="0"/>
        <pt x="387" y="-88" on="0"/>
        <pt x="334" y="-148" on="0"/>
        <pt x="300" y="-209" on="0"/>
        <pt x="300" y="-239" on="1"/>
        <pt x="300" y="-261" on="0"/>
        <pt x="329" y="-295" on="0"/>
        <pt x="368" y="-295" on="1"/>
        <pt x="380" y="-295" on="0"/>
        <pt x="406" y="-290" on="0"/>
        <pt x="431" y="-283" on="0"/>
        <pt x="452" y="-276" on="0"/>
        <pt x="458" y="-273" on="1"/>
        <pt x="499" y="-360" on="1"/>
        <pt x="463" y="-381" on="0"/>
        <pt x="363" y="-422" on="0"/>
        <pt x="300" y="-422" on="1"/>
        <pt x="274" y="-422" on="0"/>
        <pt x="221" y="-406" on="0"/>
        <pt x="179" y="-373" on="0"/>
        <pt x="153" y="-320" on="0"/>
        <pt x="153" y="-284" on="1"/>
        <pt x="153" y="-241" on="0"/>
        <pt x="184" y="-166" on="0"/>
        <pt x="238" y="-100" on="0"/>
        <pt x="310" y="-43" on="0"/>
        <pt x="350" y="-16" on="1"/>
        <pt x="379" y="0" on="1"/>
        <pt x="87" y="0" on="1"/>
      </contour>
    </TTGlyph>
    <TTGlyph name="Itilde" xMin="-5" yMin="0" xMax="737" yMax="1833">
      <contour>
        <pt x="-5" y="1638" on="1"/>
        <pt x="10" y="1670" on="0"/>
        <pt x="71" y="1738" on="0"/>
        <pt x="148" y="1793" on="0"/>
        <pt x="229" y="1827" on="0"/>
        <pt x="263" y="1825" on="1"/>
        <pt x="300" y="1823" on="0"/>
        <pt x="366" y="1788" on="0"/>
        <pt x="424" y="1747" on="0"/>
        <pt x="474" y="1713" on="0"/>
        <pt x="497" y="1713" on="1"/>
        <pt x="519" y="1713" on="0"/>
        <pt x="566" y="1731" on="0"/>
        <pt x="613" y="1764" on="0"/>
        <pt x="658" y="1808" on="0"/>
        <pt x="678" y="1833" on="1"/>
        <pt x="737" y="1789" on="1"/>
        <pt x="715" y="1729" on="0"/>
        <pt x="648" y="1644" on="0"/>
        <pt x="573" y="1590" on="0"/>
        <pt x="498" y="1565" on="0"/>
        <pt x="468" y="1565" on="1"/>
        <pt x="435" y="1565" on="0"/>
        <pt x="372" y="1601" on="0"/>
        <pt x="313" y="1644" on="0"/>
        <pt x="257" y="1680" on="0"/>
        <pt x="230" y="1681" on="1"/>
        <pt x="214" y="1682" on="0"/>
        <pt x="167" y="1667" on="0"/>
        <pt x="115" y="1641" on="0"/>
        <pt x="63" y="1605" on="0"/>
        <pt x="41" y="1585" on="1"/>
      </contour>
      <contour>
        <pt x="104" y="90" on="1"/>
        <pt x="143" y="104" on="0"/>
        <pt x="242" y="117" on="0"/>
        <pt x="284" y="122" on="1"/>
        <pt x="284" y="1328" on="1"/>
        <pt x="120" y="1359" on="1"/>
        <pt x="118" y="1364" on="0"/>
        <pt x="117" y="1391" on="0"/>
        <pt x="117" y="1399" on="1"/>
        <pt x="117" y="1413" on="0"/>
        <pt x="125" y="1441" on="0"/>
        <pt x="129" y="1448" on="1"/>
        <pt x="626" y="1448" on="1"/>
        <pt x="636" y="1364" on="1"/>
        <pt x="600" y="1351" on="0"/>
        <pt x="504" y="1333" on="0"/>
        <pt x="463" y="1328" on="1"/>
        <pt x="463" y="122" on="1"/>
        <pt x="649" y="88" on="1"/>
        <pt x="651" y="83" on="0"/>
        <pt x="652" y="64" on="0"/>
        <pt x="652" y="57" on="1"/>
        <pt x="652" y="43" on="0"/>
        <pt x="644" y="7" on="0"/>
        <pt x="640" y="0" on="1"/>
        <pt x="113" y="0" on="1"/>
      </contour>
    </TTGlyph>
    <TTGlyph name="J" xMin="-52" yMin="-612" xMax="609" yMax="1448">
      <contour>
        <pt x="255" y="1328" on="1"/>
        <pt x="76" y="1359" on="1"/>
        <pt x="74" y="1372" on="0"/>
        <pt x="73" y="1391" on="0"/>
        <pt x="73" y="1399" on="1"/>
        <pt x="73" y="1413" on="0"/>
        <pt x="79" y="1441" on="0"/>
        <pt x="83" y="1448" on="1"/>
        <pt x="600" y="1448" on="1"/>
        <pt x="609" y="1364" on="1"/>
        <pt x="591" y="1358" on="0"/>
        <pt x="548" y="1347" on="0"/>
        <pt x="501" y="1338" on="0"/>
        <pt x="455" y="1331" on="0"/>
        <pt x="435" y="1328" on="1"/>
        <pt x="435" y="167" on="1"/>
        <pt x="435" y="13" on="0"/>
        <pt x="380" y="-233" on="0"/>
        <pt x="273" y="-424" on="0"/>
        <pt x="115" y="-564" on="0"/>
        <pt x="12" y="-612" on="1"/>
        <pt x="3" y="-602" on="0"/>
        <pt x="-17" y="-576" on="0"/>
        <pt x="-35" y="-549" on="0"/>
        <pt x="-49" y="-522" on="0"/>
        <pt x="-52" y="-512" on="1"/>
        <pt x="-2" y="-476" on="0"/>
        <pt x="82" y="-402" on="0"/>
        <pt x="150" y="-315" on="0"/>
        <pt x="202" y="-211" on="0"/>
        <pt x="237" y="-76" on="0"/>
        <pt x="255" y="94" on="0"/>
        <pt x="255" y="203" on="1"/>
      </contour>
    </TTGlyph>
    <TTGlyph name="Jcircumflex" xMin="-43" yMin="-612" xMax="622" yMax="1863">
      <contour>
        <pt x="88" y="1531" on="1"/>
        <pt x="81" y="1535" on="0"/>
        <pt x="63" y="1549" on="0"/>
        <pt x="46" y="1567" on="0"/>
        <pt x="32" y="1588" on="0"/>
        <pt x="29" y="1597" on="1"/>
        <pt x="275" y="1863" on="1"/>
        <pt x="376" y="1863" on="1"/>
        <pt x="622" y="1603" on="1"/>
        <pt x="611" y="1580" on="0"/>
        <pt x="570" y="1539" on="0"/>
        <pt x="554" y="1531" on="1"/>
        <pt x="320" y="1714" on="1"/>
      </contour>
      <contour>
        <pt x="264" y="1328" on="1"/>
        <pt x="85" y="1359" on="1"/>
        <pt x="83" y="1372" on="0"/>
        <pt x="82" y="1391" on="0"/>
        <pt x="82" y="1399" on="1"/>
        <pt x="82" y="1413" on="0"/>
        <pt x="88" y="1441" on="0"/>
        <pt x="92" y="1448" on="1"/>
        <pt x="609" y="1448" on="1"/>
        <pt x="618" y="1364" on="1"/>
        <pt x="600" y="1358" on="0"/>
        <pt x="557" y="1347" on="0"/>
        <pt x="510" y="1338" on="0"/>
        <pt x="464" y="1331" on="0"/>
        <pt x="444" y="1328" on="1"/>
        <pt x="444" y="167" on="1"/>
        <pt x="444" y="13" on="0"/>
        <pt x="389" y="-233" on="0"/>
        <pt x="282" y="-424" on="0"/>
        <pt x="124" y="-564" on="0"/>
        <pt x="21" y="-612" on="1"/>
        <pt x="12" y="-602" on="0"/>
        <pt x="-8" y="-576" on="0"/>
        <pt x="-26" y="-549" on="0"/>
        <pt x="-40" y="-522" on="0"/>
        <pt x="-43" y="-512" on="1"/>
        <pt x="7" y="-476" on="0"/>
        <pt x="91" y="-402" on="0"/>
        <pt x="159" y="-315" on="0"/>
        <pt x="211" y="-211" on="0"/>
        <pt x="246" y="-76" on="0"/>
        <pt x="264" y="94" on="0"/>
        <pt x="264" y="203" on="1"/>
      </contour>
    </TTGlyph>
    <TTGlyph name="K" xMin="102" yMin="0" xMax="1415" yMax="1448">
      <contour>
        <pt x="102" y="90" on="1"/>
        <pt x="140" y="104" on="0"/>
        <pt x="228" y="117" on="0"/>
        <pt x="269" y="122" on="1"/>
        <pt x="269" y="1333" on="1"/>
        <pt x="228" y="1338" on="0"/>
        <pt x="143" y="1345" on="0"/>
        <pt x="102" y="1355" on="1"/>
        <pt x="106" y="1448" on="1"/>
        <pt x="620" y="1448" on="1"/>
        <pt x="623" y="1428" on="0"/>
        <pt x="623" y="1375" on="0"/>
        <pt x="620" y="1355" on="1"/>
        <pt x="578" y="1347" on="0"/>
        <pt x="490" y="1338" on="0"/>
        <pt x="449" y="1333" on="1"/>
        <pt x="449" y="690" on="1"/>
        <pt x="525" y="762" on="0"/>
        <pt x="668" y="897" on="0"/>
        <pt x="818" y="1046" on="0"/>
        <pt x="984" y="1220" on="0"/>
        <pt x="1082" y="1331" on="1"/>
        <pt x="1053" y="1334" on="0"/>
        <pt x="962" y="1343" on="0"/>
        <pt x="924" y="1351" on="1"/>
        <pt x="923" y="1359" on="0"/>
        <pt x="923" y="1385" on="0"/>
        <pt x="924" y="1412" on="0"/>
        <pt x="926" y="1439" on="0"/>
        <pt x="929" y="1448" on="1"/>
        <pt x="1326" y="1448" on="1"/>
        <pt x="1329" y="1442" on="0"/>
        <pt x="1331" y="1409" on="0"/>
        <pt x="1331" y="1375" on="0"/>
        <pt x="1329" y="1348" on="0"/>
        <pt x="1328" y="1347" on="1"/>
        <pt x="1283" y="1328" on="1"/>
        <pt x="771" y="827" on="1"/>
        <pt x="1245" y="118" on="1"/>
        <pt x="1414" y="95" on="1"/>
        <pt x="1415" y="94" on="0"/>
        <pt x="1415" y="68" on="0"/>
        <pt x="1413" y="36" on="0"/>
        <pt x="1410" y="6" on="0"/>
        <pt x="1407" y="0" on="1"/>
        <pt x="1094" y="0" on="1"/>
        <pt x="640" y="713" on="1"/>
        <pt x="449" y="560" on="1"/>
        <pt x="449" y="122" on="1"/>
        <pt x="645" y="90" on="1"/>
        <pt x="647" y="85" on="0"/>
        <pt x="647" y="64" on="0"/>
        <pt x="647" y="57" on="1"/>
        <pt x="647" y="43" on="0"/>
        <pt x="639" y="7" on="0"/>
        <pt x="636" y="0" on="1"/>
        <pt x="111" y="0" on="1"/>
      </contour>
    </TTGlyph>
    <TTGlyph name="L" xMin="102" yMin="0" xMax="1139" yMax="1448">
      <contour>
        <pt x="102" y="90" on="1"/>
        <pt x="140" y="104" on="0"/>
        <pt x="228" y="115" on="0"/>
        <pt x="269" y="120" on="1"/>
        <pt x="269" y="1328" on="1"/>
        <pt x="106" y="1359" on="1"/>
        <pt x="104" y="1372" on="0"/>
        <pt x="106" y="1391" on="0"/>
        <pt x="106" y="1399" on="1"/>
        <pt x="108" y="1416" on="0"/>
        <pt x="112" y="1441" on="0"/>
        <pt x="115" y="1448" on="1"/>
        <pt x="638" y="1448" on="1"/>
        <pt x="647" y="1364" on="1"/>
        <pt x="630" y="1358" on="0"/>
        <pt x="579" y="1348" on="0"/>
        <pt x="524" y="1338" on="0"/>
        <pt x="469" y="1331" on="0"/>
        <pt x="449" y="1328" on="1"/>
        <pt x="449" y="120" on="1"/>
        <pt x="957" y="120" on="1"/>
        <pt x="1028" y="359" on="1"/>
        <pt x="1057" y="361" on="0"/>
        <pt x="1116" y="357" on="0"/>
        <pt x="1139" y="350" on="1"/>
        <pt x="1138" y="315" on="0"/>
        <pt x="1133" y="224" on="0"/>
        <pt x="1125" y="131" on="0"/>
        <pt x="1117" y="46" on="0"/>
        <pt x="1114" y="16" on="1"/>
        <pt x="1092" y="0" on="1"/>
        <pt x="111" y="0" on="1"/>
      </contour>
    </TTGlyph>
    <TTGlyph name="Lacute" xMin="90" yMin="0" xMax="1127" yMax="1881">
      <contour>
        <pt x="231" y="1538" on="1"/>
        <pt x="221" y="1547" on="0"/>
        <pt x="195" y="1588" on="0"/>
        <pt x="184" y="1614" on="1"/>
        <pt x="545" y="1881" on="1"/>
        <pt x="660" y="1796" on="1"/>
        <pt x="658" y="1746" on="1"/>
      </contour>
      <contour>
        <pt x="90" y="90" on="1"/>
        <pt x="128" y="104" on="0"/>
        <pt x="216" y="115" on="0"/>
        <pt x="257" y="120" on="1"/>
        <pt x="257" y="1328" on="1"/>
        <pt x="94" y="1359" on="1"/>
        <pt x="92" y="1372" on="0"/>
        <pt x="94" y="1391" on="0"/>
        <pt x="94" y="1399" on="1"/>
        <pt x="96" y="1416" on="0"/>
        <pt x="100" y="1441" on="0"/>
        <pt x="103" y="1448" on="1"/>
        <pt x="626" y="1448" on="1"/>
        <pt x="635" y="1364" on="1"/>
        <pt x="618" y="1358" on="0"/>
        <pt x="567" y="1348" on="0"/>
        <pt x="512" y="1338" on="0"/>
        <pt x="457" y="1331" on="0"/>
        <pt x="437" y="1328" on="1"/>
        <pt x="437" y="120" on="1"/>
        <pt x="945" y="120" on="1"/>
        <pt x="1016" y="359" on="1"/>
        <pt x="1045" y="361" on="0"/>
        <pt x="1104" y="357" on="0"/>
        <pt x="1127" y="350" on="1"/>
        <pt x="1126" y="315" on="0"/>
        <pt x="1121" y="224" on="0"/>
        <pt x="1113" y="131" on="0"/>
        <pt x="1105" y="46" on="0"/>
        <pt x="1102" y="16" on="1"/>
        <pt x="1080" y="0" on="1"/>
        <pt x="99" y="0" on="1"/>
      </contour>
    </TTGlyph>
    <TTGlyph name="Ldot" xMin="90" yMin="0" xMax="1127" yMax="1448">
      <contour>
        <pt x="90" y="95" on="1"/>
        <pt x="131" y="103" on="0"/>
        <pt x="216" y="113" on="0"/>
        <pt x="257" y="118" on="1"/>
        <pt x="257" y="1333" on="1"/>
        <pt x="216" y="1338" on="0"/>
        <pt x="131" y="1345" on="0"/>
        <pt x="90" y="1355" on="1"/>
        <pt x="97" y="1448" on="1"/>
        <pt x="631" y="1448" on="1"/>
        <pt x="635" y="1428" on="0"/>
        <pt x="635" y="1375" on="0"/>
        <pt x="631" y="1355" on="1"/>
        <pt x="611" y="1351" on="0"/>
        <pt x="561" y="1345" on="0"/>
        <pt x="508" y="1340" on="0"/>
        <pt x="458" y="1336" on="0"/>
        <pt x="437" y="1333" on="1"/>
        <pt x="437" y="118" on="1"/>
        <pt x="945" y="118" on="1"/>
        <pt x="1017" y="359" on="1"/>
        <pt x="1045" y="361" on="0"/>
        <pt x="1104" y="357" on="0"/>
        <pt x="1127" y="350" on="1"/>
        <pt x="1126" y="315" on="0"/>
        <pt x="1121" y="224" on="0"/>
        <pt x="1113" y="131" on="0"/>
        <pt x="1105" y="46" on="0"/>
        <pt x="1101" y="16" on="1"/>
        <pt x="1080" y="0" on="1"/>
        <pt x="97" y="0" on="1"/>
      </contour>
      <contour>
        <pt x="841" y="676" on="1"/>
        <pt x="841" y="699" on="0"/>
        <pt x="851" y="739" on="0"/>
        <pt x="876" y="769" on="0"/>
        <pt x="918" y="787" on="0"/>
        <pt x="950" y="787" on="1"/>
        <pt x="982" y="787" on="0"/>
        <pt x="1025" y="769" on="0"/>
        <pt x="1051" y="739" on="0"/>
        <pt x="1062" y="699" on="0"/>
        <pt x="1062" y="676" on="1"/>
        <pt x="1062" y="653" on="0"/>
        <pt x="1051" y="613" on="0"/>
        <pt x="1025" y="584" on="0"/>
        <pt x="982" y="568" on="0"/>
        <pt x="950" y="568" on="1"/>
        <pt x="918" y="568" on="0"/>
        <pt x="876" y="584" on="0"/>
        <pt x="851" y="613" on="0"/>
        <pt x="841" y="653" on="0"/>
      </contour>
    </TTGlyph>
    <TTGlyph name="Lslash" xMin="115" yMin="0" xMax="1179" yMax="1448">
      <contour>
        <pt x="142" y="90" on="1"/>
        <pt x="180" y="104" on="0"/>
        <pt x="268" y="115" on="0"/>
        <pt x="309" y="120" on="1"/>
        <pt x="309" y="546" on="1"/>
        <pt x="142" y="451" on="1"/>
        <pt x="128" y="454" on="1"/>
        <pt x="120" y="489" on="0"/>
        <pt x="115" y="546" on="0"/>
        <pt x="115" y="572" on="1"/>
        <pt x="309" y="672" on="1"/>
        <pt x="309" y="1328" on="1"/>
        <pt x="146" y="1359" on="1"/>
        <pt x="144" y="1372" on="0"/>
        <pt x="146" y="1391" on="0"/>
        <pt x="146" y="1399" on="1"/>
        <pt x="148" y="1416" on="0"/>
        <pt x="152" y="1441" on="0"/>
        <pt x="155" y="1448" on="1"/>
        <pt x="678" y="1448" on="1"/>
        <pt x="687" y="1364" on="1"/>
        <pt x="670" y="1358" on="0"/>
        <pt x="619" y="1348" on="0"/>
        <pt x="564" y="1338" on="0"/>
        <pt x="509" y="1331" on="0"/>
        <pt x="489" y="1328" on="1"/>
        <pt x="489" y="769" on="1"/>
        <pt x="844" y="962" on="1"/>
        <pt x="860" y="959" on="1"/>
        <pt x="869" y="926" on="0"/>
        <pt x="880" y="857" on="0"/>
        <pt x="882" y="834" on="1"/>
        <pt x="489" y="645" on="1"/>
        <pt x="489" y="120" on="1"/>
        <pt x="997" y="120" on="1"/>
        <pt x="1068" y="359" on="1"/>
        <pt x="1097" y="361" on="0"/>
        <pt x="1156" y="357" on="0"/>
        <pt x="1179" y="350" on="1"/>
        <pt x="1178" y="315" on="0"/>
        <pt x="1173" y="224" on="0"/>
        <pt x="1165" y="131" on="0"/>
        <pt x="1157" y="46" on="0"/>
        <pt x="1154" y="16" on="1"/>
        <pt x="1132" y="0" on="1"/>
        <pt x="151" y="0" on="1"/>
      </contour>
    </TTGlyph>
    <TTGlyph name="M" xMin="59" yMin="-6" xMax="1888" yMax="1448">
      <contour>
        <pt x="59" y="99" on="1"/>
        <pt x="68" y="102" on="0"/>
        <pt x="103" y="107" on="0"/>
        <pt x="143" y="112" on="0"/>
        <pt x="181" y="116" on="0"/>
        <pt x="194" y="118" on="1"/>
        <pt x="298" y="1326" on="1"/>
        <pt x="286" y="1326" on="1"/>
        <pt x="245" y="1331" on="0"/>
        <pt x="167" y="1343" on="0"/>
        <pt x="126" y="1351" on="1"/>
        <pt x="123" y="1374" on="0"/>
        <pt x="128" y="1425" on="0"/>
        <pt x="135" y="1448" on="1"/>
        <pt x="560" y="1448" on="1"/>
        <pt x="962" y="205" on="1"/>
        <pt x="995" y="336" on="1"/>
        <pt x="1328" y="1446" on="1"/>
        <pt x="1723" y="1448" on="1"/>
        <pt x="1728" y="1349" on="1"/>
        <pt x="1687" y="1340" on="0"/>
        <pt x="1624" y="1331" on="0"/>
        <pt x="1583" y="1326" on="1"/>
        <pt x="1744" y="115" on="1"/>
        <pt x="1886" y="97" on="1"/>
        <pt x="1889" y="75" on="0"/>
        <pt x="1886" y="22" on="0"/>
        <pt x="1881" y="0" on="1"/>
        <pt x="1389" y="-2" on="1"/>
        <pt x="1385" y="95" on="1"/>
        <pt x="1560" y="113" on="1"/>
        <pt x="1430" y="1103" on="1"/>
        <pt x="1411" y="1319" on="1"/>
        <pt x="1366" y="1101" on="1"/>
        <pt x="1024" y="7" on="1"/>
        <pt x="977" y="-5" on="0"/>
        <pt x="902" y="-7" on="0"/>
        <pt x="855" y="0" on="1"/>
        <pt x="482" y="1127" on="1"/>
        <pt x="430" y="1321" on="1"/>
        <pt x="421" y="1121" on="1"/>
        <pt x="338" y="118" on="1"/>
        <pt x="384" y="114" on="0"/>
        <pt x="469" y="106" on="0"/>
        <pt x="496" y="99" on="1"/>
        <pt x="500" y="72" on="0"/>
        <pt x="495" y="25" on="0"/>
        <pt x="492" y="0" on="1"/>
        <pt x="63" y="0" on="1"/>
      </contour>
    </TTGlyph>
    <TTGlyph name="N" xMin="95" yMin="-25" xMax="1500" yMax="1448">
      <contour>
        <pt x="97" y="90" on="1"/>
        <pt x="136" y="104" on="0"/>
        <pt x="223" y="117" on="0"/>
        <pt x="264" y="122" on="1"/>
        <pt x="264" y="1328" on="1"/>
        <pt x="97" y="1359" on="1"/>
        <pt x="95" y="1364" on="0"/>
        <pt x="95" y="1387" on="0"/>
        <pt x="95" y="1394" on="1"/>
        <pt x="95" y="1409" on="0"/>
        <pt x="103" y="1441" on="0"/>
        <pt x="106" y="1448" on="1"/>
        <pt x="482" y="1448" on="1"/>
        <pt x="554" y="1324" on="1"/>
        <pt x="555" y="1324" on="1"/>
        <pt x="1130" y="324" on="1"/>
        <pt x="1211" y="126" on="1"/>
        <pt x="1196" y="347" on="1"/>
        <pt x="1196" y="1328" on="1"/>
        <pt x="1021" y="1359" on="1"/>
        <pt x="1019" y="1364" on="0"/>
        <pt x="1019" y="1387" on="0"/>
        <pt x="1019" y="1394" on="1"/>
        <pt x="1019" y="1409" on="0"/>
        <pt x="1027" y="1441" on="0"/>
        <pt x="1031" y="1448" on="1"/>
        <pt x="1491" y="1448" on="1"/>
        <pt x="1500" y="1362" on="1"/>
        <pt x="1461" y="1351" on="0"/>
        <pt x="1391" y="1333" on="0"/>
        <pt x="1349" y="1328" on="1"/>
        <pt x="1349" y="0" on="1"/>
        <pt x="1328" y="-8" on="0"/>
        <pt x="1269" y="-19" on="0"/>
        <pt x="1208" y="-25" on="0"/>
        <pt x="1150" y="-25" on="0"/>
        <pt x="1130" y="-21" on="1"/>
        <pt x="1130" y="-18" on="1"/>
        <pt x="475" y="1118" on="1"/>
        <pt x="409" y="1283" on="1"/>
        <pt x="418" y="1111" on="1"/>
        <pt x="418" y="122" on="1"/>
        <pt x="614" y="90" on="1"/>
        <pt x="616" y="85" on="0"/>
        <pt x="617" y="64" on="0"/>
        <pt x="617" y="57" on="1"/>
        <pt x="617" y="43" on="0"/>
        <pt x="608" y="7" on="0"/>
        <pt x="605" y="0" on="1"/>
        <pt x="106" y="0" on="1"/>
      </contour>
    </TTGlyph>
    <TTGlyph name="Nacute" xMin="95" yMin="-25" xMax="1500" yMax="1881">
      <contour>
        <pt x="730" y="1538" on="1"/>
        <pt x="720" y="1547" on="0"/>
        <pt x="694" y="1588" on="0"/>
        <pt x="683" y="1614" on="1"/>
        <pt x="1044" y="1881" on="1"/>
        <pt x="1159" y="1796" on="1"/>
        <pt x="1157" y="1746" on="1"/>
      </contour>
      <contour>
        <pt x="97" y="90" on="1"/>
        <pt x="136" y="104" on="0"/>
        <pt x="223" y="117" on="0"/>
        <pt x="264" y="122" on="1"/>
        <pt x="264" y="1328" on="1"/>
        <pt x="97" y="1359" on="1"/>
        <pt x="95" y="1364" on="0"/>
        <pt x="95" y="1387" on="0"/>
        <pt x="95" y="1394" on="1"/>
        <pt x="95" y="1409" on="0"/>
        <pt x="103" y="1441" on="0"/>
        <pt x="106" y="1448" on="1"/>
        <pt x="482" y="1448" on="1"/>
        <pt x="554" y="1324" on="1"/>
        <pt x="555" y="1324" on="1"/>
        <pt x="1130" y="324" on="1"/>
        <pt x="1211" y="126" on="1"/>
        <pt x="1196" y="347" on="1"/>
        <pt x="1196" y="1328" on="1"/>
        <pt x="1021" y="1359" on="1"/>
        <pt x="1019" y="1364" on="0"/>
        <pt x="1019" y="1387" on="0"/>
        <pt x="1019" y="1394" on="1"/>
        <pt x="1019" y="1409" on="0"/>
        <pt x="1027" y="1441" on="0"/>
        <pt x="1031" y="1448" on="1"/>
        <pt x="1491" y="1448" on="1"/>
        <pt x="1500" y="1362" on="1"/>
        <pt x="1461" y="1351" on="0"/>
        <pt x="1391" y="1333" on="0"/>
        <pt x="1349" y="1328" on="1"/>
        <pt x="1349" y="0" on="1"/>
        <pt x="1328" y="-8" on="0"/>
        <pt x="1269" y="-19" on="0"/>
        <pt x="1208" y="-25" on="0"/>
        <pt x="1150" y="-25" on="0"/>
        <pt x="1130" y="-21" on="1"/>
        <pt x="1130" y="-18" on="1"/>
        <pt x="475" y="1118" on="1"/>
        <pt x="409" y="1283" on="1"/>
        <pt x="418" y="1111" on="1"/>
        <pt x="418" y="122" on="1"/>
        <pt x="614" y="90" on="1"/>
        <pt x="616" y="85" on="0"/>
        <pt x="617" y="64" on="0"/>
        <pt x="617" y="57" on="1"/>
        <pt x="617" y="43" on="0"/>
        <pt x="608" y="7" on="0"/>
        <pt x="605" y="0" on="1"/>
        <pt x="106" y="0" on="1"/>
      </contour>
    </TTGlyph>
    <TTGlyph name="Ntilde" xMin="95" yMin="-25" xMax="1500" yMax="1833">
      <contour>
        <pt x="472" y="1638" on="1"/>
        <pt x="487" y="1670" on="0"/>
        <pt x="548" y="1738" on="0"/>
        <pt x="625" y="1793" on="0"/>
        <pt x="706" y="1827" on="0"/>
        <pt x="740" y="1825" on="1"/>
        <pt x="777" y="1823" on="0"/>
        <pt x="843" y="1788" on="0"/>
        <pt x="901" y="1747" on="0"/>
        <pt x="951" y="1713" on="0"/>
        <pt x="974" y="1713" on="1"/>
        <pt x="996" y="1713" on="0"/>
        <pt x="1043" y="1731" on="0"/>
        <pt x="1090" y="1764" on="0"/>
        <pt x="1135" y="1808" on="0"/>
        <pt x="1155" y="1833" on="1"/>
        <pt x="1214" y="1789" on="1"/>
        <pt x="1192" y="1729" on="0"/>
        <pt x="1125" y="1644" on="0"/>
        <pt x="1050" y="1590" on="0"/>
        <pt x="975" y="1565" on="0"/>
        <pt x="945" y="1565" on="1"/>
        <pt x="912" y="1565" on="0"/>
        <pt x="849" y="1601" on="0"/>
        <pt x="790" y="1644" on="0"/>
        <pt x="734" y="1680" on="0"/>
        <pt x="707" y="1681" on="1"/>
        <pt x="691" y="1682" on="0"/>
        <pt x="644" y="1667" on="0"/>
        <pt x="592" y="1641" on="0"/>
        <pt x="540" y="1605" on="0"/>
        <pt x="518" y="1585" on="1"/>
      </contour>
      <contour>
        <pt x="97" y="90" on="1"/>
        <pt x="136" y="104" on="0"/>
        <pt x="223" y="117" on="0"/>
        <pt x="264" y="122" on="1"/>
        <pt x="264" y="1328" on="1"/>
        <pt x="97" y="1359" on="1"/>
        <pt x="95" y="1364" on="0"/>
        <pt x="95" y="1387" on="0"/>
        <pt x="95" y="1394" on="1"/>
        <pt x="95" y="1409" on="0"/>
        <pt x="103" y="1441" on="0"/>
        <pt x="106" y="1448" on="1"/>
        <pt x="482" y="1448" on="1"/>
        <pt x="554" y="1324" on="1"/>
        <pt x="555" y="1324" on="1"/>
        <pt x="1130" y="324" on="1"/>
        <pt x="1211" y="126" on="1"/>
        <pt x="1196" y="347" on="1"/>
        <pt x="1196" y="1328" on="1"/>
        <pt x="1021" y="1359" on="1"/>
        <pt x="1019" y="1364" on="0"/>
        <pt x="1019" y="1387" on="0"/>
        <pt x="1019" y="1394" on="1"/>
        <pt x="1019" y="1409" on="0"/>
        <pt x="1027" y="1441" on="0"/>
        <pt x="1031" y="1448" on="1"/>
        <pt x="1491" y="1448" on="1"/>
        <pt x="1500" y="1362" on="1"/>
        <pt x="1461" y="1351" on="0"/>
        <pt x="1391" y="1333" on="0"/>
        <pt x="1349" y="1328" on="1"/>
        <pt x="1349" y="0" on="1"/>
        <pt x="1328" y="-8" on="0"/>
        <pt x="1269" y="-19" on="0"/>
        <pt x="1208" y="-25" on="0"/>
        <pt x="1150" y="-25" on="0"/>
        <pt x="1130" y="-21" on="1"/>
        <pt x="1130" y="-18" on="1"/>
        <pt x="475" y="1118" on="1"/>
        <pt x="409" y="1283" on="1"/>
        <pt x="418" y="1111" on="1"/>
        <pt x="418" y="122" on="1"/>
        <pt x="614" y="90" on="1"/>
        <pt x="616" y="85" on="0"/>
        <pt x="617" y="64" on="0"/>
        <pt x="617" y="57" on="1"/>
        <pt x="617" y="43" on="0"/>
        <pt x="608" y="7" on="0"/>
        <pt x="605" y="0" on="1"/>
        <pt x="106" y="0" on="1"/>
      </contour>
    </TTGlyph>
    <TTGlyph name="O" xMin="147" yMin="-40" xMax="1382" yMax="1477">
      <contour>
        <pt x="704" y="-40" on="1"/>
        <pt x="587" y="-40" on="0"/>
        <pt x="413" y="15" on="0"/>
        <pt x="289" y="116" on="0"/>
        <pt x="210" y="255" on="0"/>
        <pt x="164" y="424" on="0"/>
        <pt x="147" y="615" on="0"/>
        <pt x="147" y="717" on="1"/>
        <pt x="147" y="719" on="1"/>
        <pt x="147" y="824" on="0"/>
        <pt x="175" y="1019" on="0"/>
        <pt x="236" y="1187" on="0"/>
        <pt x="334" y="1325" on="0"/>
        <pt x="472" y="1423" on="0"/>
        <pt x="655" y="1477" on="0"/>
        <pt x="771" y="1477" on="1"/>
        <pt x="841" y="1477" on="1"/>
        <pt x="959" y="1477" on="0"/>
        <pt x="1131" y="1424" on="0"/>
        <pt x="1252" y="1327" on="0"/>
        <pt x="1326" y="1191" on="0"/>
        <pt x="1368" y="1024" on="0"/>
        <pt x="1382" y="831" on="0"/>
        <pt x="1382" y="726" on="1"/>
        <pt x="1382" y="713" on="1"/>
        <pt x="1382" y="555" on="0"/>
        <pt x="1316" y="281" on="0"/>
        <pt x="1171" y="77" on="0"/>
        <pt x="940" y="-40" on="0"/>
        <pt x="775" y="-40" on="1"/>
      </contour>
      <contour>
        <pt x="760" y="83" on="1"/>
        <pt x="897" y="83" on="0"/>
        <pt x="1066" y="179" on="0"/>
        <pt x="1159" y="349" on="0"/>
        <pt x="1191" y="582" on="0"/>
        <pt x="1191" y="719" on="1"/>
        <pt x="1191" y="801" on="0"/>
        <pt x="1183" y="959" on="0"/>
        <pt x="1154" y="1100" on="0"/>
        <pt x="1099" y="1218" on="0"/>
        <pt x="1005" y="1303" on="0"/>
        <pt x="865" y="1351" on="0"/>
        <pt x="766" y="1351" on="1"/>
        <pt x="675" y="1351" on="0"/>
        <pt x="541" y="1308" on="0"/>
        <pt x="446" y="1228" on="0"/>
        <pt x="387" y="1114" on="0"/>
        <pt x="353" y="974" on="0"/>
        <pt x="340" y="810" on="0"/>
        <pt x="340" y="719" on="1"/>
        <pt x="340" y="641" on="0"/>
        <pt x="349" y="487" on="0"/>
        <pt x="378" y="346" on="0"/>
        <pt x="434" y="224" on="0"/>
        <pt x="527" y="134" on="0"/>
        <pt x="664" y="83" on="0"/>
      </contour>
    </TTGlyph>
    <TTGlyph name="OE" xMin="147" yMin="-40" xMax="1924" yMax="1477">
      <contour>
        <pt x="730" y="-40" on="1"/>
        <pt x="556" y="-40" on="0"/>
        <pt x="331" y="60" on="0"/>
        <pt x="199" y="253" on="0"/>
        <pt x="147" y="535" on="0"/>
        <pt x="147" y="717" on="1"/>
        <pt x="147" y="719" on="1"/>
        <pt x="147" y="889" on="0"/>
        <pt x="222" y="1164" on="0"/>
        <pt x="378" y="1361" on="0"/>
        <pt x="617" y="1472" on="0"/>
        <pt x="782" y="1477" on="1"/>
        <pt x="871" y="1477" on="0"/>
        <pt x="980" y="1458" on="0"/>
        <pt x="1014" y="1448" on="1"/>
        <pt x="1853" y="1448" on="1"/>
        <pt x="1867" y="1432" on="1"/>
        <pt x="1868" y="1394" on="0"/>
        <pt x="1859" y="1295" on="0"/>
        <pt x="1847" y="1197" on="0"/>
        <pt x="1832" y="1114" on="0"/>
        <pt x="1827" y="1092" on="1"/>
        <pt x="1804" y="1087" on="0"/>
        <pt x="1747" y="1088" on="0"/>
        <pt x="1718" y="1092" on="1"/>
        <pt x="1700" y="1331" on="1"/>
        <pt x="1175" y="1331" on="1"/>
        <pt x="1175" y="808" on="1"/>
        <pt x="1673" y="814" on="1"/>
        <pt x="1678" y="785" on="0"/>
        <pt x="1671" y="711" on="0"/>
        <pt x="1666" y="679" on="1"/>
        <pt x="1175" y="690" on="1"/>
        <pt x="1175" y="130" on="1"/>
        <pt x="1179" y="130" on="1"/>
        <pt x="1179" y="120" on="1"/>
        <pt x="1746" y="120" on="1"/>
        <pt x="1813" y="343" on="1"/>
        <pt x="1842" y="345" on="0"/>
        <pt x="1901" y="341" on="0"/>
        <pt x="1924" y="334" on="1"/>
        <pt x="1923" y="299" on="0"/>
        <pt x="1917" y="213" on="0"/>
        <pt x="1910" y="126" on="0"/>
        <pt x="1902" y="46" on="0"/>
        <pt x="1898" y="16" on="1"/>
        <pt x="1876" y="0" on="1"/>
        <pt x="1014" y="0" on="1"/>
        <pt x="962" y="-17" on="0"/>
        <pt x="847" y="-38" on="0"/>
        <pt x="782" y="-40" on="1"/>
      </contour>
      <contour>
        <pt x="782" y="83" on="1"/>
        <pt x="846" y="85" on="0"/>
        <pt x="950" y="105" on="0"/>
        <pt x="995" y="127" on="1"/>
        <pt x="995" y="1311" on="1"/>
        <pt x="950" y="1329" on="0"/>
        <pt x="846" y="1352" on="0"/>
        <pt x="782" y="1355" on="1"/>
        <pt x="654" y="1350" on="0"/>
        <pt x="483" y="1266" on="0"/>
        <pt x="381" y="1108" on="0"/>
        <pt x="338" y="874" on="0"/>
        <pt x="338" y="719" on="1"/>
        <pt x="338" y="626" on="0"/>
        <pt x="351" y="461" on="0"/>
        <pt x="387" y="321" on="0"/>
        <pt x="450" y="209" on="0"/>
        <pt x="548" y="130" on="0"/>
        <pt x="687" y="85" on="0"/>
      </contour>
    </TTGlyph>
    <TTGlyph name="Oacute" xMin="147" yMin="-40" xMax="1382" yMax="1881">
      <contour>
        <pt x="665" y="1538" on="1"/>
        <pt x="655" y="1547" on="0"/>
        <pt x="629" y="1588" on="0"/>
        <pt x="618" y="1614" on="1"/>
        <pt x="979" y="1881" on="1"/>
        <pt x="1094" y="1796" on="1"/>
        <pt x="1092" y="1746" on="1"/>
      </contour>
      <contour>
        <pt x="704" y="-40" on="1"/>
        <pt x="587" y="-40" on="0"/>
        <pt x="413" y="15" on="0"/>
        <pt x="289" y="116" on="0"/>
        <pt x="210" y="255" on="0"/>
        <pt x="164" y="424" on="0"/>
        <pt x="147" y="615" on="0"/>
        <pt x="147" y="717" on="1"/>
        <pt x="147" y="719" on="1"/>
        <pt x="147" y="824" on="0"/>
        <pt x="175" y="1019" on="0"/>
        <pt x="236" y="1187" on="0"/>
        <pt x="334" y="1325" on="0"/>
        <pt x="472" y="1423" on="0"/>
        <pt x="655" y="1477" on="0"/>
        <pt x="771" y="1477" on="1"/>
        <pt x="841" y="1477" on="1"/>
        <pt x="959" y="1477" on="0"/>
        <pt x="1131" y="1424" on="0"/>
        <pt x="1252" y="1327" on="0"/>
        <pt x="1326" y="1191" on="0"/>
        <pt x="1368" y="1024" on="0"/>
        <pt x="1382" y="831" on="0"/>
        <pt x="1382" y="726" on="1"/>
        <pt x="1382" y="713" on="1"/>
        <pt x="1382" y="555" on="0"/>
        <pt x="1316" y="281" on="0"/>
        <pt x="1171" y="77" on="0"/>
        <pt x="940" y="-40" on="0"/>
        <pt x="775" y="-40" on="1"/>
      </contour>
      <contour>
        <pt x="760" y="83" on="1"/>
        <pt x="897" y="83" on="0"/>
        <pt x="1066" y="179" on="0"/>
        <pt x="1159" y="349" on="0"/>
        <pt x="1191" y="582" on="0"/>
        <pt x="1191" y="719" on="1"/>
        <pt x="1191" y="801" on="0"/>
        <pt x="1183" y="959" on="0"/>
        <pt x="1154" y="1100" on="0"/>
        <pt x="1099" y="1218" on="0"/>
        <pt x="1005" y="1303" on="0"/>
        <pt x="865" y="1351" on="0"/>
        <pt x="766" y="1351" on="1"/>
        <pt x="675" y="1351" on="0"/>
        <pt x="541" y="1308" on="0"/>
        <pt x="446" y="1228" on="0"/>
        <pt x="387" y="1114" on="0"/>
        <pt x="353" y="974" on="0"/>
        <pt x="340" y="810" on="0"/>
        <pt x="340" y="719" on="1"/>
        <pt x="340" y="641" on="0"/>
        <pt x="349" y="487" on="0"/>
        <pt x="378" y="346" on="0"/>
        <pt x="434" y="224" on="0"/>
        <pt x="527" y="134" on="0"/>
        <pt x="664" y="83" on="0"/>
      </contour>
    </TTGlyph>
    <TTGlyph name="Ocircumflex" xMin="147" yMin="-40" xMax="1382" yMax="1863">
      <contour>
        <pt x="532" y="1531" on="1"/>
        <pt x="525" y="1535" on="0"/>
        <pt x="507" y="1549" on="0"/>
        <pt x="490" y="1567" on="0"/>
        <pt x="476" y="1588" on="0"/>
        <pt x="473" y="1597" on="1"/>
        <pt x="719" y="1863" on="1"/>
        <pt x="820" y="1863" on="1"/>
        <pt x="1066" y="1603" on="1"/>
        <pt x="1055" y="1580" on="0"/>
        <pt x="1014" y="1539" on="0"/>
        <pt x="998" y="1531" on="1"/>
        <pt x="764" y="1714" on="1"/>
      </contour>
      <contour>
        <pt x="704" y="-40" on="1"/>
        <pt x="587" y="-40" on="0"/>
        <pt x="413" y="15" on="0"/>
        <pt x="289" y="116" on="0"/>
        <pt x="210" y="255" on="0"/>
        <pt x="164" y="424" on="0"/>
        <pt x="147" y="615" on="0"/>
        <pt x="147" y="717" on="1"/>
        <pt x="147" y="719" on="1"/>
        <pt x="147" y="824" on="0"/>
        <pt x="175" y="1019" on="0"/>
        <pt x="236" y="1187" on="0"/>
        <pt x="334" y="1325" on="0"/>
        <pt x="472" y="1423" on="0"/>
        <pt x="655" y="1477" on="0"/>
        <pt x="771" y="1477" on="1"/>
        <pt x="841" y="1477" on="1"/>
        <pt x="959" y="1477" on="0"/>
        <pt x="1131" y="1424" on="0"/>
        <pt x="1252" y="1327" on="0"/>
        <pt x="1326" y="1191" on="0"/>
        <pt x="1368" y="1024" on="0"/>
        <pt x="1382" y="831" on="0"/>
        <pt x="1382" y="726" on="1"/>
        <pt x="1382" y="713" on="1"/>
        <pt x="1382" y="555" on="0"/>
        <pt x="1316" y="281" on="0"/>
        <pt x="1171" y="77" on="0"/>
        <pt x="940" y="-40" on="0"/>
        <pt x="775" y="-40" on="1"/>
      </contour>
      <contour>
        <pt x="760" y="83" on="1"/>
        <pt x="897" y="83" on="0"/>
        <pt x="1066" y="179" on="0"/>
        <pt x="1159" y="349" on="0"/>
        <pt x="1191" y="582" on="0"/>
        <pt x="1191" y="719" on="1"/>
        <pt x="1191" y="801" on="0"/>
        <pt x="1183" y="959" on="0"/>
        <pt x="1154" y="1100" on="0"/>
        <pt x="1099" y="1218" on="0"/>
        <pt x="1005" y="1303" on="0"/>
        <pt x="865" y="1351" on="0"/>
        <pt x="766" y="1351" on="1"/>
        <pt x="675" y="1351" on="0"/>
        <pt x="541" y="1308" on="0"/>
        <pt x="446" y="1228" on="0"/>
        <pt x="387" y="1114" on="0"/>
        <pt x="353" y="974" on="0"/>
        <pt x="340" y="810" on="0"/>
        <pt x="340" y="719" on="1"/>
        <pt x="340" y="641" on="0"/>
        <pt x="349" y="487" on="0"/>
        <pt x="378" y="346" on="0"/>
        <pt x="434" y="224" on="0"/>
        <pt x="527" y="134" on="0"/>
        <pt x="664" y="83" on="0"/>
      </contour>
    </TTGlyph>
    <TTGlyph name="Odieresis" xMin="147" yMin="-40" xMax="1382" yMax="1801">
      <contour>
        <pt x="981" y="1590" on="1"/>
        <pt x="948" y="1590" on="0"/>
        <pt x="906" y="1607" on="0"/>
        <pt x="882" y="1635" on="0"/>
        <pt x="872" y="1673" on="0"/>
        <pt x="872" y="1694" on="1"/>
        <pt x="872" y="1716" on="0"/>
        <pt x="882" y="1755" on="0"/>
        <pt x="906" y="1784" on="0"/>
        <pt x="948" y="1801" on="0"/>
        <pt x="981" y="1801" on="1"/>
        <pt x="1043" y="1801" on="0"/>
        <pt x="1088" y="1744" on="0"/>
        <pt x="1088" y="1694" on="1"/>
        <pt x="1088" y="1673" on="0"/>
        <pt x="1078" y="1635" on="0"/>
        <pt x="1053" y="1607" on="0"/>
        <pt x="1012" y="1590" on="0"/>
      </contour>
      <contour>
        <pt x="557" y="1590" on="1"/>
        <pt x="527" y="1590" on="0"/>
        <pt x="487" y="1607" on="0"/>
        <pt x="463" y="1635" on="0"/>
        <pt x="453" y="1673" on="0"/>
        <pt x="453" y="1694" on="1"/>
        <pt x="453" y="1716" on="0"/>
        <pt x="463" y="1755" on="0"/>
        <pt x="487" y="1784" on="0"/>
        <pt x="527" y="1801" on="0"/>
        <pt x="557" y="1801" on="1"/>
        <pt x="619" y="1801" on="0"/>
        <pt x="669" y="1744" on="0"/>
        <pt x="669" y="1694" on="1"/>
        <pt x="669" y="1673" on="0"/>
        <pt x="657" y="1635" on="0"/>
        <pt x="631" y="1607" on="0"/>
        <pt x="588" y="1590" on="0"/>
      </contour>
      <contour>
        <pt x="704" y="-40" on="1"/>
        <pt x="587" y="-40" on="0"/>
        <pt x="413" y="15" on="0"/>
        <pt x="289" y="116" on="0"/>
        <pt x="210" y="255" on="0"/>
        <pt x="164" y="424" on="0"/>
        <pt x="147" y="615" on="0"/>
        <pt x="147" y="717" on="1"/>
        <pt x="147" y="719" on="1"/>
        <pt x="147" y="824" on="0"/>
        <pt x="175" y="1019" on="0"/>
        <pt x="236" y="1187" on="0"/>
        <pt x="334" y="1325" on="0"/>
        <pt x="472" y="1423" on="0"/>
        <pt x="655" y="1477" on="0"/>
        <pt x="771" y="1477" on="1"/>
        <pt x="841" y="1477" on="1"/>
        <pt x="959" y="1477" on="0"/>
        <pt x="1131" y="1424" on="0"/>
        <pt x="1252" y="1327" on="0"/>
        <pt x="1326" y="1191" on="0"/>
        <pt x="1368" y="1024" on="0"/>
        <pt x="1382" y="831" on="0"/>
        <pt x="1382" y="726" on="1"/>
        <pt x="1382" y="713" on="1"/>
        <pt x="1382" y="555" on="0"/>
        <pt x="1316" y="281" on="0"/>
        <pt x="1171" y="77" on="0"/>
        <pt x="940" y="-40" on="0"/>
        <pt x="775" y="-40" on="1"/>
      </contour>
      <contour>
        <pt x="760" y="83" on="1"/>
        <pt x="897" y="83" on="0"/>
        <pt x="1066" y="179" on="0"/>
        <pt x="1159" y="349" on="0"/>
        <pt x="1191" y="582" on="0"/>
        <pt x="1191" y="719" on="1"/>
        <pt x="1191" y="801" on="0"/>
        <pt x="1183" y="959" on="0"/>
        <pt x="1154" y="1100" on="0"/>
        <pt x="1099" y="1218" on="0"/>
        <pt x="1005" y="1303" on="0"/>
        <pt x="865" y="1351" on="0"/>
        <pt x="766" y="1351" on="1"/>
        <pt x="675" y="1351" on="0"/>
        <pt x="541" y="1308" on="0"/>
        <pt x="446" y="1228" on="0"/>
        <pt x="387" y="1114" on="0"/>
        <pt x="353" y="974" on="0"/>
        <pt x="340" y="810" on="0"/>
        <pt x="340" y="719" on="1"/>
        <pt x="340" y="641" on="0"/>
        <pt x="349" y="487" on="0"/>
        <pt x="378" y="346" on="0"/>
        <pt x="434" y="224" on="0"/>
        <pt x="527" y="134" on="0"/>
        <pt x="664" y="83" on="0"/>
      </contour>
    </TTGlyph>
    <TTGlyph name="Ograve" xMin="147" yMin="-40" xMax="1382" yMax="1881">
      <contour>
        <pt x="485" y="1741" on="1"/>
        <pt x="483" y="1791" on="1"/>
        <pt x="598" y="1881" on="1"/>
        <pt x="955" y="1617" on="1"/>
        <pt x="946" y="1590" on="0"/>
        <pt x="927" y="1556" on="0"/>
        <pt x="914" y="1536" on="1"/>
      </contour>
      <contour>
        <pt x="704" y="-40" on="1"/>
        <pt x="587" y="-40" on="0"/>
        <pt x="413" y="15" on="0"/>
        <pt x="289" y="116" on="0"/>
        <pt x="210" y="255" on="0"/>
        <pt x="164" y="424" on="0"/>
        <pt x="147" y="615" on="0"/>
        <pt x="147" y="717" on="1"/>
        <pt x="147" y="719" on="1"/>
        <pt x="147" y="824" on="0"/>
        <pt x="175" y="1019" on="0"/>
        <pt x="236" y="1187" on="0"/>
        <pt x="334" y="1325" on="0"/>
        <pt x="472" y="1423" on="0"/>
        <pt x="655" y="1477" on="0"/>
        <pt x="771" y="1477" on="1"/>
        <pt x="841" y="1477" on="1"/>
        <pt x="959" y="1477" on="0"/>
        <pt x="1131" y="1424" on="0"/>
        <pt x="1252" y="1327" on="0"/>
        <pt x="1326" y="1191" on="0"/>
        <pt x="1368" y="1024" on="0"/>
        <pt x="1382" y="831" on="0"/>
        <pt x="1382" y="726" on="1"/>
        <pt x="1382" y="713" on="1"/>
        <pt x="1382" y="555" on="0"/>
        <pt x="1316" y="281" on="0"/>
        <pt x="1171" y="77" on="0"/>
        <pt x="940" y="-40" on="0"/>
        <pt x="775" y="-40" on="1"/>
      </contour>
      <contour>
        <pt x="760" y="83" on="1"/>
        <pt x="897" y="83" on="0"/>
        <pt x="1066" y="179" on="0"/>
        <pt x="1159" y="349" on="0"/>
        <pt x="1191" y="582" on="0"/>
        <pt x="1191" y="719" on="1"/>
        <pt x="1191" y="801" on="0"/>
        <pt x="1183" y="959" on="0"/>
        <pt x="1154" y="1100" on="0"/>
        <pt x="1099" y="1218" on="0"/>
        <pt x="1005" y="1303" on="0"/>
        <pt x="865" y="1351" on="0"/>
        <pt x="766" y="1351" on="1"/>
        <pt x="675" y="1351" on="0"/>
        <pt x="541" y="1308" on="0"/>
        <pt x="446" y="1228" on="0"/>
        <pt x="387" y="1114" on="0"/>
        <pt x="353" y="974" on="0"/>
        <pt x="340" y="810" on="0"/>
        <pt x="340" y="719" on="1"/>
        <pt x="340" y="641" on="0"/>
        <pt x="349" y="487" on="0"/>
        <pt x="378" y="346" on="0"/>
        <pt x="434" y="224" on="0"/>
        <pt x="527" y="134" on="0"/>
        <pt x="664" y="83" on="0"/>
      </contour>
    </TTGlyph>
    <TTGlyph name="Oslash" xMin="147" yMin="-192" xMax="1382" yMax="1619">
      <contour>
        <pt x="401" y="31" on="1"/>
        <pt x="323" y="77" on="0"/>
        <pt x="224" y="219" on="0"/>
        <pt x="168" y="397" on="0"/>
        <pt x="147" y="605" on="0"/>
        <pt x="147" y="717" on="1"/>
        <pt x="147" y="719" on="1"/>
        <pt x="147" y="824" on="0"/>
        <pt x="175" y="1019" on="0"/>
        <pt x="236" y="1187" on="0"/>
        <pt x="334" y="1325" on="0"/>
        <pt x="472" y="1423" on="0"/>
        <pt x="655" y="1477" on="0"/>
        <pt x="771" y="1477" on="1"/>
        <pt x="841" y="1477" on="1"/>
        <pt x="947" y="1477" on="0"/>
        <pt x="1031" y="1454" on="1"/>
        <pt x="1104" y="1619" on="1"/>
        <pt x="1133" y="1614" on="0"/>
        <pt x="1182" y="1591" on="0"/>
        <pt x="1205" y="1574" on="1"/>
        <pt x="1134" y="1414" on="1"/>
        <pt x="1213" y="1370" on="0"/>
        <pt x="1310" y="1232" on="0"/>
        <pt x="1364" y="1054" on="0"/>
        <pt x="1382" y="842" on="0"/>
        <pt x="1382" y="726" on="1"/>
        <pt x="1382" y="713" on="1"/>
        <pt x="1382" y="555" on="0"/>
        <pt x="1316" y="281" on="0"/>
        <pt x="1171" y="77" on="0"/>
        <pt x="940" y="-40" on="0"/>
        <pt x="775" y="-40" on="1"/>
        <pt x="704" y="-40" on="1"/>
        <pt x="645" y="-40" on="0"/>
        <pt x="545" y="-26" on="0"/>
        <pt x="500" y="-12" on="1"/>
        <pt x="421" y="-192" on="1"/>
        <pt x="322" y="-147" on="1"/>
      </contour>
      <contour>
        <pt x="969" y="1314" on="1"/>
        <pt x="928" y="1332" on="0"/>
        <pt x="828" y="1351" on="0"/>
        <pt x="766" y="1351" on="1"/>
        <pt x="675" y="1351" on="0"/>
        <pt x="541" y="1308" on="0"/>
        <pt x="446" y="1228" on="0"/>
        <pt x="387" y="1114" on="0"/>
        <pt x="353" y="974" on="0"/>
        <pt x="340" y="810" on="0"/>
        <pt x="340" y="719" on="1"/>
        <pt x="340" y="644" on="0"/>
        <pt x="348" y="493" on="0"/>
        <pt x="376" y="354" on="0"/>
        <pt x="427" y="233" on="0"/>
        <pt x="471" y="188" on="1"/>
      </contour>
      <contour>
        <pt x="561" y="123" on="1"/>
        <pt x="601" y="104" on="0"/>
        <pt x="699" y="83" on="0"/>
        <pt x="760" y="83" on="1"/>
        <pt x="897" y="83" on="0"/>
        <pt x="1066" y="179" on="0"/>
        <pt x="1159" y="349" on="0"/>
        <pt x="1191" y="582" on="0"/>
        <pt x="1191" y="719" on="1"/>
        <pt x="1191" y="799" on="0"/>
        <pt x="1183" y="953" on="0"/>
        <pt x="1156" y="1091" on="0"/>
        <pt x="1105" y="1207" on="0"/>
        <pt x="1061" y="1251" on="1"/>
      </contour>
    </TTGlyph>
    <TTGlyph name="Otilde" xMin="147" yMin="-40" xMax="1382" yMax="1833">
      <contour>
        <pt x="415" y="1638" on="1"/>
        <pt x="430" y="1670" on="0"/>
        <pt x="491" y="1738" on="0"/>
        <pt x="568" y="1793" on="0"/>
        <pt x="649" y="1827" on="0"/>
        <pt x="683" y="1825" on="1"/>
        <pt x="720" y="1823" on="0"/>
        <pt x="786" y="1788" on="0"/>
        <pt x="844" y="1747" on="0"/>
        <pt x="894" y="1713" on="0"/>
        <pt x="917" y="1713" on="1"/>
        <pt x="939" y="1713" on="0"/>
        <pt x="986" y="1731" on="0"/>
        <pt x="1033" y="1764" on="0"/>
        <pt x="1078" y="1808" on="0"/>
        <pt x="1098" y="1833" on="1"/>
        <pt x="1157" y="1789" on="1"/>
        <pt x="1135" y="1729" on="0"/>
        <pt x="1068" y="1644" on="0"/>
        <pt x="993" y="1590" on="0"/>
        <pt x="918" y="1565" on="0"/>
        <pt x="888" y="1565" on="1"/>
        <pt x="855" y="1565" on="0"/>
        <pt x="792" y="1601" on="0"/>
        <pt x="733" y="1644" on="0"/>
        <pt x="677" y="1680" on="0"/>
        <pt x="650" y="1681" on="1"/>
        <pt x="634" y="1682" on="0"/>
        <pt x="587" y="1667" on="0"/>
        <pt x="535" y="1641" on="0"/>
        <pt x="483" y="1605" on="0"/>
        <pt x="461" y="1585" on="1"/>
      </contour>
      <contour>
        <pt x="704" y="-40" on="1"/>
        <pt x="587" y="-40" on="0"/>
        <pt x="413" y="15" on="0"/>
        <pt x="289" y="116" on="0"/>
        <pt x="210" y="255" on="0"/>
        <pt x="164" y="424" on="0"/>
        <pt x="147" y="615" on="0"/>
        <pt x="147" y="717" on="1"/>
        <pt x="147" y="719" on="1"/>
        <pt x="147" y="824" on="0"/>
        <pt x="175" y="1019" on="0"/>
        <pt x="236" y="1187" on="0"/>
        <pt x="334" y="1325" on="0"/>
        <pt x="472" y="1423" on="0"/>
        <pt x="655" y="1477" on="0"/>
        <pt x="771" y="1477" on="1"/>
        <pt x="841" y="1477" on="1"/>
        <pt x="959" y="1477" on="0"/>
        <pt x="1131" y="1424" on="0"/>
        <pt x="1252" y="1327" on="0"/>
        <pt x="1326" y="1191" on="0"/>
        <pt x="1368" y="1024" on="0"/>
        <pt x="1382" y="831" on="0"/>
        <pt x="1382" y="726" on="1"/>
        <pt x="1382" y="713" on="1"/>
        <pt x="1382" y="555" on="0"/>
        <pt x="1316" y="281" on="0"/>
        <pt x="1171" y="77" on="0"/>
        <pt x="940" y="-40" on="0"/>
        <pt x="775" y="-40" on="1"/>
      </contour>
      <contour>
        <pt x="760" y="83" on="1"/>
        <pt x="897" y="83" on="0"/>
        <pt x="1066" y="179" on="0"/>
        <pt x="1159" y="349" on="0"/>
        <pt x="1191" y="582" on="0"/>
        <pt x="1191" y="719" on="1"/>
        <pt x="1191" y="801" on="0"/>
        <pt x="1183" y="959" on="0"/>
        <pt x="1154" y="1100" on="0"/>
        <pt x="1099" y="1218" on="0"/>
        <pt x="1005" y="1303" on="0"/>
        <pt x="865" y="1351" on="0"/>
        <pt x="766" y="1351" on="1"/>
        <pt x="675" y="1351" on="0"/>
        <pt x="541" y="1308" on="0"/>
        <pt x="446" y="1228" on="0"/>
        <pt x="387" y="1114" on="0"/>
        <pt x="353" y="974" on="0"/>
        <pt x="340" y="810" on="0"/>
        <pt x="340" y="719" on="1"/>
        <pt x="340" y="641" on="0"/>
        <pt x="349" y="487" on="0"/>
        <pt x="378" y="346" on="0"/>
        <pt x="434" y="224" on="0"/>
        <pt x="527" y="134" on="0"/>
        <pt x="664" y="83" on="0"/>
      </contour>
    </TTGlyph>
    <TTGlyph name="P" xMin="102" yMin="0" xMax="1208" yMax="1448">
      <contour>
        <pt x="102" y="97" on="1"/>
        <pt x="143" y="105" on="0"/>
        <pt x="228" y="113" on="0"/>
        <pt x="269" y="118" on="1"/>
        <pt x="269" y="1333" on="1"/>
        <pt x="228" y="1338" on="0"/>
        <pt x="150" y="1350" on="0"/>
        <pt x="108" y="1359" on="1"/>
        <pt x="106" y="1382" on="0"/>
        <pt x="113" y="1425" on="0"/>
        <pt x="120" y="1448" on="1"/>
        <pt x="717" y="1448" on="1"/>
        <pt x="838" y="1448" on="0"/>
        <pt x="1022" y="1405" on="0"/>
        <pt x="1145" y="1303" on="0"/>
        <pt x="1208" y="1133" on="0"/>
        <pt x="1208" y="1006" on="1"/>
        <pt x="1208" y="879" on="0"/>
        <pt x="1157" y="689" on="0"/>
        <pt x="1039" y="563" on="0"/>
        <pt x="842" y="501" on="0"/>
        <pt x="697" y="501" on="1"/>
        <pt x="637" y="501" on="0"/>
        <pt x="522" y="514" on="0"/>
        <pt x="449" y="525" on="1"/>
        <pt x="449" y="118" on="1"/>
        <pt x="469" y="115" on="0"/>
        <pt x="532" y="109" on="0"/>
        <pt x="600" y="103" on="0"/>
        <pt x="663" y="96" on="0"/>
        <pt x="683" y="92" on="1"/>
        <pt x="691" y="46" on="0"/>
        <pt x="683" y="0" on="1"/>
        <pt x="108" y="0" on="1"/>
      </contour>
      <contour>
        <pt x="607" y="622" on="1"/>
        <pt x="737" y="614" on="0"/>
        <pt x="898" y="663" on="0"/>
        <pt x="988" y="768" on="0"/>
        <pt x="1019" y="925" on="0"/>
        <pt x="1019" y="1026" on="1"/>
        <pt x="1019" y="1104" on="0"/>
        <pt x="992" y="1221" on="0"/>
        <pt x="901" y="1299" on="0"/>
        <pt x="726" y="1336" on="0"/>
        <pt x="579" y="1333" on="1"/>
        <pt x="449" y="1331" on="1"/>
        <pt x="449" y="631" on="1"/>
      </contour>
    </TTGlyph>
    <TTGlyph name="Q" xMin="147" yMin="-449" xMax="1392" yMax="1477">
      <contour>
        <pt x="704" y="-40" on="1"/>
        <pt x="587" y="-40" on="0"/>
        <pt x="413" y="15" on="0"/>
        <pt x="289" y="116" on="0"/>
        <pt x="210" y="255" on="0"/>
        <pt x="164" y="424" on="0"/>
        <pt x="147" y="615" on="0"/>
        <pt x="147" y="717" on="1"/>
        <pt x="147" y="719" on="1"/>
        <pt x="147" y="824" on="0"/>
        <pt x="175" y="1019" on="0"/>
        <pt x="236" y="1187" on="0"/>
        <pt x="334" y="1325" on="0"/>
        <pt x="472" y="1423" on="0"/>
        <pt x="655" y="1477" on="0"/>
        <pt x="771" y="1477" on="1"/>
        <pt x="841" y="1477" on="1"/>
        <pt x="959" y="1477" on="0"/>
        <pt x="1131" y="1424" on="0"/>
        <pt x="1252" y="1327" on="0"/>
        <pt x="1326" y="1191" on="0"/>
        <pt x="1368" y="1024" on="0"/>
        <pt x="1382" y="831" on="0"/>
        <pt x="1382" y="726" on="1"/>
        <pt x="1382" y="713" on="1"/>
        <pt x="1382" y="566" on="0"/>
        <pt x="1325" y="307" on="0"/>
        <pt x="1199" y="107" on="0"/>
        <pt x="1000" y="-20" on="0"/>
        <pt x="859" y="-35" on="1"/>
        <pt x="908" y="-127" on="0"/>
        <pt x="988" y="-232" on="0"/>
        <pt x="1068" y="-285" on="0"/>
        <pt x="1156" y="-298" on="0"/>
        <pt x="1213" y="-298" on="1"/>
        <pt x="1264" y="-298" on="0"/>
        <pt x="1346" y="-290" on="0"/>
        <pt x="1366" y="-286" on="1"/>
        <pt x="1392" y="-383" on="1"/>
        <pt x="1370" y="-396" on="0"/>
        <pt x="1305" y="-420" on="0"/>
        <pt x="1232" y="-438" on="0"/>
        <pt x="1157" y="-449" on="0"/>
        <pt x="1125" y="-449" on="1"/>
        <pt x="1053" y="-449" on="0"/>
        <pt x="947" y="-413" on="0"/>
        <pt x="869" y="-351" on="0"/>
        <pt x="814" y="-269" on="0"/>
        <pt x="772" y="-178" on="0"/>
        <pt x="739" y="-84" on="0"/>
        <pt x="723" y="-40" on="1"/>
      </contour>
      <contour>
        <pt x="760" y="83" on="1"/>
        <pt x="897" y="83" on="0"/>
        <pt x="1066" y="179" on="0"/>
        <pt x="1159" y="349" on="0"/>
        <pt x="1191" y="582" on="0"/>
        <pt x="1191" y="719" on="1"/>
        <pt x="1191" y="801" on="0"/>
        <pt x="1183" y="959" on="0"/>
        <pt x="1154" y="1100" on="0"/>
        <pt x="1099" y="1218" on="0"/>
        <pt x="1005" y="1303" on="0"/>
        <pt x="865" y="1351" on="0"/>
        <pt x="766" y="1351" on="1"/>
        <pt x="675" y="1351" on="0"/>
        <pt x="541" y="1308" on="0"/>
        <pt x="446" y="1228" on="0"/>
        <pt x="387" y="1114" on="0"/>
        <pt x="353" y="974" on="0"/>
        <pt x="340" y="810" on="0"/>
        <pt x="340" y="719" on="1"/>
        <pt x="340" y="641" on="0"/>
        <pt x="349" y="487" on="0"/>
        <pt x="378" y="346" on="0"/>
        <pt x="434" y="224" on="0"/>
        <pt x="527" y="134" on="0"/>
        <pt x="664" y="83" on="0"/>
      </contour>
    </TTGlyph>
    <TTGlyph name="R" xMin="102" yMin="0" xMax="1305" yMax="1448">
      <contour>
        <pt x="102" y="88" on="1"/>
        <pt x="140" y="102" on="0"/>
        <pt x="228" y="115" on="0"/>
        <pt x="269" y="120" on="1"/>
        <pt x="269" y="1333" on="1"/>
        <pt x="228" y="1338" on="0"/>
        <pt x="150" y="1350" on="0"/>
        <pt x="108" y="1359" on="1"/>
        <pt x="106" y="1382" on="0"/>
        <pt x="113" y="1425" on="0"/>
        <pt x="120" y="1448" on="1"/>
        <pt x="681" y="1448" on="1"/>
        <pt x="811" y="1448" on="0"/>
        <pt x="995" y="1410" on="0"/>
        <pt x="1112" y="1318" on="0"/>
        <pt x="1166" y="1163" on="0"/>
        <pt x="1166" y="1047" on="1"/>
        <pt x="1166" y="975" on="0"/>
        <pt x="1136" y="826" on="0"/>
        <pt x="1063" y="698" on="0"/>
        <pt x="941" y="601" on="0"/>
        <pt x="850" y="582" on="1"/>
        <pt x="1153" y="118" on="1"/>
        <pt x="1304" y="92" on="1"/>
        <pt x="1305" y="91" on="0"/>
        <pt x="1305" y="71" on="0"/>
        <pt x="1302" y="43" on="0"/>
        <pt x="1296" y="12" on="0"/>
        <pt x="1292" y="0" on="1"/>
        <pt x="1004" y="0" on="1"/>
        <pt x="681" y="557" on="1"/>
        <pt x="643" y="557" on="1"/>
        <pt x="613" y="557" on="0"/>
        <pt x="572" y="557" on="0"/>
        <pt x="532" y="559" on="0"/>
        <pt x="485" y="561" on="0"/>
        <pt x="449" y="564" on="1"/>
        <pt x="449" y="120" on="1"/>
        <pt x="609" y="88" on="1"/>
        <pt x="611" y="83" on="0"/>
        <pt x="612" y="61" on="0"/>
        <pt x="612" y="54" on="1"/>
        <pt x="612" y="40" on="0"/>
        <pt x="604" y="7" on="0"/>
        <pt x="600" y="0" on="1"/>
        <pt x="111" y="0" on="1"/>
      </contour>
      <contour>
        <pt x="607" y="669" on="1"/>
        <pt x="712" y="669" on="0"/>
        <pt x="854" y="716" on="0"/>
        <pt x="941" y="811" on="0"/>
        <pt x="979" y="956" on="0"/>
        <pt x="979" y="1054" on="1"/>
        <pt x="979" y="1120" on="0"/>
        <pt x="949" y="1226" on="0"/>
        <pt x="875" y="1300" on="0"/>
        <pt x="748" y="1338" on="0"/>
        <pt x="652" y="1335" on="1"/>
        <pt x="449" y="1331" on="1"/>
        <pt x="449" y="669" on="1"/>
      </contour>
    </TTGlyph>
    <TTGlyph name="Racute" xMin="149" yMin="0" xMax="1352" yMax="1881">
      <contour>
        <pt x="552" y="1538" on="1"/>
        <pt x="542" y="1547" on="0"/>
        <pt x="516" y="1588" on="0"/>
        <pt x="505" y="1614" on="1"/>
        <pt x="866" y="1881" on="1"/>
        <pt x="981" y="1796" on="1"/>
        <pt x="979" y="1746" on="1"/>
      </contour>
      <contour>
        <pt x="149" y="88" on="1"/>
        <pt x="187" y="102" on="0"/>
        <pt x="275" y="115" on="0"/>
        <pt x="316" y="120" on="1"/>
        <pt x="316" y="1333" on="1"/>
        <pt x="275" y="1338" on="0"/>
        <pt x="197" y="1350" on="0"/>
        <pt x="155" y="1359" on="1"/>
        <pt x="153" y="1382" on="0"/>
        <pt x="160" y="1425" on="0"/>
        <pt x="167" y="1448" on="1"/>
        <pt x="728" y="1448" on="1"/>
        <pt x="858" y="1448" on="0"/>
        <pt x="1042" y="1410" on="0"/>
        <pt x="1159" y="1318" on="0"/>
        <pt x="1213" y="1163" on="0"/>
        <pt x="1213" y="1047" on="1"/>
        <pt x="1213" y="975" on="0"/>
        <pt x="1183" y="826" on="0"/>
        <pt x="1110" y="698" on="0"/>
        <pt x="988" y="601" on="0"/>
        <pt x="897" y="582" on="1"/>
        <pt x="1200" y="118" on="1"/>
        <pt x="1351" y="92" on="1"/>
        <pt x="1352" y="91" on="0"/>
        <pt x="1352" y="71" on="0"/>
        <pt x="1349" y="43" on="0"/>
        <pt x="1343" y="12" on="0"/>
        <pt x="1339" y="0" on="1"/>
        <pt x="1051" y="0" on="1"/>
        <pt x="728" y="557" on="1"/>
        <pt x="690" y="557" on="1"/>
        <pt x="660" y="557" on="0"/>
        <pt x="619" y="557" on="0"/>
        <pt x="579" y="559" on="0"/>
        <pt x="532" y="561" on="0"/>
        <pt x="496" y="564" on="1"/>
        <pt x="496" y="120" on="1"/>
        <pt x="656" y="88" on="1"/>
        <pt x="658" y="83" on="0"/>
        <pt x="659" y="61" on="0"/>
        <pt x="659" y="54" on="1"/>
        <pt x="659" y="40" on="0"/>
        <pt x="651" y="7" on="0"/>
        <pt x="647" y="0" on="1"/>
        <pt x="158" y="0" on="1"/>
      </contour>
      <contour>
        <pt x="654" y="669" on="1"/>
        <pt x="759" y="669" on="0"/>
        <pt x="901" y="716" on="0"/>
        <pt x="988" y="811" on="0"/>
        <pt x="1026" y="956" on="0"/>
        <pt x="1026" y="1054" on="1"/>
        <pt x="1026" y="1120" on="0"/>
        <pt x="996" y="1226" on="0"/>
        <pt x="922" y="1300" on="0"/>
        <pt x="795" y="1338" on="0"/>
        <pt x="699" y="1335" on="1"/>
        <pt x="496" y="1331" on="1"/>
        <pt x="496" y="669" on="1"/>
      </contour>
    </TTGlyph>
    <TTGlyph name="Rcaron" xMin="149" yMin="0" xMax="1352" yMax="1874">
      <contour>
        <pt x="413" y="1802" on="1"/>
        <pt x="424" y="1825" on="0"/>
        <pt x="465" y="1866" on="0"/>
        <pt x="481" y="1874" on="1"/>
        <pt x="715" y="1691" on="1"/>
        <pt x="947" y="1874" on="1"/>
        <pt x="954" y="1870" on="0"/>
        <pt x="972" y="1856" on="0"/>
        <pt x="989" y="1838" on="0"/>
        <pt x="1003" y="1817" on="0"/>
        <pt x="1006" y="1808" on="1"/>
        <pt x="760" y="1542" on="1"/>
        <pt x="659" y="1542" on="1"/>
      </contour>
      <contour>
        <pt x="149" y="88" on="1"/>
        <pt x="187" y="102" on="0"/>
        <pt x="275" y="115" on="0"/>
        <pt x="316" y="120" on="1"/>
        <pt x="316" y="1333" on="1"/>
        <pt x="275" y="1338" on="0"/>
        <pt x="197" y="1350" on="0"/>
        <pt x="155" y="1359" on="1"/>
        <pt x="153" y="1382" on="0"/>
        <pt x="160" y="1425" on="0"/>
        <pt x="167" y="1448" on="1"/>
        <pt x="728" y="1448" on="1"/>
        <pt x="858" y="1448" on="0"/>
        <pt x="1042" y="1410" on="0"/>
        <pt x="1159" y="1318" on="0"/>
        <pt x="1213" y="1163" on="0"/>
        <pt x="1213" y="1047" on="1"/>
        <pt x="1213" y="975" on="0"/>
        <pt x="1183" y="826" on="0"/>
        <pt x="1110" y="698" on="0"/>
        <pt x="988" y="601" on="0"/>
        <pt x="897" y="582" on="1"/>
        <pt x="1200" y="118" on="1"/>
        <pt x="1351" y="92" on="1"/>
        <pt x="1352" y="91" on="0"/>
        <pt x="1352" y="71" on="0"/>
        <pt x="1349" y="43" on="0"/>
        <pt x="1343" y="12" on="0"/>
        <pt x="1339" y="0" on="1"/>
        <pt x="1051" y="0" on="1"/>
        <pt x="728" y="557" on="1"/>
        <pt x="690" y="557" on="1"/>
        <pt x="660" y="557" on="0"/>
        <pt x="619" y="557" on="0"/>
        <pt x="579" y="559" on="0"/>
        <pt x="532" y="561" on="0"/>
        <pt x="496" y="564" on="1"/>
        <pt x="496" y="120" on="1"/>
        <pt x="656" y="88" on="1"/>
        <pt x="658" y="83" on="0"/>
        <pt x="659" y="61" on="0"/>
        <pt x="659" y="54" on="1"/>
        <pt x="659" y="40" on="0"/>
        <pt x="651" y="7" on="0"/>
        <pt x="647" y="0" on="1"/>
        <pt x="158" y="0" on="1"/>
      </contour>
      <contour>
        <pt x="654" y="669" on="1"/>
        <pt x="759" y="669" on="0"/>
        <pt x="901" y="716" on="0"/>
        <pt x="988" y="811" on="0"/>
        <pt x="1026" y="956" on="0"/>
        <pt x="1026" y="1054" on="1"/>
        <pt x="1026" y="1120" on="0"/>
        <pt x="996" y="1226" on="0"/>
        <pt x="922" y="1300" on="0"/>
        <pt x="795" y="1338" on="0"/>
        <pt x="699" y="1335" on="1"/>
        <pt x="496" y="1331" on="1"/>
        <pt x="496" y="669" on="1"/>
      </contour>
    </TTGlyph>
    <TTGlyph name="Rcommaaccent" xMin="149" yMin="-570" xMax="1352" yMax="1448">
      <contour>
        <pt x="149" y="88" on="1"/>
        <pt x="187" y="102" on="0"/>
        <pt x="275" y="115" on="0"/>
        <pt x="316" y="120" on="1"/>
        <pt x="316" y="1333" on="1"/>
        <pt x="275" y="1338" on="0"/>
        <pt x="197" y="1350" on="0"/>
        <pt x="155" y="1359" on="1"/>
        <pt x="153" y="1382" on="0"/>
        <pt x="160" y="1425" on="0"/>
        <pt x="167" y="1448" on="1"/>
        <pt x="728" y="1448" on="1"/>
        <pt x="858" y="1448" on="0"/>
        <pt x="1042" y="1410" on="0"/>
        <pt x="1159" y="1318" on="0"/>
        <pt x="1213" y="1163" on="0"/>
        <pt x="1213" y="1047" on="1"/>
        <pt x="1213" y="975" on="0"/>
        <pt x="1183" y="826" on="0"/>
        <pt x="1110" y="698" on="0"/>
        <pt x="988" y="601" on="0"/>
        <pt x="897" y="582" on="1"/>
        <pt x="1200" y="118" on="1"/>
        <pt x="1351" y="92" on="1"/>
        <pt x="1352" y="91" on="0"/>
        <pt x="1352" y="71" on="0"/>
        <pt x="1349" y="43" on="0"/>
        <pt x="1343" y="12" on="0"/>
        <pt x="1339" y="0" on="1"/>
        <pt x="1051" y="0" on="1"/>
        <pt x="728" y="557" on="1"/>
        <pt x="690" y="557" on="1"/>
        <pt x="660" y="557" on="0"/>
        <pt x="619" y="557" on="0"/>
        <pt x="579" y="559" on="0"/>
        <pt x="532" y="561" on="0"/>
        <pt x="496" y="564" on="1"/>
        <pt x="496" y="120" on="1"/>
        <pt x="656" y="88" on="1"/>
        <pt x="658" y="83" on="0"/>
        <pt x="659" y="61" on="0"/>
        <pt x="659" y="54" on="1"/>
        <pt x="659" y="40" on="0"/>
        <pt x="651" y="7" on="0"/>
        <pt x="647" y="0" on="1"/>
        <pt x="158" y="0" on="1"/>
      </contour>
      <contour>
        <pt x="654" y="669" on="1"/>
        <pt x="759" y="669" on="0"/>
        <pt x="901" y="716" on="0"/>
        <pt x="988" y="811" on="0"/>
        <pt x="1026" y="956" on="0"/>
        <pt x="1026" y="1054" on="1"/>
        <pt x="1026" y="1120" on="0"/>
        <pt x="996" y="1226" on="0"/>
        <pt x="922" y="1300" on="0"/>
        <pt x="795" y="1338" on="0"/>
        <pt x="699" y="1335" on="1"/>
        <pt x="496" y="1331" on="1"/>
        <pt x="496" y="669" on="1"/>
      </contour>
      <contour>
        <pt x="685" y="-196" on="1"/>
        <pt x="683" y="-164" on="0"/>
        <pt x="702" y="-120" on="0"/>
        <pt x="736" y="-93" on="0"/>
        <pt x="781" y="-81" on="0"/>
        <pt x="805" y="-81" on="1"/>
        <pt x="830" y="-81" on="0"/>
        <pt x="879" y="-96" on="0"/>
        <pt x="917" y="-125" on="0"/>
        <pt x="941" y="-169" on="0"/>
        <pt x="941" y="-198" on="1"/>
        <pt x="941" y="-254" on="0"/>
        <pt x="895" y="-366" on="0"/>
        <pt x="828" y="-465" on="0"/>
        <pt x="752" y="-546" on="0"/>
        <pt x="721" y="-570" on="1"/>
        <pt x="664" y="-530" on="1"/>
        <pt x="682" y="-506" on="0"/>
        <pt x="717" y="-439" on="0"/>
        <pt x="748" y="-365" on="0"/>
        <pt x="774" y="-290" on="0"/>
        <pt x="782" y="-257" on="1"/>
      </contour>
    </TTGlyph>
    <TTGlyph name="S" xMin="133" yMin="-27" xMax="1066" yMax="1477">
      <contour>
        <pt x="158" y="415" on="1"/>
        <pt x="177" y="416" on="0"/>
        <pt x="205" y="416" on="0"/>
        <pt x="230" y="415" on="0"/>
        <pt x="257" y="411" on="0"/>
        <pt x="277" y="409" on="1"/>
        <pt x="282" y="380" on="0"/>
        <pt x="288" y="333" on="0"/>
        <pt x="294" y="285" on="0"/>
        <pt x="300" y="232" on="0"/>
        <pt x="305" y="196" on="1"/>
        <pt x="339" y="175" on="0"/>
        <pt x="412" y="137" on="0"/>
        <pt x="493" y="109" on="0"/>
        <pt x="583" y="92" on="0"/>
        <pt x="636" y="92" on="1"/>
        <pt x="701" y="92" on="0"/>
        <pt x="797" y="126" on="0"/>
        <pt x="859" y="187" on="0"/>
        <pt x="889" y="275" on="0"/>
        <pt x="889" y="329" on="1"/>
        <pt x="889" y="355" on="0"/>
        <pt x="885" y="402" on="0"/>
        <pt x="871" y="446" on="0"/>
        <pt x="845" y="486" on="0"/>
        <pt x="823" y="505" on="1"/>
        <pt x="764" y="555" on="0"/>
        <pt x="634" y="633" on="0"/>
        <pt x="499" y="705" on="0"/>
        <pt x="363" y="778" on="0"/>
        <pt x="298" y="823" on="1"/>
        <pt x="263" y="848" on="0"/>
        <pt x="208" y="899" on="0"/>
        <pt x="169" y="962" on="0"/>
        <pt x="149" y="1041" on="0"/>
        <pt x="149" y="1094" on="1"/>
        <pt x="149" y="1192" on="0"/>
        <pt x="205" y="1327" on="0"/>
        <pt x="255" y="1373" on="1"/>
        <pt x="316" y="1430" on="0"/>
        <pt x="477" y="1477" on="0"/>
        <pt x="584" y="1477" on="1"/>
        <pt x="641" y="1477" on="0"/>
        <pt x="762" y="1467" on="0"/>
        <pt x="877" y="1448" on="0"/>
        <pt x="980" y="1422" on="0"/>
        <pt x="1021" y="1407" on="1"/>
        <pt x="1014" y="1326" on="0"/>
        <pt x="995" y="1162" on="0"/>
        <pt x="981" y="1089" on="1"/>
        <pt x="960" y="1087" on="0"/>
        <pt x="930" y="1086" on="0"/>
        <pt x="905" y="1087" on="0"/>
        <pt x="878" y="1089" on="0"/>
        <pt x="860" y="1092" on="1"/>
        <pt x="844" y="1290" on="1"/>
        <pt x="778" y="1325" on="0"/>
        <pt x="634" y="1362" on="0"/>
        <pt x="564" y="1362" on="1"/>
        <pt x="509" y="1362" on="0"/>
        <pt x="418" y="1336" on="0"/>
        <pt x="352" y="1283" on="0"/>
        <pt x="316" y="1202" on="0"/>
        <pt x="316" y="1146" on="1"/>
        <pt x="316" y="1106" on="0"/>
        <pt x="336" y="1042" on="0"/>
        <pt x="377" y="987" on="0"/>
        <pt x="441" y="939" on="0"/>
        <pt x="485" y="915" on="1"/>
        <pt x="830" y="721" on="1"/>
        <pt x="917" y="673" on="0"/>
        <pt x="1012" y="579" on="0"/>
        <pt x="1057" y="485" on="0"/>
        <pt x="1066" y="390" on="0"/>
        <pt x="1066" y="340" on="1"/>
        <pt x="1066" y="283" on="0"/>
        <pt x="1039" y="190" on="0"/>
        <pt x="991" y="115" on="0"/>
        <pt x="927" y="58" on="0"/>
        <pt x="891" y="38" on="1"/>
        <pt x="849" y="15" on="0"/>
        <pt x="760" y="-11" on="0"/>
        <pt x="674" y="-24" on="0"/>
        <pt x="598" y="-27" on="0"/>
        <pt x="570" y="-27" on="1"/>
        <pt x="512" y="-27" on="0"/>
        <pt x="382" y="-4" on="0"/>
        <pt x="262" y="32" on="0"/>
        <pt x="162" y="75" on="0"/>
        <pt x="133" y="95" on="1"/>
      </contour>
    </TTGlyph>
    <TTGlyph name="Sacute" xMin="140" yMin="-27" xMax="1073" yMax="1881">
      <contour>
        <pt x="515" y="1538" on="1"/>
        <pt x="505" y="1547" on="0"/>
        <pt x="479" y="1588" on="0"/>
        <pt x="468" y="1614" on="1"/>
        <pt x="829" y="1881" on="1"/>
        <pt x="944" y="1796" on="1"/>
        <pt x="942" y="1746" on="1"/>
      </contour>
      <contour>
        <pt x="165" y="415" on="1"/>
        <pt x="184" y="416" on="0"/>
        <pt x="212" y="416" on="0"/>
        <pt x="237" y="415" on="0"/>
        <pt x="264" y="411" on="0"/>
        <pt x="284" y="409" on="1"/>
        <pt x="289" y="380" on="0"/>
        <pt x="295" y="333" on="0"/>
        <pt x="301" y="285" on="0"/>
        <pt x="307" y="232" on="0"/>
        <pt x="312" y="196" on="1"/>
        <pt x="346" y="175" on="0"/>
        <pt x="419" y="137" on="0"/>
        <pt x="500" y="109" on="0"/>
        <pt x="590" y="92" on="0"/>
        <pt x="643" y="92" on="1"/>
        <pt x="708" y="92" on="0"/>
        <pt x="804" y="126" on="0"/>
        <pt x="866" y="187" on="0"/>
        <pt x="896" y="275" on="0"/>
        <pt x="896" y="329" on="1"/>
        <pt x="896" y="355" on="0"/>
        <pt x="892" y="402" on="0"/>
        <pt x="878" y="446" on="0"/>
        <pt x="852" y="486" on="0"/>
        <pt x="830" y="505" on="1"/>
        <pt x="771" y="555" on="0"/>
        <pt x="641" y="633" on="0"/>
        <pt x="506" y="705" on="0"/>
        <pt x="370" y="778" on="0"/>
        <pt x="305" y="823" on="1"/>
        <pt x="270" y="848" on="0"/>
        <pt x="215" y="899" on="0"/>
        <pt x="176" y="962" on="0"/>
        <pt x="156" y="1041" on="0"/>
        <pt x="156" y="1094" on="1"/>
        <pt x="156" y="1192" on="0"/>
        <pt x="212" y="1327" on="0"/>
        <pt x="262" y="1373" on="1"/>
        <pt x="323" y="1430" on="0"/>
        <pt x="484" y="1477" on="0"/>
        <pt x="591" y="1477" on="1"/>
        <pt x="648" y="1477" on="0"/>
        <pt x="769" y="1467" on="0"/>
        <pt x="884" y="1448" on="0"/>
        <pt x="987" y="1422" on="0"/>
        <pt x="1028" y="1407" on="1"/>
        <pt x="1021" y="1326" on="0"/>
        <pt x="1002" y="1162" on="0"/>
        <pt x="988" y="1089" on="1"/>
        <pt x="967" y="1087" on="0"/>
        <pt x="937" y="1086" on="0"/>
        <pt x="912" y="1087" on="0"/>
        <pt x="885" y="1089" on="0"/>
        <pt x="867" y="1092" on="1"/>
        <pt x="851" y="1290" on="1"/>
        <pt x="785" y="1325" on="0"/>
        <pt x="641" y="1362" on="0"/>
        <pt x="571" y="1362" on="1"/>
        <pt x="516" y="1362" on="0"/>
        <pt x="425" y="1336" on="0"/>
        <pt x="359" y="1283" on="0"/>
        <pt x="323" y="1202" on="0"/>
        <pt x="323" y="1146" on="1"/>
        <pt x="323" y="1106" on="0"/>
        <pt x="343" y="1042" on="0"/>
        <pt x="384" y="987" on="0"/>
        <pt x="448" y="939" on="0"/>
        <pt x="492" y="915" on="1"/>
        <pt x="837" y="721" on="1"/>
        <pt x="924" y="673" on="0"/>
        <pt x="1019" y="579" on="0"/>
        <pt x="1064" y="485" on="0"/>
        <pt x="1073" y="390" on="0"/>
        <pt x="1073" y="340" on="1"/>
        <pt x="1073" y="283" on="0"/>
        <pt x="1046" y="190" on="0"/>
        <pt x="998" y="115" on="0"/>
        <pt x="934" y="58" on="0"/>
        <pt x="898" y="38" on="1"/>
        <pt x="856" y="15" on="0"/>
        <pt x="767" y="-11" on="0"/>
        <pt x="681" y="-24" on="0"/>
        <pt x="605" y="-27" on="0"/>
        <pt x="577" y="-27" on="1"/>
        <pt x="519" y="-27" on="0"/>
        <pt x="389" y="-4" on="0"/>
        <pt x="269" y="32" on="0"/>
        <pt x="169" y="75" on="0"/>
        <pt x="140" y="95" on="1"/>
      </contour>
    </TTGlyph>
    <TTGlyph name="T" xMin="38" yMin="0" xMax="1211" yMax="1448">
      <contour>
        <pt x="336" y="90" on="1"/>
        <pt x="355" y="97" on="0"/>
        <pt x="407" y="106" on="0"/>
        <pt x="461" y="114" on="0"/>
        <pt x="514" y="119" on="0"/>
        <pt x="534" y="122" on="1"/>
        <pt x="534" y="1340" on="1"/>
        <pt x="192" y="1340" on="1"/>
        <pt x="173" y="1099" on="1"/>
        <pt x="144" y="1095" on="0"/>
        <pt x="82" y="1096" on="0"/>
        <pt x="59" y="1101" on="1"/>
        <pt x="56" y="1129" on="0"/>
        <pt x="48" y="1212" on="0"/>
        <pt x="42" y="1303" on="0"/>
        <pt x="38" y="1394" on="0"/>
        <pt x="38" y="1432" on="1"/>
        <pt x="59" y="1448" on="1"/>
        <pt x="1189" y="1448" on="1"/>
        <pt x="1211" y="1432" on="1"/>
        <pt x="1211" y="1394" on="0"/>
        <pt x="1207" y="1303" on="0"/>
        <pt x="1200" y="1212" on="0"/>
        <pt x="1192" y="1129" on="0"/>
        <pt x="1189" y="1101" on="1"/>
        <pt x="1166" y="1096" on="0"/>
        <pt x="1105" y="1095" on="0"/>
        <pt x="1076" y="1099" on="1"/>
        <pt x="1056" y="1340" on="1"/>
        <pt x="713" y="1340" on="1"/>
        <pt x="713" y="126" on="1"/>
        <pt x="934" y="88" on="1"/>
        <pt x="936" y="83" on="0"/>
        <pt x="936" y="64" on="0"/>
        <pt x="936" y="57" on="1"/>
        <pt x="936" y="43" on="0"/>
        <pt x="928" y="7" on="0"/>
        <pt x="924" y="0" on="1"/>
        <pt x="345" y="0" on="1"/>
      </contour>
    </TTGlyph>
    <TTGlyph name="Thorn" xMin="102" yMin="0" xMax="1215" yMax="1448">
      <contour>
        <pt x="102" y="90" on="1"/>
        <pt x="121" y="97" on="0"/>
        <pt x="166" y="107" on="0"/>
        <pt x="213" y="115" on="0"/>
        <pt x="259" y="120" on="0"/>
        <pt x="279" y="122" on="1"/>
        <pt x="279" y="1328" on="1"/>
        <pt x="113" y="1359" on="1"/>
        <pt x="111" y="1364" on="0"/>
        <pt x="111" y="1391" on="0"/>
        <pt x="111" y="1399" on="1"/>
        <pt x="111" y="1413" on="0"/>
        <pt x="119" y="1441" on="0"/>
        <pt x="122" y="1448" on="1"/>
        <pt x="647" y="1448" on="1"/>
        <pt x="657" y="1364" on="1"/>
        <pt x="639" y="1358" on="0"/>
        <pt x="587" y="1347" on="0"/>
        <pt x="532" y="1338" on="0"/>
        <pt x="478" y="1331" on="0"/>
        <pt x="458" y="1328" on="1"/>
        <pt x="456" y="1172" on="1"/>
        <pt x="702" y="1172" on="1"/>
        <pt x="823" y="1172" on="0"/>
        <pt x="1014" y="1135" on="0"/>
        <pt x="1146" y="1041" on="0"/>
        <pt x="1215" y="878" on="0"/>
        <pt x="1215" y="751" on="1"/>
        <pt x="1215" y="514" on="0"/>
        <pt x="980" y="293" on="0"/>
        <pt x="751" y="293" on="1"/>
        <pt x="703" y="293" on="0"/>
        <pt x="626" y="296" on="0"/>
        <pt x="557" y="302" on="0"/>
        <pt x="492" y="311" on="0"/>
        <pt x="456" y="316" on="1"/>
        <pt x="458" y="122" on="1"/>
        <pt x="664" y="88" on="1"/>
        <pt x="666" y="83" on="0"/>
        <pt x="667" y="64" on="0"/>
        <pt x="667" y="57" on="1"/>
        <pt x="667" y="43" on="0"/>
        <pt x="658" y="7" on="0"/>
        <pt x="654" y="0" on="1"/>
        <pt x="111" y="0" on="1"/>
      </contour>
      <contour>
        <pt x="647" y="413" on="1"/>
        <pt x="755" y="407" on="0"/>
        <pt x="900" y="448" on="0"/>
        <pt x="987" y="537" on="0"/>
        <pt x="1024" y="672" on="0"/>
        <pt x="1024" y="760" on="1"/>
        <pt x="1024" y="839" on="0"/>
        <pt x="993" y="955" on="0"/>
        <pt x="907" y="1028" on="0"/>
        <pt x="755" y="1062" on="0"/>
        <pt x="634" y="1059" on="1"/>
        <pt x="456" y="1051" on="1"/>
        <pt x="456" y="424" on="1"/>
      </contour>
    </TTGlyph>
    <TTGlyph name="U" xMin="54" yMin="-27" xMax="1477" yMax="1448">
      <contour>
        <pt x="223" y="1328" on="1"/>
        <pt x="57" y="1359" on="1"/>
        <pt x="55" y="1364" on="0"/>
        <pt x="54" y="1387" on="0"/>
        <pt x="54" y="1394" on="1"/>
        <pt x="54" y="1409" on="0"/>
        <pt x="62" y="1441" on="0"/>
        <pt x="66" y="1448" on="1"/>
        <pt x="582" y="1448" on="1"/>
        <pt x="591" y="1364" on="1"/>
        <pt x="573" y="1357" on="0"/>
        <pt x="525" y="1346" on="0"/>
        <pt x="474" y="1337" on="0"/>
        <pt x="427" y="1330" on="0"/>
        <pt x="409" y="1328" on="1"/>
        <pt x="409" y="607" on="1"/>
        <pt x="409" y="532" on="0"/>
        <pt x="416" y="399" on="0"/>
        <pt x="441" y="286" on="0"/>
        <pt x="493" y="195" on="0"/>
        <pt x="582" y="131" on="0"/>
        <pt x="715" y="97" on="0"/>
        <pt x="810" y="97" on="1"/>
        <pt x="893" y="97" on="0"/>
        <pt x="1010" y="133" on="0"/>
        <pt x="1089" y="196" on="0"/>
        <pt x="1135" y="281" on="0"/>
        <pt x="1159" y="378" on="0"/>
        <pt x="1166" y="484" on="0"/>
        <pt x="1166" y="537" on="1"/>
        <pt x="1166" y="1328" on="1"/>
        <pt x="995" y="1359" on="1"/>
        <pt x="993" y="1364" on="0"/>
        <pt x="992" y="1387" on="0"/>
        <pt x="992" y="1394" on="1"/>
        <pt x="992" y="1409" on="0"/>
        <pt x="1000" y="1441" on="0"/>
        <pt x="1004" y="1448" on="1"/>
        <pt x="1468" y="1448" on="1"/>
        <pt x="1477" y="1362" on="1"/>
        <pt x="1462" y="1356" on="0"/>
        <pt x="1422" y="1345" on="0"/>
        <pt x="1380" y="1337" on="0"/>
        <pt x="1340" y="1331" on="0"/>
        <pt x="1324" y="1329" on="1"/>
        <pt x="1324" y="537" on="1"/>
        <pt x="1324" y="414" on="0"/>
        <pt x="1274" y="207" on="0"/>
        <pt x="1145" y="57" on="0"/>
        <pt x="924" y="-27" on="0"/>
        <pt x="754" y="-27" on="1"/>
        <pt x="638" y="-27" on="0"/>
        <pt x="468" y="14" on="0"/>
        <pt x="350" y="90" on="0"/>
        <pt x="277" y="198" on="0"/>
        <pt x="237" y="330" on="0"/>
        <pt x="223" y="485" on="0"/>
        <pt x="223" y="570" on="1"/>
      </contour>
    </TTGlyph>
    <TTGlyph name="Uacute" xMin="54" yMin="-27" xMax="1477" yMax="1881">
      <contour>
        <pt x="665" y="1538" on="1"/>
        <pt x="655" y="1547" on="0"/>
        <pt x="629" y="1588" on="0"/>
        <pt x="618" y="1614" on="1"/>
        <pt x="979" y="1881" on="1"/>
        <pt x="1094" y="1796" on="1"/>
        <pt x="1092" y="1746" on="1"/>
      </contour>
      <contour>
        <pt x="223" y="1328" on="1"/>
        <pt x="57" y="1359" on="1"/>
        <pt x="55" y="1364" on="0"/>
        <pt x="54" y="1387" on="0"/>
        <pt x="54" y="1394" on="1"/>
        <pt x="54" y="1409" on="0"/>
        <pt x="62" y="1441" on="0"/>
        <pt x="66" y="1448" on="1"/>
        <pt x="582" y="1448" on="1"/>
        <pt x="591" y="1364" on="1"/>
        <pt x="573" y="1357" on="0"/>
        <pt x="525" y="1346" on="0"/>
        <pt x="474" y="1337" on="0"/>
        <pt x="427" y="1330" on="0"/>
        <pt x="409" y="1328" on="1"/>
        <pt x="409" y="607" on="1"/>
        <pt x="409" y="532" on="0"/>
        <pt x="416" y="399" on="0"/>
        <pt x="441" y="286" on="0"/>
        <pt x="493" y="195" on="0"/>
        <pt x="582" y="131" on="0"/>
        <pt x="715" y="97" on="0"/>
        <pt x="810" y="97" on="1"/>
        <pt x="893" y="97" on="0"/>
        <pt x="1010" y="133" on="0"/>
        <pt x="1089" y="196" on="0"/>
        <pt x="1135" y="281" on="0"/>
        <pt x="1159" y="378" on="0"/>
        <pt x="1166" y="484" on="0"/>
        <pt x="1166" y="537" on="1"/>
        <pt x="1166" y="1328" on="1"/>
        <pt x="995" y="1359" on="1"/>
        <pt x="993" y="1364" on="0"/>
        <pt x="992" y="1387" on="0"/>
        <pt x="992" y="1394" on="1"/>
        <pt x="992" y="1409" on="0"/>
        <pt x="1000" y="1441" on="0"/>
        <pt x="1004" y="1448" on="1"/>
        <pt x="1468" y="1448" on="1"/>
        <pt x="1477" y="1362" on="1"/>
        <pt x="1462" y="1356" on="0"/>
        <pt x="1422" y="1345" on="0"/>
        <pt x="1380" y="1337" on="0"/>
        <pt x="1340" y="1331" on="0"/>
        <pt x="1324" y="1329" on="1"/>
        <pt x="1324" y="537" on="1"/>
        <pt x="1324" y="414" on="0"/>
        <pt x="1274" y="207" on="0"/>
        <pt x="1145" y="57" on="0"/>
        <pt x="924" y="-27" on="0"/>
        <pt x="754" y="-27" on="1"/>
        <pt x="638" y="-27" on="0"/>
        <pt x="468" y="14" on="0"/>
        <pt x="350" y="90" on="0"/>
        <pt x="277" y="198" on="0"/>
        <pt x="237" y="330" on="0"/>
        <pt x="223" y="485" on="0"/>
        <pt x="223" y="570" on="1"/>
      </contour>
    </TTGlyph>
    <TTGlyph name="Ucircumflex" xMin="54" yMin="-27" xMax="1477" yMax="1863">
      <contour>
        <pt x="532" y="1531" on="1"/>
        <pt x="525" y="1535" on="0"/>
        <pt x="507" y="1549" on="0"/>
        <pt x="490" y="1567" on="0"/>
        <pt x="476" y="1588" on="0"/>
        <pt x="473" y="1597" on="1"/>
        <pt x="719" y="1863" on="1"/>
        <pt x="820" y="1863" on="1"/>
        <pt x="1066" y="1603" on="1"/>
        <pt x="1055" y="1580" on="0"/>
        <pt x="1014" y="1539" on="0"/>
        <pt x="998" y="1531" on="1"/>
        <pt x="764" y="1714" on="1"/>
      </contour>
      <contour>
        <pt x="223" y="1328" on="1"/>
        <pt x="57" y="1359" on="1"/>
        <pt x="55" y="1364" on="0"/>
        <pt x="54" y="1387" on="0"/>
        <pt x="54" y="1394" on="1"/>
        <pt x="54" y="1409" on="0"/>
        <pt x="62" y="1441" on="0"/>
        <pt x="66" y="1448" on="1"/>
        <pt x="582" y="1448" on="1"/>
        <pt x="591" y="1364" on="1"/>
        <pt x="573" y="1357" on="0"/>
        <pt x="525" y="1346" on="0"/>
        <pt x="474" y="1337" on="0"/>
        <pt x="427" y="1330" on="0"/>
        <pt x="409" y="1328" on="1"/>
        <pt x="409" y="607" on="1"/>
        <pt x="409" y="532" on="0"/>
        <pt x="416" y="399" on="0"/>
        <pt x="441" y="286" on="0"/>
        <pt x="493" y="195" on="0"/>
        <pt x="582" y="131" on="0"/>
        <pt x="715" y="97" on="0"/>
        <pt x="810" y="97" on="1"/>
        <pt x="893" y="97" on="0"/>
        <pt x="1010" y="133" on="0"/>
        <pt x="1089" y="196" on="0"/>
        <pt x="1135" y="281" on="0"/>
        <pt x="1159" y="378" on="0"/>
        <pt x="1166" y="484" on="0"/>
        <pt x="1166" y="537" on="1"/>
        <pt x="1166" y="1328" on="1"/>
        <pt x="995" y="1359" on="1"/>
        <pt x="993" y="1364" on="0"/>
        <pt x="992" y="1387" on="0"/>
        <pt x="992" y="1394" on="1"/>
        <pt x="992" y="1409" on="0"/>
        <pt x="1000" y="1441" on="0"/>
        <pt x="1004" y="1448" on="1"/>
        <pt x="1468" y="1448" on="1"/>
        <pt x="1477" y="1362" on="1"/>
        <pt x="1462" y="1356" on="0"/>
        <pt x="1422" y="1345" on="0"/>
        <pt x="1380" y="1337" on="0"/>
        <pt x="1340" y="1331" on="0"/>
        <pt x="1324" y="1329" on="1"/>
        <pt x="1324" y="537" on="1"/>
        <pt x="1324" y="414" on="0"/>
        <pt x="1274" y="207" on="0"/>
        <pt x="1145" y="57" on="0"/>
        <pt x="924" y="-27" on="0"/>
        <pt x="754" y="-27" on="1"/>
        <pt x="638" y="-27" on="0"/>
        <pt x="468" y="14" on="0"/>
        <pt x="350" y="90" on="0"/>
        <pt x="277" y="198" on="0"/>
        <pt x="237" y="330" on="0"/>
        <pt x="223" y="485" on="0"/>
        <pt x="223" y="570" on="1"/>
      </contour>
    </TTGlyph>
    <TTGlyph name="Udieresis" xMin="54" yMin="-27" xMax="1477" yMax="1801">
      <contour>
        <pt x="996" y="1590" on="1"/>
        <pt x="963" y="1590" on="0"/>
        <pt x="921" y="1607" on="0"/>
        <pt x="897" y="1635" on="0"/>
        <pt x="887" y="1673" on="0"/>
        <pt x="887" y="1694" on="1"/>
        <pt x="887" y="1716" on="0"/>
        <pt x="897" y="1755" on="0"/>
        <pt x="921" y="1784" on="0"/>
        <pt x="963" y="1801" on="0"/>
        <pt x="996" y="1801" on="1"/>
        <pt x="1058" y="1801" on="0"/>
        <pt x="1103" y="1744" on="0"/>
        <pt x="1103" y="1694" on="1"/>
        <pt x="1103" y="1673" on="0"/>
        <pt x="1093" y="1635" on="0"/>
        <pt x="1068" y="1607" on="0"/>
        <pt x="1027" y="1590" on="0"/>
      </contour>
      <contour>
        <pt x="572" y="1590" on="1"/>
        <pt x="542" y="1590" on="0"/>
        <pt x="502" y="1607" on="0"/>
        <pt x="478" y="1635" on="0"/>
        <pt x="468" y="1673" on="0"/>
        <pt x="468" y="1694" on="1"/>
        <pt x="468" y="1716" on="0"/>
        <pt x="478" y="1755" on="0"/>
        <pt x="502" y="1784" on="0"/>
        <pt x="542" y="1801" on="0"/>
        <pt x="572" y="1801" on="1"/>
        <pt x="634" y="1801" on="0"/>
        <pt x="684" y="1744" on="0"/>
        <pt x="684" y="1694" on="1"/>
        <pt x="684" y="1673" on="0"/>
        <pt x="672" y="1635" on="0"/>
        <pt x="646" y="1607" on="0"/>
        <pt x="603" y="1590" on="0"/>
      </contour>
      <contour>
        <pt x="223" y="1328" on="1"/>
        <pt x="57" y="1359" on="1"/>
        <pt x="55" y="1364" on="0"/>
        <pt x="54" y="1387" on="0"/>
        <pt x="54" y="1394" on="1"/>
        <pt x="54" y="1409" on="0"/>
        <pt x="62" y="1441" on="0"/>
        <pt x="66" y="1448" on="1"/>
        <pt x="582" y="1448" on="1"/>
        <pt x="591" y="1364" on="1"/>
        <pt x="573" y="1357" on="0"/>
        <pt x="525" y="1346" on="0"/>
        <pt x="474" y="1337" on="0"/>
        <pt x="427" y="1330" on="0"/>
        <pt x="409" y="1328" on="1"/>
        <pt x="409" y="607" on="1"/>
        <pt x="409" y="532" on="0"/>
        <pt x="416" y="399" on="0"/>
        <pt x="441" y="286" on="0"/>
        <pt x="493" y="195" on="0"/>
        <pt x="582" y="131" on="0"/>
        <pt x="715" y="97" on="0"/>
        <pt x="810" y="97" on="1"/>
        <pt x="893" y="97" on="0"/>
        <pt x="1010" y="133" on="0"/>
        <pt x="1089" y="196" on="0"/>
        <pt x="1135" y="281" on="0"/>
        <pt x="1159" y="378" on="0"/>
        <pt x="1166" y="484" on="0"/>
        <pt x="1166" y="537" on="1"/>
        <pt x="1166" y="1328" on="1"/>
        <pt x="995" y="1359" on="1"/>
        <pt x="993" y="1364" on="0"/>
        <pt x="992" y="1387" on="0"/>
        <pt x="992" y="1394" on="1"/>
        <pt x="992" y="1409" on="0"/>
        <pt x="1000" y="1441" on="0"/>
        <pt x="1004" y="1448" on="1"/>
        <pt x="1468" y="1448" on="1"/>
        <pt x="1477" y="1362" on="1"/>
        <pt x="1462" y="1356" on="0"/>
        <pt x="1422" y="1345" on="0"/>
        <pt x="1380" y="1337" on="0"/>
        <pt x="1340" y="1331" on="0"/>
        <pt x="1324" y="1329" on="1"/>
        <pt x="1324" y="537" on="1"/>
        <pt x="1324" y="414" on="0"/>
        <pt x="1274" y="207" on="0"/>
        <pt x="1145" y="57" on="0"/>
        <pt x="924" y="-27" on="0"/>
        <pt x="754" y="-27" on="1"/>
        <pt x="638" y="-27" on="0"/>
        <pt x="468" y="14" on="0"/>
        <pt x="350" y="90" on="0"/>
        <pt x="277" y="198" on="0"/>
        <pt x="237" y="330" on="0"/>
        <pt x="223" y="485" on="0"/>
        <pt x="223" y="570" on="1"/>
      </contour>
    </TTGlyph>
    <TTGlyph name="Ugrave" xMin="54" yMin="-27" xMax="1477" yMax="1881">
      <contour>
        <pt x="504" y="1741" on="1"/>
        <pt x="502" y="1791" on="1"/>
        <pt x="617" y="1881" on="1"/>
        <pt x="974" y="1617" on="1"/>
        <pt x="965" y="1590" on="0"/>
        <pt x="946" y="1556" on="0"/>
        <pt x="933" y="1536" on="1"/>
      </contour>
      <contour>
        <pt x="223" y="1328" on="1"/>
        <pt x="57" y="1359" on="1"/>
        <pt x="55" y="1364" on="0"/>
        <pt x="54" y="1387" on="0"/>
        <pt x="54" y="1394" on="1"/>
        <pt x="54" y="1409" on="0"/>
        <pt x="62" y="1441" on="0"/>
        <pt x="66" y="1448" on="1"/>
        <pt x="582" y="1448" on="1"/>
        <pt x="591" y="1364" on="1"/>
        <pt x="573" y="1357" on="0"/>
        <pt x="525" y="1346" on="0"/>
        <pt x="474" y="1337" on="0"/>
        <pt x="427" y="1330" on="0"/>
        <pt x="409" y="1328" on="1"/>
        <pt x="409" y="607" on="1"/>
        <pt x="409" y="532" on="0"/>
        <pt x="416" y="399" on="0"/>
        <pt x="441" y="286" on="0"/>
        <pt x="493" y="195" on="0"/>
        <pt x="582" y="131" on="0"/>
        <pt x="715" y="97" on="0"/>
        <pt x="810" y="97" on="1"/>
        <pt x="893" y="97" on="0"/>
        <pt x="1010" y="133" on="0"/>
        <pt x="1089" y="196" on="0"/>
        <pt x="1135" y="281" on="0"/>
        <pt x="1159" y="378" on="0"/>
        <pt x="1166" y="484" on="0"/>
        <pt x="1166" y="537" on="1"/>
        <pt x="1166" y="1328" on="1"/>
        <pt x="995" y="1359" on="1"/>
        <pt x="993" y="1364" on="0"/>
        <pt x="992" y="1387" on="0"/>
        <pt x="992" y="1394" on="1"/>
        <pt x="992" y="1409" on="0"/>
        <pt x="1000" y="1441" on="0"/>
        <pt x="1004" y="1448" on="1"/>
        <pt x="1468" y="1448" on="1"/>
        <pt x="1477" y="1362" on="1"/>
        <pt x="1462" y="1356" on="0"/>
        <pt x="1422" y="1345" on="0"/>
        <pt x="1380" y="1337" on="0"/>
        <pt x="1340" y="1331" on="0"/>
        <pt x="1324" y="1329" on="1"/>
        <pt x="1324" y="537" on="1"/>
        <pt x="1324" y="414" on="0"/>
        <pt x="1274" y="207" on="0"/>
        <pt x="1145" y="57" on="0"/>
        <pt x="924" y="-27" on="0"/>
        <pt x="754" y="-27" on="1"/>
        <pt x="638" y="-27" on="0"/>
        <pt x="468" y="14" on="0"/>
        <pt x="350" y="90" on="0"/>
        <pt x="277" y="198" on="0"/>
        <pt x="237" y="330" on="0"/>
        <pt x="223" y="485" on="0"/>
        <pt x="223" y="570" on="1"/>
      </contour>
    </TTGlyph>
    <TTGlyph name="Uogonek" xMin="70" yMin="-402" xMax="1474" yMax="1448">
      <contour>
        <pt x="239" y="1333" on="1"/>
        <pt x="198" y="1338" on="0"/>
        <pt x="112" y="1345" on="0"/>
        <pt x="70" y="1355" on="1"/>
        <pt x="78" y="1448" on="1"/>
        <pt x="595" y="1448" on="1"/>
        <pt x="599" y="1428" on="0"/>
        <pt x="599" y="1375" on="0"/>
        <pt x="595" y="1355" on="1"/>
        <pt x="554" y="1347" on="0"/>
        <pt x="467" y="1338" on="0"/>
        <pt x="426" y="1333" on="1"/>
        <pt x="426" y="661" on="1"/>
        <pt x="426" y="568" on="0"/>
        <pt x="435" y="412" on="0"/>
        <pt x="463" y="286" on="0"/>
        <pt x="515" y="192" on="0"/>
        <pt x="604" y="129" on="0"/>
        <pt x="735" y="97" on="0"/>
        <pt x="827" y="97" on="1"/>
        <pt x="954" y="97" on="0"/>
        <pt x="1097" y="174" on="0"/>
        <pt x="1166" y="332" on="0"/>
        <pt x="1182" y="569" on="0"/>
        <pt x="1182" y="730" on="1"/>
        <pt x="1182" y="1333" on="1"/>
        <pt x="1140" y="1338" on="0"/>
        <pt x="1048" y="1345" on="0"/>
        <pt x="1006" y="1355" on="1"/>
        <pt x="1014" y="1448" on="1"/>
        <pt x="1470" y="1448" on="1"/>
        <pt x="1474" y="1428" on="0"/>
        <pt x="1474" y="1375" on="0"/>
        <pt x="1470" y="1355" on="1"/>
        <pt x="1450" y="1351" on="0"/>
        <pt x="1419" y="1345" on="0"/>
        <pt x="1391" y="1340" on="0"/>
        <pt x="1360" y="1336" on="0"/>
        <pt x="1340" y="1333" on="1"/>
        <pt x="1340" y="728" on="1"/>
        <pt x="1340" y="584" on="0"/>
        <pt x="1317" y="348" on="0"/>
        <pt x="1251" y="167" on="0"/>
        <pt x="1135" y="42" on="0"/>
        <pt x="1042" y="9" on="1"/>
        <pt x="1009" y="-19" on="0"/>
        <pt x="939" y="-76" on="0"/>
        <pt x="882" y="-133" on="0"/>
        <pt x="846" y="-190" on="0"/>
        <pt x="846" y="-219" on="1"/>
        <pt x="846" y="-241" on="0"/>
        <pt x="876" y="-275" on="0"/>
        <pt x="915" y="-275" on="1"/>
        <pt x="926" y="-275" on="0"/>
        <pt x="952" y="-270" on="0"/>
        <pt x="977" y="-263" on="0"/>
        <pt x="998" y="-256" on="0"/>
        <pt x="1004" y="-253" on="1"/>
        <pt x="1044" y="-340" on="1"/>
        <pt x="1009" y="-361" on="0"/>
        <pt x="909" y="-402" on="0"/>
        <pt x="846" y="-402" on="1"/>
        <pt x="819" y="-402" on="0"/>
        <pt x="767" y="-386" on="0"/>
        <pt x="725" y="-353" on="0"/>
        <pt x="699" y="-300" on="0"/>
        <pt x="699" y="-264" on="1"/>
        <pt x="699" y="-224" on="0"/>
        <pt x="728" y="-156" on="0"/>
        <pt x="779" y="-96" on="0"/>
        <pt x="847" y="-44" on="0"/>
        <pt x="886" y="-21" on="1"/>
        <pt x="864" y="-23" on="0"/>
        <pt x="819" y="-27" on="0"/>
        <pt x="794" y="-27" on="1"/>
        <pt x="771" y="-27" on="1"/>
        <pt x="649" y="-27" on="0"/>
        <pt x="475" y="12" on="0"/>
        <pt x="357" y="90" on="0"/>
        <pt x="287" y="205" on="0"/>
        <pt x="250" y="358" on="0"/>
        <pt x="239" y="547" on="0"/>
        <pt x="239" y="659" on="1"/>
      </contour>
    </TTGlyph>
    <TTGlyph name="V" xMin="27" yMin="-6" xMax="1281" yMax="1448">
      <contour>
        <pt x="125" y="1333" on="1"/>
        <pt x="29" y="1359" on="1"/>
        <pt x="27" y="1364" on="0"/>
        <pt x="27" y="1384" on="0"/>
        <pt x="27" y="1392" on="1"/>
        <pt x="27" y="1406" on="0"/>
        <pt x="34" y="1441" on="0"/>
        <pt x="38" y="1448" on="1"/>
        <pt x="485" y="1448" on="1"/>
        <pt x="494" y="1359" on="1"/>
        <pt x="476" y="1354" on="0"/>
        <pt x="431" y="1345" on="0"/>
        <pt x="384" y="1337" on="0"/>
        <pt x="337" y="1331" on="0"/>
        <pt x="317" y="1328" on="1"/>
        <pt x="667" y="201" on="1"/>
        <pt x="685" y="128" on="1"/>
        <pt x="717" y="246" on="1"/>
        <pt x="1037" y="1326" on="1"/>
        <pt x="834" y="1359" on="1"/>
        <pt x="832" y="1364" on="0"/>
        <pt x="832" y="1384" on="0"/>
        <pt x="832" y="1392" on="1"/>
        <pt x="832" y="1406" on="0"/>
        <pt x="840" y="1441" on="0"/>
        <pt x="844" y="1448" on="1"/>
        <pt x="1269" y="1448" on="1"/>
        <pt x="1281" y="1359" on="1"/>
        <pt x="1267" y="1351" on="0"/>
        <pt x="1214" y="1336" on="0"/>
        <pt x="1191" y="1331" on="1"/>
        <pt x="775" y="0" on="1"/>
        <pt x="723" y="-7" on="0"/>
        <pt x="606" y="-5" on="0"/>
        <pt x="562" y="0" on="1"/>
      </contour>
    </TTGlyph>
    <TTGlyph name="W" xMin="31" yMin="-10" xMax="1867" yMax="1446">
      <contour>
        <pt x="135" y="1335" on="1"/>
        <pt x="33" y="1355" on="1"/>
        <pt x="30" y="1375" on="0"/>
        <pt x="33" y="1425" on="0"/>
        <pt x="38" y="1446" on="1"/>
        <pt x="487" y="1446" on="1"/>
        <pt x="492" y="1355" on="1"/>
        <pt x="329" y="1335" on="1"/>
        <pt x="568" y="248" on="1"/>
        <pt x="584" y="111" on="1"/>
        <pt x="620" y="298" on="1"/>
        <pt x="882" y="1236" on="1"/>
        <pt x="928" y="1248" on="0"/>
        <pt x="1007" y="1250" on="0"/>
        <pt x="1054" y="1243" on="1"/>
        <pt x="1333" y="260" on="1"/>
        <pt x="1364" y="104" on="1"/>
        <pt x="1394" y="298" on="1"/>
        <pt x="1621" y="1335" on="1"/>
        <pt x="1575" y="1339" on="0"/>
        <pt x="1489" y="1347" on="0"/>
        <pt x="1463" y="1355" on="1"/>
        <pt x="1468" y="1446" on="1"/>
        <pt x="1863" y="1446" on="1"/>
        <pt x="1867" y="1355" on="1"/>
        <pt x="1849" y="1349" on="0"/>
        <pt x="1807" y="1339" on="0"/>
        <pt x="1782" y="1335" on="1"/>
        <pt x="1477" y="0" on="1"/>
        <pt x="1451" y="-6" on="0"/>
        <pt x="1381" y="-10" on="0"/>
        <pt x="1311" y="-9" on="0"/>
        <pt x="1249" y="-3" on="0"/>
        <pt x="1231" y="0" on="1"/>
        <pt x="986" y="865" on="1"/>
        <pt x="947" y="1028" on="1"/>
        <pt x="917" y="863" on="1"/>
        <pt x="672" y="2" on="1"/>
        <pt x="646" y="-3" on="0"/>
        <pt x="577" y="-7" on="0"/>
        <pt x="511" y="-7" on="0"/>
        <pt x="457" y="-3" on="0"/>
        <pt x="444" y="0" on="1"/>
      </contour>
    </TTGlyph>
    <TTGlyph name="Wacute" xMin="43" yMin="-10" xMax="1879" yMax="1881">
      <contour>
        <pt x="850" y="1538" on="1"/>
        <pt x="840" y="1547" on="0"/>
        <pt x="814" y="1588" on="0"/>
        <pt x="803" y="1614" on="1"/>
        <pt x="1164" y="1881" on="1"/>
        <pt x="1279" y="1796" on="1"/>
        <pt x="1277" y="1746" on="1"/>
      </contour>
      <contour>
        <pt x="147" y="1335" on="1"/>
        <pt x="45" y="1355" on="1"/>
        <pt x="41" y="1375" on="0"/>
        <pt x="45" y="1425" on="0"/>
        <pt x="50" y="1446" on="1"/>
        <pt x="499" y="1446" on="1"/>
        <pt x="503" y="1355" on="1"/>
        <pt x="340" y="1335" on="1"/>
        <pt x="579" y="248" on="1"/>
        <pt x="602" y="142" on="1"/>
        <pt x="631" y="298" on="1"/>
        <pt x="893" y="1302" on="1"/>
        <pt x="939" y="1315" on="0"/>
        <pt x="1019" y="1317" on="0"/>
        <pt x="1066" y="1310" on="1"/>
        <pt x="1344" y="260" on="1"/>
        <pt x="1380" y="135" on="1"/>
        <pt x="1407" y="298" on="1"/>
        <pt x="1633" y="1335" on="1"/>
        <pt x="1587" y="1339" on="0"/>
        <pt x="1502" y="1347" on="0"/>
        <pt x="1475" y="1355" on="1"/>
        <pt x="1479" y="1446" on="1"/>
        <pt x="1874" y="1446" on="1"/>
        <pt x="1879" y="1355" on="1"/>
        <pt x="1842" y="1342" on="0"/>
        <pt x="1793" y="1335" on="1"/>
        <pt x="1489" y="0" on="1"/>
        <pt x="1462" y="-6" on="0"/>
        <pt x="1392" y="-10" on="0"/>
        <pt x="1322" y="-9" on="0"/>
        <pt x="1261" y="-3" on="0"/>
        <pt x="1243" y="0" on="1"/>
        <pt x="997" y="931" on="1"/>
        <pt x="959" y="1094" on="1"/>
        <pt x="929" y="929" on="1"/>
        <pt x="683" y="2" on="1"/>
        <pt x="657" y="-3" on="0"/>
        <pt x="589" y="-7" on="0"/>
        <pt x="523" y="-7" on="0"/>
        <pt x="468" y="-3" on="0"/>
        <pt x="456" y="0" on="1"/>
      </contour>
    </TTGlyph>
    <TTGlyph name="Wdieresis" xMin="43" yMin="-10" xMax="1879" yMax="1801">
      <contour>
        <pt x="1182" y="1590" on="1"/>
        <pt x="1149" y="1590" on="0"/>
        <pt x="1107" y="1607" on="0"/>
        <pt x="1083" y="1635" on="0"/>
        <pt x="1073" y="1673" on="0"/>
        <pt x="1073" y="1694" on="1"/>
        <pt x="1073" y="1716" on="0"/>
        <pt x="1083" y="1755" on="0"/>
        <pt x="1107" y="1784" on="0"/>
        <pt x="1149" y="1801" on="0"/>
        <pt x="1182" y="1801" on="1"/>
        <pt x="1244" y="1801" on="0"/>
        <pt x="1289" y="1744" on="0"/>
        <pt x="1289" y="1694" on="1"/>
        <pt x="1289" y="1673" on="0"/>
        <pt x="1279" y="1635" on="0"/>
        <pt x="1254" y="1607" on="0"/>
        <pt x="1213" y="1590" on="0"/>
      </contour>
      <contour>
        <pt x="758" y="1590" on="1"/>
        <pt x="728" y="1590" on="0"/>
        <pt x="688" y="1607" on="0"/>
        <pt x="664" y="1635" on="0"/>
        <pt x="654" y="1673" on="0"/>
        <pt x="654" y="1694" on="1"/>
        <pt x="654" y="1716" on="0"/>
        <pt x="664" y="1755" on="0"/>
        <pt x="688" y="1784" on="0"/>
        <pt x="728" y="1801" on="0"/>
        <pt x="758" y="1801" on="1"/>
        <pt x="820" y="1801" on="0"/>
        <pt x="870" y="1744" on="0"/>
        <pt x="870" y="1694" on="1"/>
        <pt x="870" y="1673" on="0"/>
        <pt x="858" y="1635" on="0"/>
        <pt x="832" y="1607" on="0"/>
        <pt x="789" y="1590" on="0"/>
      </contour>
      <contour>
        <pt x="147" y="1335" on="1"/>
        <pt x="45" y="1355" on="1"/>
        <pt x="42" y="1375" on="0"/>
        <pt x="45" y="1425" on="0"/>
        <pt x="50" y="1446" on="1"/>
        <pt x="499" y="1446" on="1"/>
        <pt x="504" y="1355" on="1"/>
        <pt x="341" y="1335" on="1"/>
        <pt x="580" y="248" on="1"/>
        <pt x="596" y="111" on="1"/>
        <pt x="632" y="298" on="1"/>
        <pt x="894" y="1236" on="1"/>
        <pt x="940" y="1248" on="0"/>
        <pt x="1019" y="1250" on="0"/>
        <pt x="1066" y="1243" on="1"/>
        <pt x="1345" y="260" on="1"/>
        <pt x="1376" y="104" on="1"/>
        <pt x="1406" y="298" on="1"/>
        <pt x="1633" y="1335" on="1"/>
        <pt x="1587" y="1339" on="0"/>
        <pt x="1501" y="1347" on="0"/>
        <pt x="1475" y="1355" on="1"/>
        <pt x="1480" y="1446" on="1"/>
        <pt x="1875" y="1446" on="1"/>
        <pt x="1879" y="1355" on="1"/>
        <pt x="1861" y="1349" on="0"/>
        <pt x="1819" y="1339" on="0"/>
        <pt x="1794" y="1335" on="1"/>
        <pt x="1489" y="0" on="1"/>
        <pt x="1463" y="-6" on="0"/>
        <pt x="1393" y="-10" on="0"/>
        <pt x="1323" y="-9" on="0"/>
        <pt x="1261" y="-3" on="0"/>
        <pt x="1243" y="0" on="1"/>
        <pt x="998" y="865" on="1"/>
        <pt x="959" y="1028" on="1"/>
        <pt x="929" y="863" on="1"/>
        <pt x="684" y="2" on="1"/>
        <pt x="658" y="-3" on="0"/>
        <pt x="589" y="-7" on="0"/>
        <pt x="523" y="-7" on="0"/>
        <pt x="469" y="-3" on="0"/>
        <pt x="456" y="0" on="1"/>
      </contour>
    </TTGlyph>
    <TTGlyph name="Wgrave" xMin="43" yMin="-10" xMax="1879" yMax="1881">
      <contour>
        <pt x="699" y="1791" on="1"/>
        <pt x="814" y="1881" on="1"/>
        <pt x="1171" y="1617" on="1"/>
        <pt x="1162" y="1590" on="0"/>
        <pt x="1143" y="1556" on="0"/>
        <pt x="1130" y="1536" on="1"/>
        <pt x="701" y="1741" on="1"/>
      </contour>
      <contour>
        <pt x="147" y="1335" on="1"/>
        <pt x="45" y="1355" on="1"/>
        <pt x="41" y="1375" on="0"/>
        <pt x="45" y="1425" on="0"/>
        <pt x="50" y="1446" on="1"/>
        <pt x="499" y="1446" on="1"/>
        <pt x="503" y="1355" on="1"/>
        <pt x="340" y="1335" on="1"/>
        <pt x="579" y="248" on="1"/>
        <pt x="602" y="142" on="1"/>
        <pt x="631" y="298" on="1"/>
        <pt x="893" y="1302" on="1"/>
        <pt x="939" y="1315" on="0"/>
        <pt x="1019" y="1317" on="0"/>
        <pt x="1066" y="1310" on="1"/>
        <pt x="1344" y="260" on="1"/>
        <pt x="1380" y="135" on="1"/>
        <pt x="1407" y="298" on="1"/>
        <pt x="1633" y="1335" on="1"/>
        <pt x="1587" y="1339" on="0"/>
        <pt x="1502" y="1347" on="0"/>
        <pt x="1475" y="1355" on="1"/>
        <pt x="1479" y="1446" on="1"/>
        <pt x="1874" y="1446" on="1"/>
        <pt x="1879" y="1355" on="1"/>
        <pt x="1842" y="1342" on="0"/>
        <pt x="1793" y="1335" on="1"/>
        <pt x="1489" y="0" on="1"/>
        <pt x="1462" y="-6" on="0"/>
        <pt x="1392" y="-10" on="0"/>
        <pt x="1322" y="-9" on="0"/>
        <pt x="1261" y="-3" on="0"/>
        <pt x="1243" y="0" on="1"/>
        <pt x="997" y="931" on="1"/>
        <pt x="959" y="1094" on="1"/>
        <pt x="929" y="929" on="1"/>
        <pt x="683" y="2" on="1"/>
        <pt x="657" y="-3" on="0"/>
        <pt x="589" y="-7" on="0"/>
        <pt x="523" y="-7" on="0"/>
        <pt x="468" y="-3" on="0"/>
        <pt x="456" y="0" on="1"/>
      </contour>
    </TTGlyph>
    <TTGlyph name="X" xMin="43" yMin="0" xMax="1342" yMax="1448">
      <contour>
        <pt x="52" y="0" on="1"/>
        <pt x="45" y="23" on="0"/>
        <pt x="42" y="67" on="0"/>
        <pt x="47" y="92" on="1"/>
        <pt x="151" y="115" on="1"/>
        <pt x="586" y="733" on="1"/>
        <pt x="151" y="1349" on="1"/>
        <pt x="63" y="1362" on="1"/>
        <pt x="61" y="1385" on="0"/>
        <pt x="62" y="1425" on="0"/>
        <pt x="70" y="1448" on="1"/>
        <pt x="508" y="1448" on="1"/>
        <pt x="513" y="1425" on="0"/>
        <pt x="515" y="1386" on="0"/>
        <pt x="515" y="1362" on="1"/>
        <pt x="374" y="1342" on="1"/>
        <pt x="697" y="865" on="1"/>
        <pt x="1031" y="1335" on="1"/>
        <pt x="882" y="1357" on="1"/>
        <pt x="880" y="1381" on="0"/>
        <pt x="885" y="1424" on="0"/>
        <pt x="889" y="1448" on="1"/>
        <pt x="1286" y="1448" on="1"/>
        <pt x="1294" y="1428" on="0"/>
        <pt x="1291" y="1376" on="0"/>
        <pt x="1288" y="1357" on="1"/>
        <pt x="1184" y="1335" on="1"/>
        <pt x="775" y="775" on="1"/>
        <pt x="1243" y="104" on="1"/>
        <pt x="1337" y="92" on="1"/>
        <pt x="1341" y="69" on="0"/>
        <pt x="1342" y="25" on="0"/>
        <pt x="1337" y="0" on="1"/>
        <pt x="909" y="0" on="1"/>
        <pt x="904" y="25" on="0"/>
        <pt x="903" y="69" on="0"/>
        <pt x="907" y="92" on="1"/>
        <pt x="1021" y="104" on="1"/>
        <pt x="669" y="638" on="1"/>
        <pt x="307" y="115" on="1"/>
        <pt x="463" y="92" on="1"/>
        <pt x="463" y="69" on="0"/>
        <pt x="461" y="25" on="0"/>
        <pt x="456" y="0" on="1"/>
      </contour>
    </TTGlyph>
    <TTGlyph name="Y" xMin="21" yMin="0" xMax="1295" yMax="1448">
      <contour>
        <pt x="379" y="90" on="1"/>
        <pt x="399" y="96" on="0"/>
        <pt x="450" y="106" on="0"/>
        <pt x="503" y="113" on="0"/>
        <pt x="554" y="119" on="0"/>
        <pt x="575" y="122" on="1"/>
        <pt x="575" y="627" on="1"/>
        <pt x="135" y="1333" on="1"/>
        <pt x="23" y="1359" on="1"/>
        <pt x="21" y="1364" on="0"/>
        <pt x="21" y="1384" on="0"/>
        <pt x="21" y="1392" on="1"/>
        <pt x="21" y="1406" on="0"/>
        <pt x="30" y="1441" on="0"/>
        <pt x="33" y="1448" on="1"/>
        <pt x="482" y="1448" on="1"/>
        <pt x="492" y="1359" on="1"/>
        <pt x="457" y="1349" on="0"/>
        <pt x="377" y="1334" on="0"/>
        <pt x="340" y="1329" on="1"/>
        <pt x="643" y="827" on="1"/>
        <pt x="685" y="744" on="1"/>
        <pt x="1038" y="1326" on="1"/>
        <pt x="853" y="1359" on="1"/>
        <pt x="851" y="1364" on="0"/>
        <pt x="850" y="1384" on="0"/>
        <pt x="850" y="1392" on="1"/>
        <pt x="850" y="1406" on="0"/>
        <pt x="858" y="1441" on="0"/>
        <pt x="863" y="1448" on="1"/>
        <pt x="1283" y="1448" on="1"/>
        <pt x="1295" y="1359" on="1"/>
        <pt x="1288" y="1355" on="0"/>
        <pt x="1263" y="1347" on="0"/>
        <pt x="1234" y="1340" on="0"/>
        <pt x="1205" y="1333" on="0"/>
        <pt x="1193" y="1331" on="1"/>
        <pt x="754" y="634" on="1"/>
        <pt x="754" y="122" on="1"/>
        <pt x="965" y="90" on="1"/>
        <pt x="967" y="85" on="0"/>
        <pt x="967" y="64" on="0"/>
        <pt x="967" y="57" on="1"/>
        <pt x="967" y="43" on="0"/>
        <pt x="958" y="7" on="0"/>
        <pt x="954" y="0" on="1"/>
        <pt x="388" y="0" on="1"/>
      </contour>
    </TTGlyph>
    <TTGlyph name="Yacute" xMin="21" yMin="0" xMax="1295" yMax="1881">
      <contour>
        <pt x="541" y="1538" on="1"/>
        <pt x="531" y="1547" on="0"/>
        <pt x="505" y="1588" on="0"/>
        <pt x="494" y="1614" on="1"/>
        <pt x="855" y="1881" on="1"/>
        <pt x="970" y="1796" on="1"/>
        <pt x="968" y="1746" on="1"/>
      </contour>
      <contour>
        <pt x="379" y="90" on="1"/>
        <pt x="399" y="96" on="0"/>
        <pt x="450" y="106" on="0"/>
        <pt x="503" y="113" on="0"/>
        <pt x="554" y="119" on="0"/>
        <pt x="575" y="122" on="1"/>
        <pt x="575" y="627" on="1"/>
        <pt x="135" y="1333" on="1"/>
        <pt x="23" y="1359" on="1"/>
        <pt x="21" y="1364" on="0"/>
        <pt x="21" y="1384" on="0"/>
        <pt x="21" y="1392" on="1"/>
        <pt x="21" y="1406" on="0"/>
        <pt x="30" y="1441" on="0"/>
        <pt x="33" y="1448" on="1"/>
        <pt x="482" y="1448" on="1"/>
        <pt x="492" y="1359" on="1"/>
        <pt x="457" y="1349" on="0"/>
        <pt x="377" y="1334" on="0"/>
        <pt x="340" y="1329" on="1"/>
        <pt x="643" y="827" on="1"/>
        <pt x="685" y="744" on="1"/>
        <pt x="1038" y="1326" on="1"/>
        <pt x="853" y="1359" on="1"/>
        <pt x="851" y="1364" on="0"/>
        <pt x="850" y="1384" on="0"/>
        <pt x="850" y="1392" on="1"/>
        <pt x="850" y="1406" on="0"/>
        <pt x="858" y="1441" on="0"/>
        <pt x="863" y="1448" on="1"/>
        <pt x="1283" y="1448" on="1"/>
        <pt x="1295" y="1359" on="1"/>
        <pt x="1288" y="1355" on="0"/>
        <pt x="1263" y="1347" on="0"/>
        <pt x="1234" y="1340" on="0"/>
        <pt x="1205" y="1333" on="0"/>
        <pt x="1193" y="1331" on="1"/>
        <pt x="754" y="634" on="1"/>
        <pt x="754" y="122" on="1"/>
        <pt x="965" y="90" on="1"/>
        <pt x="967" y="85" on="0"/>
        <pt x="967" y="64" on="0"/>
        <pt x="967" y="57" on="1"/>
        <pt x="967" y="43" on="0"/>
        <pt x="958" y="7" on="0"/>
        <pt x="954" y="0" on="1"/>
        <pt x="388" y="0" on="1"/>
      </contour>
    </TTGlyph>
    <TTGlyph name="Ydieresis" xMin="28" yMin="0" xMax="1302" yMax="1801">
      <contour>
        <pt x="904" y="1590" on="1"/>
        <pt x="871" y="1590" on="0"/>
        <pt x="829" y="1607" on="0"/>
        <pt x="805" y="1635" on="0"/>
        <pt x="795" y="1673" on="0"/>
        <pt x="795" y="1694" on="1"/>
        <pt x="795" y="1716" on="0"/>
        <pt x="805" y="1755" on="0"/>
        <pt x="829" y="1784" on="0"/>
        <pt x="871" y="1801" on="0"/>
        <pt x="904" y="1801" on="1"/>
        <pt x="966" y="1801" on="0"/>
        <pt x="1011" y="1744" on="0"/>
        <pt x="1011" y="1694" on="1"/>
        <pt x="1011" y="1673" on="0"/>
        <pt x="1001" y="1635" on="0"/>
        <pt x="976" y="1607" on="0"/>
        <pt x="935" y="1590" on="0"/>
      </contour>
      <contour>
        <pt x="480" y="1590" on="1"/>
        <pt x="450" y="1590" on="0"/>
        <pt x="410" y="1607" on="0"/>
        <pt x="386" y="1635" on="0"/>
        <pt x="376" y="1673" on="0"/>
        <pt x="376" y="1694" on="1"/>
        <pt x="376" y="1716" on="0"/>
        <pt x="386" y="1755" on="0"/>
        <pt x="410" y="1784" on="0"/>
        <pt x="450" y="1801" on="0"/>
        <pt x="480" y="1801" on="1"/>
        <pt x="542" y="1801" on="0"/>
        <pt x="592" y="1744" on="0"/>
        <pt x="592" y="1694" on="1"/>
        <pt x="592" y="1673" on="0"/>
        <pt x="580" y="1635" on="0"/>
        <pt x="554" y="1607" on="0"/>
        <pt x="511" y="1590" on="0"/>
      </contour>
      <contour>
        <pt x="386" y="90" on="1"/>
        <pt x="406" y="96" on="0"/>
        <pt x="457" y="106" on="0"/>
        <pt x="510" y="113" on="0"/>
        <pt x="561" y="119" on="0"/>
        <pt x="582" y="122" on="1"/>
        <pt x="582" y="627" on="1"/>
        <pt x="142" y="1333" on="1"/>
        <pt x="30" y="1359" on="1"/>
        <pt x="28" y="1364" on="0"/>
        <pt x="28" y="1384" on="0"/>
        <pt x="28" y="1392" on="1"/>
        <pt x="28" y="1406" on="0"/>
        <pt x="37" y="1441" on="0"/>
        <pt x="40" y="1448" on="1"/>
        <pt x="489" y="1448" on="1"/>
        <pt x="499" y="1359" on="1"/>
        <pt x="464" y="1349" on="0"/>
        <pt x="384" y="1334" on="0"/>
        <pt x="347" y="1329" on="1"/>
        <pt x="650" y="827" on="1"/>
        <pt x="692" y="744" on="1"/>
        <pt x="1045" y="1326" on="1"/>
        <pt x="860" y="1359" on="1"/>
        <pt x="858" y="1364" on="0"/>
        <pt x="857" y="1384" on="0"/>
        <pt x="857" y="1392" on="1"/>
        <pt x="857" y="1406" on="0"/>
        <pt x="865" y="1441" on="0"/>
        <pt x="870" y="1448" on="1"/>
        <pt x="1290" y="1448" on="1"/>
        <pt x="1302" y="1359" on="1"/>
        <pt x="1295" y="1355" on="0"/>
        <pt x="1270" y="1347" on="0"/>
        <pt x="1241" y="1340" on="0"/>
        <pt x="1212" y="1333" on="0"/>
        <pt x="1200" y="1331" on="1"/>
        <pt x="761" y="634" on="1"/>
        <pt x="761" y="122" on="1"/>
        <pt x="972" y="90" on="1"/>
        <pt x="974" y="85" on="0"/>
        <pt x="974" y="64" on="0"/>
        <pt x="974" y="57" on="1"/>
        <pt x="974" y="43" on="0"/>
        <pt x="965" y="7" on="0"/>
        <pt x="961" y="0" on="1"/>
        <pt x="395" y="0" on="1"/>
      </contour>
    </TTGlyph>
</ttFont>
